<svg xmlns="http://www.w3.org/2000/svg" width="327" height="327" viewBox="0 0 327 327">
  <g id="icon-denuncia" transform="translate(-44 -39)">
    <circle id="Elipse_1" data-name="Elipse 1" cx="163.5" cy="163.5" r="163.5" transform="translate(44 39)" fill="#921922"/>
    <g id="gritar" transform="translate(156 145)">
      <path id="Trazado_7" data-name="Trazado 7" d="M124.135,17.843a3.427,3.427,0,0,1-3.428-3.428V3.428a3.428,3.428,0,0,1,6.855,0V14.415A3.428,3.428,0,0,1,124.135,17.843Zm0,0" transform="translate(-52.195)" fill="#fff"/>
      <path id="Trazado_8" data-name="Trazado 8" d="M35.344,42.923A3.428,3.428,0,1,1,30.5,38.075L38.575,30a3.427,3.427,0,1,1,4.847,4.847Zm0,0" transform="translate(51.785 -22.367)" fill="#fff"/>
      <path id="Trazado_9" data-name="Trazado 9" d="M.5,123.635a3.428,3.428,0,0,1,3.428-3.428H14.915a3.428,3.428,0,1,1,0,6.855H3.928A3.427,3.427,0,0,1,.5,123.635Zm0,0" transform="translate(84.494 -92.738)" fill="#fff"/>
      <path id="Trazado_10" data-name="Trazado 10" d="M213.755,410.562A10.283,10.283,0,0,1,199.212,425.1l-10.81-10.81,18.061-11.025Zm0,0" transform="translate(-156.869 -311.116)" fill="#fff"/>
      <path id="Trazado_11" data-name="Trazado 11" d="M128.751,181.638l32.892-53.888L201.893,168l-53.888,32.892a3.426,3.426,0,0,1-4.21-.5l-14.543-14.543a3.427,3.427,0,0,1-.5-4.21Zm0,0" transform="translate(-128.249 -98.557)" fill="#fff"/>
      <path id="Trazado_12" data-name="Trazado 12" d="M36.461,35.96A10.3,10.3,0,0,1,51,35.96l38.78,38.78A10.283,10.283,0,0,1,75.241,89.283L36.461,50.5a10.3,10.3,0,0,1,0-14.543Zm0,0" transform="translate(2.516 -25.423)" fill="#fff"/>
    </g>
  </g>
</svg>
