<svg xmlns="http://www.w3.org/2000/svg" width="327" height="327" viewBox="0 0 327 327">
  <g id="icon-evento-imc" transform="translate(-44 -39)">
    <circle id="Elipse_1" data-name="Elipse 1" cx="163.5" cy="163.5" r="163.5" transform="translate(44 39)" fill="#efb12d"/>
    <g id="Grupo_9" data-name="Grupo 9" transform="translate(150 144)">
      <path id="Trazado_41" data-name="Trazado 41" d="M131.612,260.9a2.654,2.654,0,0,0-2.656-2.653h-9.267a2.654,2.654,0,0,0-2.654,2.653v9.266a2.655,2.655,0,0,0,2.654,2.655h9.267a2.655,2.655,0,0,0,2.656-2.655V260.9Z" transform="translate(-90.281 -196.347)" fill="#fff"/>
      <path id="Trazado_42" data-name="Trazado 42" d="M228.246,260.9a2.654,2.654,0,0,0-2.653-2.653h-9.268a2.654,2.654,0,0,0-2.654,2.653v9.266a2.655,2.655,0,0,0,2.654,2.655h9.268a2.654,2.654,0,0,0,2.653-2.655Z" transform="translate(-163.755 -196.347)" fill="#fff"/>
      <path id="Trazado_43" data-name="Trazado 43" d="M324.875,260.9a2.654,2.654,0,0,0-2.654-2.653h-9.267A2.654,2.654,0,0,0,310.3,260.9v9.266a2.655,2.655,0,0,0,2.656,2.655h9.267a2.655,2.655,0,0,0,2.654-2.655Z" transform="translate(-237.223 -196.347)" fill="#fff"/>
      <path id="Trazado_44" data-name="Trazado 44" d="M131.612,357.529a2.654,2.654,0,0,0-2.656-2.654h-9.267a2.654,2.654,0,0,0-2.654,2.654v9.264a2.654,2.654,0,0,0,2.654,2.654h9.267a2.655,2.655,0,0,0,2.656-2.654v-9.264Z" transform="translate(-90.281 -269.819)" fill="#fff"/>
      <path id="Trazado_45" data-name="Trazado 45" d="M228.246,357.529a2.653,2.653,0,0,0-2.653-2.654h-9.268a2.654,2.654,0,0,0-2.654,2.654v9.264a2.654,2.654,0,0,0,2.654,2.654h9.268a2.654,2.654,0,0,0,2.653-2.654Z" transform="translate(-163.755 -269.819)" fill="#fff"/>
      <path id="Trazado_46" data-name="Trazado 46" d="M324.875,357.529a2.653,2.653,0,0,0-2.653-2.654h-9.268a2.654,2.654,0,0,0-2.656,2.654v9.264a2.654,2.654,0,0,0,2.656,2.654h9.268a2.654,2.654,0,0,0,2.653-2.654v-9.264Z" transform="translate(-237.223 -269.819)" fill="#fff"/>
      <path id="Trazado_47" data-name="Trazado 47" d="M109.634,54.193V68.346A11.56,11.56,0,0,1,98.048,79.9H90.74A11.619,11.619,0,0,1,79.085,68.346v-14.2H46.143v14.2A11.618,11.618,0,0,1,34.49,79.9H27.18A11.559,11.559,0,0,1,15.594,68.346V54.193A10.535,10.535,0,0,0,5.411,64.672v82.944A10.54,10.54,0,0,0,15.9,158.165H109.33a10.552,10.552,0,0,0,10.487-10.549V64.672A10.535,10.535,0,0,0,109.634,54.193Zm-3.395,88.258a4.534,4.534,0,0,1-4.534,4.534H23.323a4.534,4.534,0,0,1-4.534-4.534V99.607a4.534,4.534,0,0,1,4.534-4.535h78.382a4.534,4.534,0,0,1,4.534,4.535v42.843Z" transform="translate(-5.411 -41.165)" fill="#fff"/>
      <path id="Trazado_48" data-name="Trazado 48" d="M83.523,31.145h7.229a3.971,3.971,0,0,0,3.973-3.971V3.972A3.972,3.972,0,0,0,90.753,0H83.523A3.972,3.972,0,0,0,79.55,3.972v23.2A3.971,3.971,0,0,0,83.523,31.145Z" transform="translate(-61.78)" fill="#fff"/>
      <path id="Trazado_49" data-name="Trazado 49" d="M348.431,31.145h7.229a3.971,3.971,0,0,0,3.972-3.971V3.972A3.972,3.972,0,0,0,355.66,0h-7.229a3.972,3.972,0,0,0-3.973,3.972v23.2A3.971,3.971,0,0,0,348.431,31.145Z" transform="translate(-263.196)" fill="#fff"/>
    </g>
  </g>
</svg>
