<svg xmlns="http://www.w3.org/2000/svg" width="327" height="327" viewBox="0 0 327 327">
  <g id="icon-servicios" transform="translate(-44 -39)">
    <circle id="Elipse_1" data-name="Elipse 1" cx="163.5" cy="163.5" r="163.5" transform="translate(44 39)" fill="#ec6d0a"/>
    <path id="Trazado_13" data-name="Trazado 13" d="M117.954,51.667h-.188c-3.1,0-6.108-.094-9.21,0a2.9,2.9,0,0,1-.94-.094,48.758,48.758,0,0,0-7.142-17.2,9.417,9.417,0,0,1,1.034-1.128l6.2-6.2A57.416,57.416,0,0,0,94.178,13.607c-2.161,2.255-4.417,4.417-6.578,6.578a5.165,5.165,0,0,1-.846.658,48.584,48.584,0,0,0-17.2-7.048c0-.188-.094-.376-.094-.658.094-1.692,0-3.289,0-4.981h0v-4.7h0a58.207,58.207,0,0,0-9.21-.658,60.844,60.844,0,0,0-9.052.713l-.252.039h0c.094,1.6,0,3.1,0,4.7h0v4.981a1.393,1.393,0,0,1-.094.658,47.882,47.882,0,0,0-17.2,7.048,2.591,2.591,0,0,1-.846-.658c-2.161-2.255-4.417-4.417-6.578-6.578A61.192,61.192,0,0,0,12.7,27.14l6.2,6.2a9.417,9.417,0,0,1,1.034,1.128,51.506,51.506,0,0,0-7.048,17.2,2.9,2.9,0,0,1-.94.094c-3.1-.094-6.108,0-9.21,0H2.552A51.8,51.8,0,0,0,1.8,61.253a63.594,63.594,0,0,0,.752,9.492H12.8a49.578,49.578,0,0,0,7.236,17.48c-.094.188-.282.282-.47.47-2.067,1.973-4.135,4.135-6.2,6.2l-.658.658A60.347,60.347,0,0,0,26.14,108.9l.188-.188c2.161-2.255,4.511-4.511,6.672-6.766a1.65,1.65,0,0,1,.47-.376,48.5,48.5,0,0,0,17.292,7.142,2.086,2.086,0,0,1,.094.846c-.094,3.1,0,6.2,0,9.3v.188a57.942,57.942,0,0,0,18.607,0v-.188c0-3.1,0-6.2-.094-9.3a2.6,2.6,0,0,1,.094-.846,46.208,46.208,0,0,0,17.292-7.142c.188.094.282.282.47.376,2.161,2.255,4.511,4.511,6.672,6.766l.188.188a58.418,58.418,0,0,0,13.439-13.345l-.658-.658-6.2-6.2c-.188-.188-.282-.376-.47-.47a47.235,47.235,0,0,0,7.236-17.48h10.243a63.594,63.594,0,0,0,.752-9.492A36.107,36.107,0,0,0,117.954,51.667Zm-33.925.564L62.6,73.376,56.776,79.2h0a6.269,6.269,0,0,1-8.928-.094l-6.014-5.733-5.357-5.545a6.277,6.277,0,0,1-1.88-4.417A6.116,6.116,0,0,1,36.477,59h0a6.239,6.239,0,0,1,8.834,0l6.954,6.954L75.1,43.4a6.026,6.026,0,0,1,4.417-1.786h0a6.116,6.116,0,0,1,4.417,1.88,6.026,6.026,0,0,1,1.786,4.417A5.118,5.118,0,0,1,84.029,52.231Z" transform="translate(147.2 143.2)" fill="#fff"/>
  </g>
</svg>
