<svg xmlns="http://www.w3.org/2000/svg" width="327" height="327" viewBox="0 0 327 327">
  <g id="icon-notificaciones" transform="translate(-44 -39)">
    <circle id="Elipse_1" data-name="Elipse 1" cx="163.5" cy="163.5" r="163.5" transform="translate(44 39)" fill="#921922"/>
    <g id="instrumento-musical" transform="translate(138 144)">
      <path id="Trazado_52" data-name="Trazado 52" d="M115.443,82.136A32.527,32.527,0,0,1,103.89,57.246V43.707A34.021,34.021,0,0,0,74.752,10.1V4.856a4.856,4.856,0,0,0-9.713,0V10.1A34.017,34.017,0,0,0,35.9,43.707V57.246A32.564,32.564,0,0,1,24.3,82.174a8.5,8.5,0,0,0,5.526,14.953H109.96a8.5,8.5,0,0,0,5.483-14.991Zm0,0" fill="#fff"/>
      <path id="Trazado_53" data-name="Trazado 53" d="M174.131,462.569A18.241,18.241,0,0,0,191.973,448H156.289a18.24,18.24,0,0,0,17.842,14.569Zm0,0" transform="translate(-104.235 -346.017)" fill="#fff"/>
    </g>
  </g>
</svg>
