<?xml version="1.0"?>
<svg xmlns="http://www.w3.org/2000/svg" xmlns:xlink="http://www.w3.org/1999/xlink" version="1.1" id="Capa_1" x="0px" y="0px" viewBox="0 0 469.333 469.333" style="enable-background:new 0 0 469.333 469.333;" xml:space="preserve" width="512px" height="512px" class=""><g><g>
	<g>
		<path d="M424.979,0C242.156,0,21.333,129.994,21.333,291.414c0,9.614,0.958,19.218,2.865,28.551    c0.833,4.125,4.021,7.364,8.125,8.281c4.104,0.927,8.365-0.646,10.875-4.031C114.385,228.688,244.76,107.079,362.74,65.81    c5.51-1.958,11.729,1.135,13.625,6.541c0.938,2.677,0.771,5.573-0.458,8.135c-1.24,2.573-3.396,4.5-6.094,5.437    C250.219,127.765,116.01,254.645,45.24,358.37c-0.047,0.069-0.027,0.158-0.072,0.227C24.236,389.19,0,430.637,0,458.667    c0,5.896,4.771,10.666,10.667,10.666s10.667-4.771,10.667-10.666c0-15.32,12.207-42.933,33.145-75.554    c4.573,5.858,9.406,11.524,14.803,16.921c31.813,31.811,68.365,47.946,108.625,47.946c161.427,0,291.427-220.813,291.427-403.628    C469.333,19.895,449.438,0,424.979,0z" data-original="#000000" class="active-path" data-old_color="#000000" fill="#ec6d0a"/>
	</g>
</g></g> </svg>
