<svg xmlns="http://www.w3.org/2000/svg" width="327" height="327" viewBox="0 0 327 327">
  <g id="icon-mapa" transform="translate(-44 -39)">
    <circle id="Elipse_1" data-name="Elipse 1" cx="163.5" cy="163.5" r="163.5" transform="translate(44 39)" fill="#921922"/>
    <path id="Trazado_14" data-name="Trazado 14" d="M83.88,67.826a265.415,265.415,0,0,1-17.77,23.8,6.051,6.051,0,0,1-2.6,1.755v26l24.466-8.734ZM56.872,91.607A260.744,260.744,0,0,1,39.1,67.826l-4.034,42.821,24.406,8.734v-26a5.91,5.91,0,0,1-2.6-1.775Zm35.156,19.242,25.253,9.016a2.017,2.017,0,0,0,2.7-2.279l-8.068-42.357a2.017,2.017,0,0,0-1.21-1.472L87.591,64.135ZM5.7,119.865l25.253-9.016,4.437-46.714L12.317,73.756a2.017,2.017,0,0,0-1.21,1.472L3.038,117.586A2.017,2.017,0,0,0,5.7,119.865Zm57.323-30.84c1.271-1.493,30.739-36.508,30.739-53.753a32.272,32.272,0,0,0-64.544,0c0,17.245,29.468,52.261,30.739,53.753a2.017,2.017,0,0,0,3.066,0ZM47.372,35.272A14.119,14.119,0,1,1,61.491,49.391,14.119,14.119,0,0,1,47.372,35.272Z" transform="translate(145.998 143)" fill="#fff"/>
  </g>
</svg>
