<svg xmlns="http://www.w3.org/2000/svg" width="219.839" height="191.5" viewBox="0 0 219.839 191.5">
  <g id="icon-salud-dif" transform="translate(0 -33)">
    <g id="Grupo_13" data-name="Grupo 13" transform="translate(0 33)">
      <g id="Grupo_12" data-name="Grupo 12" transform="translate(0 0)">
        <path id="Trazado_56" data-name="Trazado 56" d="M161.444,33c-26.045,0-42.763,18.039-51.525,34.285C101.158,51.038,84.44,33,58.395,33,25.349,33,0,59.813,0,95.374a66.929,66.929,0,0,0,5.279,26.077H54.413l11.1-22.2c2.189-4.365,9.334-4.365,11.523,0l20,40,7.12-14.24c2.189-4.365,9.334-4.365,11.523,0l7.12,14.24,20-40c2.189-4.365,9.334-4.365,11.523,0l11.1,22.2H214.56a66.929,66.929,0,0,0,5.279-26.077C219.839,59.813,194.49,33,161.444,33Z" transform="translate(0 -33)" fill="#b777a1"/>
      </g>
    </g>
    <g id="Grupo_15" data-name="Grupo 15" transform="translate(12.038 116.532)">
      <g id="Grupo_14" data-name="Grupo 14">
        <path id="Trazado_57" data-name="Trazado 57" d="M177.443,245.345a6.443,6.443,0,0,1-5.761-3.56l-7.12-14.24-20,40a6.442,6.442,0,0,1-11.523,0l-7.12-14.24-7.12,14.24c-2.189,4.365-9.334,4.365-11.523,0l-20-40-7.12,14.24a6.443,6.443,0,0,1-5.761,3.56H28.037c13.256,20.856,37.13,40.667,66.992,65.871,8.384,7.076,17.3,14.6,26.668,22.725a6.45,6.45,0,0,0,8.441,0c9.365-8.12,18.284-15.648,26.668-22.725,29.863-25.2,53.736-45.015,66.992-65.871Z" transform="translate(-28.037 -227.545)" fill="#b777a1"/>
      </g>
    </g>
  </g>
</svg>
