<svg xmlns="http://www.w3.org/2000/svg" width="327" height="327" viewBox="0 0 327 327">
  <g id="icon-dif" transform="translate(-44 -39)">
    <circle id="Elipse_1" data-name="Elipse 1" cx="163.5" cy="163.5" r="163.5" transform="translate(44 39)" fill="#f4f4f4"/>
    <g id="logo-dif" transform="translate(88.208 138.973)">
      <path id="XMLID_119_" d="M370.723,185.115H346.707a2.007,2.007,0,1,1,0-4.015h24.016a2.025,2.025,0,0,1,2.007,2.007,1.979,1.979,0,0,1-2.007,2.007" transform="translate(-217.753 -112.586)" fill="#583038"/>
      <path id="XMLID_118_" d="M534.121,186.815H473.607a2.007,2.007,0,1,1,0-4.015h60.514a2.025,2.025,0,0,1,2.007,2.007,2,2,0,0,1-2.007,2.007" transform="translate(-298.337 -113.665)" fill="#583038"/>
      <path id="XMLID_117_" d="M351.3,218.88l7.774-11.241v-.073H352.03V204.5h11.825v2.117l-7.592,11.1v.109h7.7v3.066H351.3Z" transform="translate(-221.944 -127.445)" fill="#646766"/>
      <path id="XMLID_116_" d="M397.568,224.866c0,1.569.036,2.81.109,3.832H394.5l-.183-1.679h-.073a4.218,4.218,0,0,1-3.686,1.934c-2.409,0-4.161-1.5-4.161-5.183V216.8h3.686v6.387c0,1.715.547,2.774,1.825,2.774a1.921,1.921,0,0,0,1.825-1.277,1.867,1.867,0,0,0,.109-.8V216.8h3.723Z" transform="translate(-244.233 -135.256)" fill="#646766"/>
      <path id="XMLID_115_" d="M420.01,220.151c0-1.5-.036-2.737-.109-3.8H423l.182,1.606h.073a4.047,4.047,0,0,1,3.577-1.861,3.346,3.346,0,0,1,3.248,2.007h.036a5.1,5.1,0,0,1,1.533-1.423,4.184,4.184,0,0,1,2.263-.584c2.263,0,3.978,1.606,3.978,5.146v7.008h-3.577v-6.46c0-1.715-.547-2.737-1.752-2.737a1.772,1.772,0,0,0-1.679,1.277,2.722,2.722,0,0,0-.146.949v6.971h-3.577v-6.679c0-1.5-.547-2.518-1.679-2.518a1.862,1.862,0,0,0-1.715,1.35,2.652,2.652,0,0,0-.146.912v6.935h-3.577v-8.1Z" transform="translate(-265.506 -134.811)" fill="#646766"/>
      <path id="XMLID_238_" d="M472.109,220.27c0-1.569-.036-2.883-.109-3.978h3.175l.182,1.642h.037A4.518,4.518,0,0,1,479.336,216c2.591,0,4.891,2.263,4.891,6.059,0,4.343-2.737,6.387-5.365,6.387a3.656,3.656,0,0,1-3.066-1.35h-.036v5.913h-3.686V220.27Zm3.65,2.81a4.559,4.559,0,0,0,.073.766,2.259,2.259,0,0,0,2.153,1.752c1.606,0,2.555-1.35,2.555-3.358,0-1.9-.839-3.321-2.482-3.321a2.286,2.286,0,0,0-2.19,1.861,3.616,3.616,0,0,0-.073.657v1.642Z" transform="translate(-298.591 -134.748)" fill="#646766"/>
      <path id="XMLID_235_" d="M514.719,228.19l-.219-1.2h-.073a4.227,4.227,0,0,1-3.394,1.46,3.637,3.637,0,0,1-3.832-3.65c0-3.1,2.737-4.562,6.935-4.562v-.182c0-.62-.328-1.533-2.153-1.533a6.308,6.308,0,0,0-3.248.912l-.693-2.372a9.615,9.615,0,0,1,4.6-1.058c3.942,0,5.183,2.336,5.183,5.146v4.124a15.642,15.642,0,0,0,.182,2.883h-3.285Zm-.438-5.621c-1.934-.036-3.431.438-3.431,1.861a1.332,1.332,0,0,0,1.46,1.423,2,2,0,0,0,1.9-1.35,3.209,3.209,0,0,0,.073-.62Z" transform="translate(-320.943 -134.748)" fill="#646766"/>
      <path id="XMLID_110_" d="M539.31,220.151c0-1.5-.036-2.737-.109-3.8h3.175l.182,1.642h.073a4.259,4.259,0,0,1,3.65-1.9c2.409,0,4.234,1.606,4.234,5.11v7.044h-3.686v-6.606c0-1.533-.547-2.591-1.861-2.591a1.955,1.955,0,0,0-1.861,1.387,2.281,2.281,0,0,0-.146.912v6.862h-3.686v-8.066Z" transform="translate(-341.264 -134.811)" fill="#646766"/>
      <path id="XMLID_231_" d="M585.971,216.482c-.036.766-.109,1.752-.109,3.54v6.643c0,2.3-.474,4.161-1.788,5.365a7.208,7.208,0,0,1-4.818,1.46,9.691,9.691,0,0,1-4.27-.912l.73-2.81a7.244,7.244,0,0,0,3.431.912,2.822,2.822,0,0,0,3.066-3.139v-.766h-.036A3.778,3.778,0,0,1,579,228.344c-2.92,0-5-2.372-5-5.8,0-3.832,2.482-6.241,5.365-6.241a3.584,3.584,0,0,1,3.248,1.679h.036l.11-1.423h3.212Zm-3.759,4.818a4.042,4.042,0,0,0-.073-.693,2.021,2.021,0,0,0-1.971-1.642c-1.314,0-2.409,1.2-2.409,3.394,0,1.788.876,3.175,2.409,3.175a1.994,1.994,0,0,0,1.934-1.5,2.818,2.818,0,0,0,.11-.985Z" transform="translate(-363.363 -134.938)" fill="#646766"/>
      <path id="XMLID_228_" d="M620.236,222.1A5.955,5.955,0,0,1,614,228.446a5.794,5.794,0,0,1-6.1-6.132A5.939,5.939,0,0,1,614.214,216a5.767,5.767,0,0,1,6.022,6.1m-8.541.11c0,2.044.839,3.577,2.409,3.577,1.423,0,2.336-1.423,2.336-3.577,0-1.788-.694-3.577-2.336-3.577-1.752,0-2.409,1.825-2.409,3.577" transform="translate(-384.89 -134.748)" fill="#646766"/>
      <path id="XMLID_225_" d="M441.044,162.1v-.547l-.657-.037c-.11-1.5-.876-1.423-1.606-1.423.292-1.277-.584-1.241-.949-1.2a3.569,3.569,0,0,0-3.394-1.971l.036-.985.292-.036a7.592,7.592,0,0,0,.219-1.095c.036-.4-.4-1.277-.365-1.788a5.955,5.955,0,0,0,.182-1.277c-.036-.657-.547-.547-.547-.547l-.036,5.694a3.552,3.552,0,0,0-3.358,1.825c-.4-.036-1.095.036-.949,1.131,0,0-1.606-.292-1.569,1.314l-.766-.036v.584l-.876-.037.036,11.679a3.31,3.31,0,0,1,4.562.474,3.737,3.737,0,0,1,5.621.109,4.011,4.011,0,0,1,5.073-.62l.036-11.387Zm-6.679,1.314a1.971,1.971,0,0,1,0-3.942,1.932,1.932,0,0,1,1.934,1.971,1.91,1.91,0,0,1-1.934,1.971" transform="translate(-269.824 -93.587)" fill="#7c2946"/>
      <path id="XMLID_222_" d="M385.337,59.6a68.526,68.526,0,0,1,11.022-.8c6.862,0,11.278,1.314,14.745,4.088,3.759,2.956,6.1,7.628,6.1,14.38,0,7.3-2.518,12.336-5.986,15.439-3.8,3.321-9.563,4.927-16.643,4.927a72.612,72.612,0,0,1-9.271-.547V59.6Zm8.176,31.133a13.3,13.3,0,0,0,2.847.182c7.373.073,12.19-4.234,12.19-13.358.036-7.92-4.343-12.117-11.351-12.117a17.676,17.676,0,0,0-3.686.328Z" transform="translate(-243.535 -34.923)" fill="#b9d4d9"/>
      <rect id="XMLID_101_" width="8.176" height="38.177" transform="translate(179.03 24.169)" fill="#b4a8ca"/>
      <path id="XMLID_100_" d="M529.1,59.6h22.045v7.081H537.276V75.4h12.957v7.008H537.276V97.741H529.1Z" transform="translate(-334.85 -35.431)" fill="#b777a1"/>
      <path id="XMLID_99_" d="M154.25,145.04a19.285,19.285,0,0,0-1.168,3.65,28.431,28.431,0,0,0-.036,10.11c.255,1.533.511,2.774.8,3.869,3.394,12.263,2.482,3.978,4.489-4.051,2.555-10.292,9.2-10.73,15.037-18.1a31.951,31.951,0,0,0,3.978-6.387,33.621,33.621,0,0,0,3.066-10.73,24.845,24.845,0,0,0,.182-2.847,33.782,33.782,0,0,0-.985-8.942c-1.606-4.307-2.664-6.862-2.956-4.635-.547,4.015-.547,6.241-1.934,10.438-1.533,4.635-4.015,8.869-8.76,13.979-4.27,4.526-9.161,7.7-11.716,13.65" transform="translate(-95.774 -64.992)" fill="#c28e26" fill-rule="evenodd"/>
      <path id="XMLID_98_" d="M190.249,181.731c-8.1,2.956-13.395,8.1-16.278,15.293-1.533,3.832-1.35,5,.949,1.131a20.288,20.288,0,0,1,8.1-7.884,26.633,26.633,0,0,1,4.964-2.044,59.857,59.857,0,0,1,10.256-1.825,28.389,28.389,0,0,0,17.008-8.285c2.956-2.81,5.4-6.132,6.022-9.161.4-2.08.146-2.774-1.715-.547-2.482,2.956-3.1,3.686-6.752,5.548-7.154,3.613-14.709,4.124-22.556,7.774" transform="translate(-108.705 -103.654)" fill="#c28e26" fill-rule="evenodd"/>
      <path id="XMLID_97_" d="M120.295,110.222c-.328-1.314-1.095-1.277-1.825,1.35a22.5,22.5,0,0,0-.584,2.847,44.737,44.737,0,0,0-.146,9.854,43.48,43.48,0,0,0,4.818,15.329,35.426,35.426,0,0,0,3.759,5.438c2.774,3.139,4.015,1.533,5.037-1.569a13.831,13.831,0,0,0,.62-2.956,10.841,10.841,0,0,0-1.5-6.278c-2.08-3.686-5.876-7.154-7.738-11.241a25.244,25.244,0,0,1-1.569-4.854,27.947,27.947,0,0,1-.62-5.657,19.419,19.419,0,0,0-.255-2.263" transform="translate(-73.498 -67.037)" fill="#c28e26" fill-rule="evenodd"/>
      <path id="XMLID_96_" d="M160.424,118.9c3.54,0,6.424,3.285,6.424,7.3s-2.883,7.3-6.424,7.3S154,130.214,154,126.2c0-4.051,2.883-7.3,6.424-7.3" transform="translate(-96.655 -73.088)" fill="#c28e26" fill-rule="evenodd"/>
      <path id="XMLID_95_" d="M77.181,255.517a27.852,27.852,0,0,1,8.942,4.854,21.043,21.043,0,0,1,4.343,4.927c.365.547,1.5,2.445,1.788,2.774.985,1.022,1.642.109,2.007-.657a6.684,6.684,0,0,1,.365-.73l.037-.146.073-.146.073-.146.073-.146c.146-.365.4-.766.584-1.168a16.155,16.155,0,0,1,4.635-5.84,23.327,23.327,0,0,1,7.7-3.759c3.54-1.022,4.891-1.095,8.431-2.993,1.131-.584,2.226-1.2,3.431-1.788l.657-.329a8.04,8.04,0,0,0,1.168-.766,5.751,5.751,0,0,0,.547-.438,17.6,17.6,0,0,0,1.569-1.314,5.818,5.818,0,0,1,.474-.474l.985-.912c2.409-2.409,4.672-8.8,6.022-12.227l1.2-2.628c.109-.219.219-.365.328-.62.109-.219.182-.4.292-.657a5.284,5.284,0,0,0,.62-3.139c-.109-.547-.255-1.022-.876-1.058a2.575,2.575,0,0,0-1.569.365c-1.35.693-2.482,3.029-3.285,4.416-.474.8-.912,1.533-1.423,2.372s-.985,1.533-1.5,2.336l-3.978,5.621c-.292.365-.547.693-.876,1.058a4.841,4.841,0,0,1-.949.985,15.929,15.929,0,0,1-2.226,1.606,15.626,15.626,0,0,1-5.365,2.3,9.84,9.84,0,0,1-3.431-.036c-3.248-.584-3.175-2.737.839-4.088,1.9-.62,3.942-1.168,5.8-1.825a10.966,10.966,0,0,0,2.518-1.314,4.575,4.575,0,0,0,.912-.985,1.929,1.929,0,0,0,.146-1.5,7.4,7.4,0,0,0-3.8-.547c-3.321.438-4.854,1.131-7.263,1.533-.657.109-1.022.365-1.679.511a4.383,4.383,0,0,0-1.679.584c-.547.219-1.022.438-1.569.62-.292.109-.474.219-.766.328a30.478,30.478,0,0,0-2.81,1.569,16.8,16.8,0,0,0-3.212,2.336l-1.35,1.533c-1.569,2.007-1.35,1.9-2.883-.109a11.651,11.651,0,0,0-1.679-1.606,3.983,3.983,0,0,0-.62-.474,34.1,34.1,0,0,0-4.124-2.591,28.887,28.887,0,0,0-3.066-1.35,5.437,5.437,0,0,0-1.642-.547,14.6,14.6,0,0,0-1.752-.511c-1.9-.328-3.978-1.058-6.314-1.423a9.6,9.6,0,0,0-3.066-.036l-1.277.365c-.474.219-.474.584-.365,1.058a1.562,1.562,0,0,0,.292.657c1.058,1.715,4.526,2.664,6.278,3.139,1.569.438,6.1,1.46,6.022,3.358-.073,1.387-2.7,1.788-3.905,1.788a11.727,11.727,0,0,1-5.913-1.679,14.371,14.371,0,0,1-5.183-4.27c-.73-.876-1.314-1.825-1.971-2.737l-4.161-6.241c-.839-1.533-2.409-4.745-3.759-5.657-.62-.438-2.226-1.058-2.628-.037a4.3,4.3,0,0,0,.255,3.175,13.6,13.6,0,0,0,.584,1.277c.219.474.438.8.657,1.241a10.353,10.353,0,0,1,.584,1.277l2.737,6.789c.182.438.4.876.584,1.277a17.846,17.846,0,0,0,.949,1.861,13.626,13.626,0,0,0,1.46,2.3,6.355,6.355,0,0,0,.438.511L62.144,248a25.455,25.455,0,0,0,6.2,4.2c.438.219.766.365,1.241.584l2.628,1.2c1.752.693,3.248.949,4.964,1.533" transform="translate(-32.026 -141.088)" fill="#c28e26" fill-rule="evenodd"/>
      <path id="XMLID_94_" d="M68,223.99a11.078,11.078,0,0,0,.474,3.8c.073.219.146.4.219.62.109.219.146.328.255.547a43.681,43.681,0,0,0,3.358,5.073c0-.4.073-.474.073-.876a8.231,8.231,0,0,1,0-.949c.219-2.664-.073-7.373-1.642-9.271a2.847,2.847,0,0,0-1.971-1.131c-.182,0-.474.693-.547.912A4.226,4.226,0,0,0,68,223.99" transform="translate(-42.043 -138.431)" fill="#c28e26" fill-rule="evenodd"/>
      <path id="XMLID_93_" d="M247.3,228.691l.073,4.6c.292-.109.584-.693.766-.949.255-.365.438-.693.693-1.058a22.175,22.175,0,0,0,2.482-4.526,10.254,10.254,0,0,0,.255-4.6c-.073-.292-.365-1.058-.62-1.058-2.883-.036-3.65,5.292-3.65,7.592" transform="translate(-155.902 -137.986)" fill="#c28e26" fill-rule="evenodd"/>
      <path id="XMLID_92_" d="M82.955,245.89a2,2,0,0,1,.292-.547c1.2-1.971,2.117-8.249-.766-8.942a6.743,6.743,0,0,0-.62,2.263,47.338,47.338,0,0,0-.146,5.511,4.758,4.758,0,0,0,.8,1.387c.146.219.146.292.438.328" transform="translate(-50.721 -147.702)" fill="#c28e26" fill-rule="evenodd"/>
      <path id="XMLID_91_" d="M238.1,239.542c0,1.423.693,4.927,1.569,5.548a3.793,3.793,0,0,0,1.168-1.861,46.928,46.928,0,0,0-.255-6.059,6.094,6.094,0,0,0-.547-1.569c-.657.073-1.241.876-1.46,1.423a7.509,7.509,0,0,0-.474,2.518" transform="translate(-150.06 -147.194)" fill="#c28e26" fill-rule="evenodd"/>
      <path id="XMLID_90_" d="M241.972,159.3a5.17,5.17,0,1,1-4.672,5.146,4.916,4.916,0,0,1,4.672-5.146" transform="translate(-149.552 -98.742)" fill="#c28e26" fill-rule="evenodd"/>
      <path id="XMLID_89_" d="M92.718,160.2a5.316,5.316,0,1,1-4.818,5.292,5.071,5.071,0,0,1,4.818-5.292" transform="translate(-54.68 -99.314)" fill="#c28e26" fill-rule="evenodd"/>
      <path id="XMLID_88_" d="M72.535,176.046c6.132,3.5,9.891,8.979,11.533,16.351.876,3.942.657,5.073-.839,1.058a18.2,18.2,0,0,0-9.453-10.767,39.205,39.205,0,0,0-7.92-2.518c-5.438-1.423-9.125-4.234-12.738-9.417-2.08-2.993-3.759-6.46-3.978-9.563-.146-2.08.146-2.774,1.387-.438,1.715,3.139,2.153,3.869,4.854,5.986,5.365,4.124,11.278,5.183,17.154,9.307" transform="translate(-30.045 -98.735)" fill="#c28e26" fill-rule="evenodd"/>
      <path id="XMLID_87_" d="M173.021,159.228c2.591-2.664,5.146-4.234,7.227-6.1a32.074,32.074,0,0,0,4.161-4.635,28.113,28.113,0,0,0,3.175-5.329,33.624,33.624,0,0,0,1.752-4.489,32.287,32.287,0,0,0,1.533-9.964c-.219-7.263-2.007-12.993-5.913-2.336-3.832,10.511-4.964,11.752-8.431,16.9-.985,1.46-2.591,3.212-4.124,5.657-3.066,4.854-4.051,9.855-4.562,15.512-.292,3.175.036,4.708,1.934-.4a17.206,17.206,0,0,1,3.248-4.818" transform="translate(-105.383 -74.107)" fill="#89154b" fill-rule="evenodd"/>
      <path id="XMLID_86_" d="M201.17,190.027a26.219,26.219,0,0,1,5.621-2.372,27.117,27.117,0,0,1,3.723-.876c1.642-.292,3.066-.474,4.307-.62,1.934-.255,3.723-.511,5.256-.839a27.568,27.568,0,0,0,4.27-1.387,24.808,24.808,0,0,0,6.314-3.613c.949-.73,2.044-1.679,3.139-2.7a24.479,24.479,0,0,0,2.956-3.212,16,16,0,0,0,3.066-5.949c.474-2.08.146-2.774-1.715-.547a23.4,23.4,0,0,1-2.993,3.248c-4.088,3.358-8.869,4.781-13.8,7.884-2.19,1.387-20.8,9.49-20.147,10.986" transform="translate(-126.598 -103.336)" fill="#89154b" fill-rule="evenodd"/>
      <path id="XMLID_85_" d="M124.666,109.741c-.328-1.287-1.241-1.358-1.314,1.287-.036,1.894-.036,3.4,0,4.754.036,1.323.146,2.431.255,3.574a56.148,56.148,0,0,0,.985,7.113,21.658,21.658,0,0,0,2.883,6.684,17.849,17.849,0,0,0,2.664,3.253c4.161,3.9,6.789.751,4.6-3.074a31.6,31.6,0,0,0-2.555-3.646c-1.861-2.359-3.942-4.718-5.183-7.4a24.36,24.36,0,0,1-1.569-4.754,26.826,26.826,0,0,1-.62-5.54,10.618,10.618,0,0,0-.146-2.252" transform="translate(-77.176 -66.721)" fill="#89154b" fill-rule="evenodd"/>
      <path id="XMLID_84_" d="M79.543,184.853a18.068,18.068,0,0,0-4.234-2.774,16.648,16.648,0,0,0-2.847-1.095c-1.277-.4-2.372-.657-3.358-.912a39.621,39.621,0,0,1-4.088-1.2,18.392,18.392,0,0,1-3.248-1.679,19.19,19.19,0,0,1-4.672-4.015c-.693-.8-1.5-1.825-2.263-2.92a29.109,29.109,0,0,1-2.08-3.394,18,18,0,0,1-1.934-6.168c-.182-2.08.146-2.774,1.387-.438a23.753,23.753,0,0,0,2.08,3.431c2.92,3.613,6.606,5.365,10.219,8.8,1.715,1.569,15.694,10.949,15.037,12.373" transform="translate(-31.103 -98.418)" fill="#89154b" fill-rule="evenodd"/>
      <path id="XMLID_83_" d="M145.66,22.556c-.584.255-.474.219-.474,1.35a3.932,3.932,0,0,0,.365,1.861c.073.073.036,0,.109.073.292.255.292.511.4.839.109.292,0,.036.182.219l.11.109c.511.62.182.182.62.584a3.8,3.8,0,0,0,.693.693c.109.073.146.182.255.219l1.095.474a.486.486,0,0,1,.182.109c.62.4.365.438,1.387.438a9.775,9.775,0,0,0,1.825-.073c.547-.109.474-.657.474-1.35a3.59,3.59,0,0,0-.292-1.533c-.146-.219,0,.073-.146-.292-.766-1.861-.73-1.022-1.569-2.117-.365-.474-.584-.255-.8-.62-.547-.8.073-.255-1.131-.73a2.769,2.769,0,0,0-.657-.219,1.874,1.874,0,0,0-.839-.109h-1.642c-.182.073-.073.073-.146.073" transform="translate(-91.053 -11.855)" fill="#a6aa5c" fill-rule="evenodd"/>
      <path id="XMLID_82_" d="M109.314,38.266c.146-.255-.182.328.073-.146a.036.036,0,0,1,.036-.036l.657-1.277c.365-.949,0-1.46.073-2.117.036-.328.146-.4-.036-.766-.365-.8-.474-.62-.547-1.314-.109-.657-.4-.766-.584-1.168-.182-.365-.146-.219-.438-.474-.219-.219-.255-.438-.4-.547s-.438-.146-.62-.255c-.109-.036-.036-.036-.109-.073l-1.423-.73c-.8-.255-1.168.109-1.314.949a1.906,1.906,0,0,1-.255.73,4.529,4.529,0,0,0-.073,2.518l.365.73c.328.73-.182.182.547,1.314l.547.876a2.877,2.877,0,0,0,.511.438c.146.146.146.474.693.839.4.255.657.073,1.095.365.547.4.4.182,1.2.146" transform="translate(-65.035 -16.177)" fill="#a97192" fill-rule="evenodd"/>
      <path id="XMLID_81_" d="M164.592,44.736l-.8.511c-.255.255-.109.766-.365,1.058s-.292.036-.328.62a14.91,14.91,0,0,0,.182,3.1.828.828,0,0,1,.036.146c.255.511.474,1.314.62,1.5l.584.8c.109.109.146.073.255.219.328.365-.146.109.8.766a.078.078,0,0,1,.073.073c.365.292.839.73,1.35.511,1.131-.438.547-.8,1.2-1.533.219-.219.182-.292.219-.693.328-4.124-.438-3.175-.73-4.708-.109-.62-.511-.62-.8-1.058-.109-.146,0-.073-.146-.255-.109-.146-.146-.109-.255-.219-.547-.4-.328-.036-.73-.474-.146-.146,0-.036-.146-.109a3.091,3.091,0,0,0-.876-.292c-.182,0-.109.036-.146.036" transform="translate(-102.43 -25.969)" fill="#b79345" fill-rule="evenodd"/>
      <path id="XMLID_80_" d="M82.272,58.9a2.2,2.2,0,0,0-.511.4c-.474.4-.182.511-.62,1.168a5.912,5.912,0,0,0-.328,4.051,7.826,7.826,0,0,0,.584,1.971c.474.73.146.219.62.73l1.022,1.022.146.109a1.32,1.32,0,0,0,.839,0c.438-.146.693-.73.839-.949a.968.968,0,0,0,.182-.219l.511-.949a11.213,11.213,0,0,0,.073-3.5,5.884,5.884,0,0,0-.438-1.423,5.77,5.77,0,0,0-1.131-1.606c-.547-.365-.292-.182-.62-.657a1.057,1.057,0,0,0-1.058-.219c-.146.036,0,.036-.109.073" transform="translate(-50.038 -34.916)" fill="#b79345" fill-rule="evenodd"/>
      <path id="XMLID_79_" d="M249.273,62.5a4.267,4.267,0,0,0-.255-1.825c-.073-.219-.036,0-.109-.328-.073-.547-.036-.365-.547-.876-.474-.438-.693-.766-1.095-.766a.773.773,0,0,0-.73.365c-.255.255-.62.036-1.131,1.022-.4.766-.62.839-.766,1.569l-.547,2.226c-.036.4.109.328.109.8.036.912-.109.876.292,1.533.474.73.073.839,1.022,1.752.365.365.912.547,1.241.219l1.277-1.35.036-.036c.474-.547.62-.4.8-1.277.219-1.277.839-1.058.547-2.117a4.3,4.3,0,0,1-.146-.912" transform="translate(-153.86 -34.859)" fill="#608fa7" fill-rule="evenodd"/>
      <path id="XMLID_78_" d="M243.834,38.646c0-1.314-.146-.912-.365-1.642-.182-.693.182-.146-.255-.839a7.382,7.382,0,0,0-1.058-1.569c-.73-.912-1.679.584-2.044.949a11.356,11.356,0,0,0-.839,1.022,5.368,5.368,0,0,0-.292,1.095,1.525,1.525,0,0,1-.146.365,4.793,4.793,0,0,0,.073,3.029c.255.4.109.876.73,1.9l.255.511c.146.328.219.474.839.511.657.037.511-.182.985-.4a1.728,1.728,0,0,0,1.058-1.022l.328-.438a4.478,4.478,0,0,0,.547-1.788c.036-.292.036-.547.073-.839a3.111,3.111,0,0,0,.109-.839" transform="translate(-150.392 -19.368)" fill="#a97192" fill-rule="evenodd"/>
      <path id="XMLID_77_" d="M174.854,30.778c.839-.547.693-.255,1.277-.547a1.981,1.981,0,0,0,.547-.328l.109-.109a2.949,2.949,0,0,1,.584-.584l.438-.292.036-.036.036-.036a.765.765,0,0,0,.146-.4c.073-.219.219-.328.511-.73l.073-.073a.794.794,0,0,0,.182-.292,1.993,1.993,0,0,0,.219-.657,6.85,6.85,0,0,0,.219-3.285c-.109-.474-.036-1.387-.474-1.679l-.146-.073c-.365-.146-.4-.073-.766,0-.219.073-.839.146-1.058.365a7.483,7.483,0,0,0-1.5,1.241c-.219.255-.073.255-.365.584a2.512,2.512,0,0,0-.4.474c-.073.109-.109.182-.182.292-.037.073-.037.109-.073.146-.146.365-.146.073-.328.547-.219.547-.255.255-.255.985a13.716,13.716,0,0,0,.219,3.5,6.159,6.159,0,0,0,.949.985" transform="translate(-109.151 -11.281)" fill="#a97192" fill-rule="evenodd"/>
      <path id="XMLID_76_" d="M203.5,20.036l.109,1.423a4.786,4.786,0,0,0,.547,1.387c.766.839.182.985.657,1.35.255.219.438.328.693.547.511.511.438,1.022,2.08,1.168.292.036.438.036.584-.073.255-.182.036.036.146-.182l.255-.839a1.316,1.316,0,0,1,.292-.547l.036-.036.11-.109c.255-.328-.037-.292.146-.949a2.969,2.969,0,0,0,0-1.387c-.073-.182.036.036-.073-.146l-.365-.8a4.235,4.235,0,0,0-.511-1.35l-.4-.584c-.146-.182-.109-.036-.328-.365l-.292-.4-.219-.292c-.255-.4-.146-.036-.8-.584-.109-.109-.146-.109-.255-.219-.328-.255-.876-.547-1.314-.255-.255.146-.109.036-.219.255s-.036.219-.255.365c-.328.292-.292.255-.365.876-.109,1.022-.255.438-.255,1.752" transform="translate(-128.088 -8.167)" fill="#9c6b84" fill-rule="evenodd"/>
      <path id="XMLID_75_" d="M180.125,96.376a7.367,7.367,0,0,0-.036-1.277l-.073-.182a.036.036,0,0,0-.036-.036L179.8,94c-.109-.839-.036-.766-.511-1.277-.073-.073,0,.036-.109-.109l-.584-.876s-.036-.073-.073-.073l-1.5-1.2c-.365-.146-.255-.182-.547-.365a3.13,3.13,0,0,0-1.277-.511c-1.095-.219-1.606-.912-1.971,1.095a.924.924,0,0,0,0,.547l.073.219c.146.474,0,1.5.474,2.226.329.547.11.73.657,1.131.328.255.073.182.365.547a3.872,3.872,0,0,0,1.2.985c.584.292.693.62,1.46.8a7.86,7.86,0,0,0,1.642.146c.292-.036.146.036.328-.109l.073-.073c.365-.219.62-.255.62-.73" transform="translate(-108.837 -54.287)" fill="#608fa7" fill-rule="evenodd"/>
      <path id="XMLID_74_" d="M176.4,77.175c-.109.438,0-.219-.109.182l.511.328c1.095.912.255.328,1.168.62a2.591,2.591,0,0,1,.511.365c.657.474,3.066.292,3.175.182.255-.219.109-1.533.109-2.08,0-.474-.328-.8-.547-1.2-.109-.182-.073-.255-.182-.438-.219-.474-.365-.146-.547-.62-.073-.182-.036-.292-.146-.438a4.989,4.989,0,0,0-1.058-.73,5.749,5.749,0,0,0-.693-.547c-.073-.036-.109-.073-.182-.109a2.943,2.943,0,0,0-1.095-.474,5.351,5.351,0,0,0-2.664.146c-.657.328-.255,1.2-.255,1.971,0,.4.255.657.547,1.241l.182.255c.292.4.62,1.168,1.277,1.35" transform="translate(-109.525 -43.371)" fill="#a97192" fill-rule="evenodd"/>
      <path id="XMLID_73_" d="M156.883,94.427a1.126,1.126,0,0,0-.328.036c-.11.036-.219.036-.292.073a6.048,6.048,0,0,0-1.131.292c-.182.146.073.073-.474.255a2.737,2.737,0,0,0-1.022.657l-.182.255c-.292.4-.8.328-.985,1.2-.073.328-.219,1.46.292,1.642a10.9,10.9,0,0,0,2.007.219l1.241-.182c.4-.073.328-.219.985-.474l.73-.438,1.241-1.569a1.62,1.62,0,0,0,.182-1.46c-.219-.438-.693-.219-1.46-.474-.109-.036.036,0-.146-.036a1.255,1.255,0,0,0-.657,0" transform="translate(-95.633 -57.52)" fill="#a97192" fill-rule="evenodd"/>
      <path id="XMLID_72_" d="M201.579,108.087a1.172,1.172,0,0,0,.073.62c.109.292.219.219.328.511l.036.073c.182.438.036.255.365.584.073.073.073.036.146.146.255.4.365.365.547.547.073.073.036.073.146.146a.486.486,0,0,1,.182.109,1.26,1.26,0,0,0,1.241.328l.328-.109c.219-.146.146-.219.146-.474,0-.219.073-.255.073-.474a3.943,3.943,0,0,0-.219-1.46c-.037-.073-.037-.036-.11-.146l-.255-.584c-.328-.693-.292-.4-.584-.73-.146-.146,0-.146-.438-.4l-.657-.438c-.219-.146-.036-.146-.328-.182-1.168-.219-.949,0-1.022.511-.036.255-.109.219-.109.4-.073.511.109.62.109,1.022" transform="translate(-126.788 -64.939)" fill="#c1c851" fill-rule="evenodd"/>
      <path id="XMLID_71_" d="M225.98,54.373c-.219.109-.474.109-.693.219-.292.109-.182.182-.511.365a3.072,3.072,0,0,0-.985.8,11.821,11.821,0,0,0-.876.912c-.693.876-.255.438-.62,1.241a2.133,2.133,0,0,0-.438,1.35c-.036,1.387-.292,2.263.328,3.212.109.182.255.547.438.657.109.073-.182.073.182.036.036,0,1.533-.4,1.752-.511.4-.255.4-.511.876-.912.474-.365.62-.255.839-.912.511-1.423.547-.292.949-2.737a3.151,3.151,0,0,0,.109-1.569,5.537,5.537,0,0,0-.109-.766c-.073-.255-.146-.438-.219-.693-.146-.4-.328-.766-.8-.766-.255.037-.146.037-.219.073" transform="translate(-139.692 -32.065)" fill="#c1c851" fill-rule="evenodd"/>
      <path id="XMLID_70_" d="M89.532,34.487a1.467,1.467,0,0,0-.584.292A6.483,6.483,0,0,0,87.78,36.9a3.559,3.559,0,0,0-.328,2.445c.073.255,0,.584.073.8.036.109.073.109.146.292.036.109.036.292.073.4a8.041,8.041,0,0,0,.474,1.314c.073.073.073.073.073.109l.109.109c.109.109.109.182.219.292.146.146.328.182.511.4.146.182.255.328.4.511a1.337,1.337,0,0,0,1.423.036c.328-.219.182-.62.693-1.095.109-.109.182.036.328-.584a7.4,7.4,0,0,0,.328-3.175c-.146-.474-.182-.985-.328-1.46a2.442,2.442,0,0,0-.255-.62l-.985-1.423-.8-.766c-.328-.146-.4,0-.4,0" transform="translate(-54.341 -19.443)" fill="#c1c851" fill-rule="evenodd"/>
      <path id="XMLID_69_" d="M256.8,38.447a4.9,4.9,0,0,0,.292,1.35,3.806,3.806,0,0,1,.182.438,3.921,3.921,0,0,0,2.591-.584,1.83,1.83,0,0,0,.62-.474,3.2,3.2,0,0,1,.766-.657c.657-.4.219-.292.584-.8l.949-1.606a5.687,5.687,0,0,0,.292-2.628,2.05,2.05,0,0,0-.109-.73c-.109-.292-.146-.292-.438-.4a2.187,2.187,0,0,0-1.46.109c-.657.182,0,.182-1.095.547-.547.182-.8.766-1.387,1.168a6.433,6.433,0,0,0-.985,1.569,3.847,3.847,0,0,0-.511,1.241,6.473,6.473,0,0,0-.292,1.46" transform="translate(-161.935 -18.074)" fill="#c1c851" fill-rule="evenodd"/>
      <path id="XMLID_68_" d="M167.975,3.876c-.438.109-.073-.036-.547.292l-.73.584c-.474.438-.365.146-.766.73-.839,1.277-.4,1.022-.839,2.007a4.314,4.314,0,0,0-.292,1.934,8.29,8.29,0,0,0,.109,1.679,4.055,4.055,0,0,0,.255.584,4.072,4.072,0,0,0,.474.876c.219.182-.036.073.328.146a1.472,1.472,0,0,0,1.277-.328c.109-.073.109-.109.219-.182.985-.693.219-.146.657-.657.292-.328.474,0,1.131-1.5A5.3,5.3,0,0,0,169.91,7.2,5.121,5.121,0,0,0,169,4.168c-.255-.438-.62-.4-1.022-.292" transform="translate(-103.513)" fill="#608fa7" fill-rule="evenodd"/>
      <path id="XMLID_67_" d="M155.552,72.55l-.912.8c-.511.474-.365.146-.912.876l-.876.985c-.328.292-.328.584-.438,1.2a6.68,6.68,0,0,0-.474,2.664.958.958,0,0,0,.511.73,2.115,2.115,0,0,0,1.5-.036,3.17,3.17,0,0,1,.839-.036c.109-.146.182-.365.328-.474a11.625,11.625,0,0,0,1.131-.657,2.591,2.591,0,0,0,.365-.511,2.292,2.292,0,0,1,.438-.4c.255-.219.109-.4.8-1.277l.037-.036.036-.036c.146-.255.036-.547.255-1.058a4.222,4.222,0,0,0,.255-2.445c-.036-.365-.11-.4-.438-.438a3.661,3.661,0,0,0-1.606.109c-.292,0-.474.036-.839.036" transform="translate(-95.324 -43.527)" fill="#b3c260" fill-rule="evenodd"/>
      <path id="XMLID_66_" d="M121.588,21.437a2.982,2.982,0,0,0,.255,1.752c.255.438.037.766.766,1.752l.62.62c.036.036.182.146.219.182.328.255.255.255.766.255.912,0,.62-.474,1.058-.876l.438-.511a1.3,1.3,0,0,0,.292-.73c.073-1.5.985-1.569.109-4.416-.219-.73-.328-.438-.474-.839-.219-.62.146-.584-.474-.876-.474-.219-.292-.511-.511-.766a1.191,1.191,0,0,0-1.058-.109c-.219.109-.146.182-.292.328-.219.292-.693.146-1.241,2.08l-.219.474a.036.036,0,0,1-.036.036,3.465,3.465,0,0,0-.219,1.642" transform="translate(-76.068 -8.254)" fill="#ddd150" fill-rule="evenodd"/>
      <path id="XMLID_65_" d="M269.8,76.651a4.643,4.643,0,0,0,.255,1.679c.146.584.62.584,1.2.547a2.348,2.348,0,0,0,1.314-.438c2.08-1.095,1.168-.876,1.934-1.971l.584-.73c.328-.657.365-.328.547-1.168.036-.255.073-.547.109-.8l.146-.73a5.038,5.038,0,0,0-.11-.73c-.073-.182-.073-.073-.146-.255-.146-.438-.328-1.095-1.058-1.168a1.3,1.3,0,0,0-.839.182l-.037.037-.036.036c-.547.365-.474.036-1.423.912-.876.766-.255.255-.8.912l-.657.876c-.036.109-.036.073-.073.182a3.705,3.705,0,0,0-.547,1.168l-.073.365a1.64,1.64,0,0,0-.292,1.095" transform="translate(-170.19 -42.59)" fill="#6390b7" fill-rule="evenodd"/>
      <path id="XMLID_64_" d="M193.5,37.866a4.927,4.927,0,0,0,.219,1.679l.219.584a4.864,4.864,0,0,1,.182.693c.109.219.219.292.328.511a2.169,2.169,0,0,1,.146.292,7.809,7.809,0,0,0,1.168,1.241,1.056,1.056,0,0,0,1.533-.438l.657-1.095a2.59,2.59,0,0,0,.219-.693,8.453,8.453,0,0,0,.073-3.175l-.219-1.022c-.146-.511-.255-.146-.474-.839-.146-.474-.11-.255-.511-.693L197,34.873l-.693-.693a1.467,1.467,0,0,0-.584-.292c-.766-.073-.912.438-1.058.693-.474.912-.511.4-.693,1.022a8.963,8.963,0,0,0-.474,2.263" transform="translate(-121.738 -19.099)" fill="#b3c260" fill-rule="evenodd"/>
      <path id="XMLID_63_" d="M65.187,58.966c0-1.35.365-1.241-.036-1.825a1.281,1.281,0,0,1-.182-.292,2.594,2.594,0,0,1-.146-.73c-.146-.474-.4-.146-.949-1.168-.547-.985-.365-.219-.949-.912a4.932,4.932,0,0,0-1.2-.949c-.438-.182-.255-.182-.693-.219-.073,0-1.679-.511-2.08.146a2.2,2.2,0,0,0-.146.766,12.026,12.026,0,0,0,.292,2.336c.584,1.277.73.839,1.022,1.606.292.73-.037.073.912.876.146.146.8.839.876.876a5.334,5.334,0,0,1,.73.182c.219.109.255.255.584.328a5.391,5.391,0,0,0,.766.036c.292.073.8.4,1.241-.328.146-.365-.036-.438-.036-.73" transform="translate(-36.201 -31.037)" fill="#6390b7" fill-rule="evenodd"/>
      <path id="XMLID_62_" d="M107.9,61.561a7.348,7.348,0,0,0-.219-2.336c-.036-.547.036-.328-.219-.657-.292-.365-.219-.876-.547-1.2a4.372,4.372,0,0,1-.438-.4c-.949-1.168-.073-.766-1.314-1.314-.876-.365-.73-.547-1.131-.584-.693-.073-.949.036-1.168.547a7.839,7.839,0,0,0-.146,3.8l.365.949a2.088,2.088,0,0,1,.365.657l.073.182a.535.535,0,0,1,.073.146l.037.036a2.707,2.707,0,0,0,.365.584l1.277.912c.438.474.109.255,1.168.547.328.073.328.219.584.037a1.444,1.444,0,0,0,.365-.547c.182-.328.292-.219.365-.547a2.081,2.081,0,0,0,.146-.8" transform="translate(-63.988 -32.538)" fill="#6390b7" fill-rule="evenodd"/>
      <path id="XMLID_61_" d="M211.469,88.924a1.788,1.788,0,0,0,.876-.292c.438-.292,0-.219.584-.62.146-.109.073,0,.146-.182l.328-.584c.109-.109.182-.036.182-.4a2.209,2.209,0,0,1,.073-.547,7.967,7.967,0,0,0-.146-2.3c-.109-.511-.8-1.131-.985-1.5h-.547a1.715,1.715,0,0,1-.219.328,5.684,5.684,0,0,1-.511.62c-.474.657-.292.657-.511,1.058-.11.182-.037.182-.11.328-.109.182-.109.036-.219.657a4.6,4.6,0,0,0,.146,2.044l.292.547a.8.8,0,0,0,.109.182c.109.146.036.036.146.146Z" transform="translate(-132.444 -49.973)" fill="#c89c36" fill-rule="evenodd"/>
      <path id="XMLID_60_" d="M197.174,70.89c0,.547-.073.876-.109,1.35a5.187,5.187,0,0,0,.109,1.314,4.97,4.97,0,0,0,1.058,2.153c.365.328.109,0,.474.62a.746.746,0,0,0,.949.4c.146-.109.219-.365.438-.584.036-.036.182-.182.182-.219a6.337,6.337,0,0,1,.365-.693c.109-.146.073,0,.146-.255a9.487,9.487,0,0,0,0-3.212c-.073-.219-.146-.328-.219-.511-.255-.657.073-.328-.547-.912-.328-.328-.182-.62-.584-.876-1.058-.62-1.095-.328-1.46,0-.219.182-.182.182-.292.474-.182.474-.109.62-.511.949" transform="translate(-123.989 -41.465)" fill="#b3c260" fill-rule="evenodd"/>
      <path id="XMLID_59_" d="M262.7,58.138v.912a.643.643,0,0,0,.255.547c.365.365,1.35.255,2.007-.036a8.9,8.9,0,0,0,1.022-.62,2.523,2.523,0,0,0,.8-.438c.584-.584.511-.292.766-.693l1.022-1.241a8.232,8.232,0,0,0,.365-1.277,6.482,6.482,0,0,0,.036-2.372c-.365-.8-1.095-.438-1.46-.328l-1.2.474a1.175,1.175,0,0,1-.255.146,3.987,3.987,0,0,0-.547.292c-.62.438-.511.547-.985.766-.4.182-.255.036-.474.365a11.513,11.513,0,0,0-.693.985c-.109.219-.146.365-.255.584a6.942,6.942,0,0,0-.4,1.934" transform="translate(-165.681 -30.867)" fill="#b3c260" fill-rule="evenodd"/>
      <path id="XMLID_58_" d="M186.559,52.582c-.292-.182-.219-.073-.365-.438-.328-.912.146-.292-.511-1.241-.547-.8-.183-.876-.511-1.241a1.869,1.869,0,0,1-.438-.474c-.109-.182,0-.146-.328-.328-.438-.255-.146-.146-.438-.4-.146-.146-.438-.219-.693-.438-.292-.255-.073-.219-.62-.292-.547-.109-.511-.036-1.058.62a5.311,5.311,0,0,0-.4,3.066l.584,1.971c.146.328.219.036.73.985.4.73.693.8,1.314,1.314.766.584.292.182.766.474.657.4,1.131.073,1.35-.547a14.931,14.931,0,0,0,.365-2.263c.255-.328.255-.255.255-.766" transform="translate(-113.885 -27.865)" fill="#ddd150" fill-rule="evenodd"/>
      <path id="XMLID_57_" d="M139.366,123.982c0-.657-.037-.657-.657-.839a2.419,2.419,0,0,0-1.825.073c-.255.073-.073.036-.292.146-.292.182-.474.036-.766.328-.255.255-.292.182-.511.365l-.146.109a2.24,2.24,0,0,0-.693.62c-.365.365-.109.292-.438.839-.292.474-.511.8-.292,1.35.073.182.109.255.328.292.474.073.073-.073.8.073a3.989,3.989,0,0,0,1.825-.365c.8-.328.292-.109.8-.438l.365-.255c.073-.037.11-.073.183-.11.036-.036.219-.328.474-.62l.073-.073a.8.8,0,0,0,.146-.182c.109-.146.146-.255.255-.4a1.478,1.478,0,0,0,.365-.912" transform="translate(-83.736 -75.688)" fill="#ddd150" fill-rule="evenodd"/>
      <path id="XMLID_56_" d="M120.5,55.025c0,2.044.328,1.241.4,2.153a1.637,1.637,0,0,0,.036.4c.036.146.11.182.219.292.511.511.693,1.606,1.606,1.095a6.927,6.927,0,0,0,1.2-.949c.146-.219.109-.4.219-.62l.182-.292a3.2,3.2,0,0,0,.547-1.533c.183-.73.62-.949.073-2.226-.109-.292-.146-.839-.292-1.241L124.661,52a.52.52,0,0,0-.073-.146c-.219-.584-.255-.365-.511-.8a3.988,3.988,0,0,0-.292-.547c-.146-.182-.255-.328-.474-.365a.553.553,0,0,0-.693.219c-.182.182-.255.182-.4.4-.4.62.036.182-.584.657-.292.219-.036,0-.255.438-.584,1.022-.146-.109-.693,1.679a5.57,5.57,0,0,0-.182,1.5" transform="translate(-75.382 -29.396)" fill="#b3c260" fill-rule="evenodd"/>
      <path id="XMLID_55_" d="M65.486,34.213A5.943,5.943,0,0,0,66.508,37.5l.839,1.095a2.964,2.964,0,0,1,.365.328c.584.584.365.255,1.095.8a4.424,4.424,0,0,0,1.569.474h.584c.073-.255.219-.328.292-.547a5.211,5.211,0,0,0-.146-2.81c-.073-.182-.146-.438-.219-.62a2.085,2.085,0,0,1-.292-.547c-.219-.547-.292-.4-.657-.985-.438-.73-.876-.693-1.277-1.241-.474-.62-.693-.292-1.095-.547a1.522,1.522,0,0,0-1.277-.4c-.4,0-.474-.036-.584.292a2.449,2.449,0,0,0-.219,1.423" transform="translate(-40.442 -18.22)" fill="#b3c260" fill-rule="evenodd"/>
      <path id="XMLID_54_" d="M289.5,132.427a3.565,3.565,0,0,1,1.423-.438,2.235,2.235,0,0,0,1.46-.365c.657-.62.4-.365.839-.62a2.992,2.992,0,0,0,.949-.8c.255-.474.219-.219.438-.474l.474-.876c.146-.255.255-.292.365-.547a4.763,4.763,0,0,0,.584-3.066.446.446,0,0,0-.109-.328l-.036-.036-.219-.073c-.547-.073-1.277.036-1.861-.037-.8-.109-1.423-.182-1.752.328-.365.547-.365.11-.839.547l-.511.4a2.435,2.435,0,0,0-.985.839c-.438.766-.182,0-.73,1.058-.146.255-.292.255-.4.511l-.474,1.423a2.986,2.986,0,0,0-.219,1.569l.73.547c.511.292.438,0,.876.438" transform="translate(-181.681 -76.76)" fill="#946385" fill-rule="evenodd"/>
      <path id="XMLID_53_" d="M304.565,110.339l.146.109a2.167,2.167,0,0,0,1.131.292,11.75,11.75,0,0,0,3.212-.11c.511-.182.219-.292,1.2-.584.657-.219.438-.365.986-.73l.876-.839c.146-.219.109-.328.292-.547.256-.292.183-.073.4-.511a2.439,2.439,0,0,0,.182-.693c.11-.328.183-.292.4-.474a1.888,1.888,0,0,0-.73-1.423c-.438-.255-.329-.11-.839-.255-.657-.182,0-.182-1.241-.182a2.5,2.5,0,0,0-.949.073l-.328.073c-.365.073-.255,0-.547.219a.923.923,0,0,1-.547.219c-.8.219-.474.474-1.058.73-.146.036,0,0-.146.073l-.109.073c-.182.146-.182.255-.328.4-.182.219-.219.146-.4.292-.329.255-.256.4-.511.584-.547.438-.146.182-.511.657-.328.438-.073-.146-.4.693a3.775,3.775,0,0,0-.182,1.861" transform="translate(-192.254 -63.87)" fill="#c0ab4b" fill-rule="evenodd"/>
      <path id="XMLID_52_" d="M269.49,167.6a4.082,4.082,0,0,0-.219,1.569c.036.182.036,0,.036.292a.962.962,0,0,0,.255.584l.146.292.073.073c.073.073.146.109.182.182.073.073.036.109.146.182.328.292.182.109.4.255l.036.036c.219.146,0,.219.511.182a.8.8,0,0,1,.109-.182c.073-.073.036-.146.109-.182.146-.219.073.146.146-.438a2.952,2.952,0,0,0,.036-.584.988.988,0,0,0-.146-.693l-.036-.036c-.073-.073-.109-.547-.4-.8a.364.364,0,0,1-.182-.146c-.109-.146.036-.219-.328-.255-.036-.255-.219-.219-.4-.292-.219,0-.073-.037-.474-.037" transform="translate(-169.843 -104.013)" fill="#c0ab4b" fill-rule="evenodd"/>
      <path id="XMLID_51_" d="M249.172,114.095a5.331,5.331,0,0,0-1.752.146l-1.314.547c-.4.182-.292.255-.511.438-.146.109-.474.219-.62.328a1.486,1.486,0,0,0-.438.511c-.182.328-.109.182-.438.474-.876.876-.584.511-.73,1.2-.036.219-.036.146-.073.219-.474.8-.183.474-.438,1.168-.182.474-.146.146-.109.693a3.452,3.452,0,0,0,.036.876c.219.73,3.321.438,3.869.036a1.28,1.28,0,0,1,.292-.182,6.617,6.617,0,0,0,1.387-.949l.547-.474c.292-.146.219-.11.547-.657l.219-.292c.657-.8.547-1.5.8-2.044a1.376,1.376,0,0,0,.073-1.5c-.292-.584-.584-.547-1.35-.547" transform="translate(-152.993 -70.034)" fill="#b79345" fill-rule="evenodd"/>
      <path id="XMLID_50_" d="M320.093,176.026c-.255-.146-.219,0-.547-.4a2.165,2.165,0,0,0-.73-.693l-.11-.073a.276.276,0,0,0-.146-.073c-.219-.109-.109,0-.328-.146-.474-.292-.292-.036-1.2-.4l-.182-.073a3.837,3.837,0,0,0-2.044-.109,7.367,7.367,0,0,0-2.263.584,2.862,2.862,0,0,1-.547.365c-.657.292-.657.146-.912.511-.182.255-.474.474-.511.8a1.313,1.313,0,0,0,.292,1.058c.474.584.4.365.767.584.292.182.036.328,1.168.657,1.058.328.255.328,1.35.511a9.632,9.632,0,0,0,3.066-.073.036.036,0,0,0,.036-.036c.511-.292.4-.146.8-.365.036-.036.073-.036.146-.073a7.563,7.563,0,0,0,1.606-1.168c.547-.62.292-.8.292-1.387" transform="translate(-196.066 -108.059)" fill="#608fa7" fill-rule="evenodd"/>
      <path id="XMLID_49_" d="M275.634,95.781l-.876-.474a2.36,2.36,0,0,0-1.752-.438c-.547.073-1.277-.109-1.752.109-.4.219-.328.073-.766.4a1.027,1.027,0,0,1-.547.219l-.693.4c-.146.109-.036.036-.146.146-.621.62-1.095.766-1.277,1.058l-.912,1.9c-.255,1.569.474,1.131,1.46,1.752.4.255.584.146,1.277.146a2.426,2.426,0,0,0,.766-.109c.766-.219.73-.109,1.131-.328.109-.036.256-.109.365-.146a2.278,2.278,0,0,0,.584-.365c.474-.438.584-.036,1.277-.8l.109-.109.949-.876c.365-.4.255-.328.328-.62.036-.219.073-.219.109-.4.073-.474.365-1.131.365-1.46" transform="translate(-168.323 -57.815)" fill="#a97192" fill-rule="evenodd"/>
      <path id="XMLID_48_" d="M268.575,141.133c.766.036,1.095.109,1.533-.292.912-.73.584.109,1.533-.8l.949-.912c.328-.255.365-.547.8-1.058.292-.328.219-.365.365-.62l.255-.62a2.011,2.011,0,0,0,.328-1.058,7.21,7.21,0,0,0,.036-1.788,1.034,1.034,0,0,0-.73-1.058,2.807,2.807,0,0,0-1.642.073,3.507,3.507,0,0,0-1.2.657l-1.022.8a7.179,7.179,0,0,0-.949,1.387c-.073.109-.109.182-.182.292-.4.584-.292.839-.4,1.46-.073.328-.511.328-.219,2.336.109.949.292.912.547,1.2" transform="translate(-169.001 -81.926)" fill="#c3c943" fill-rule="evenodd"/>
      <path id="XMLID_47_" d="M282.75,148.577c-.146.182-.292.328-.438.511-.328.365-.292.183-.474.438l-.657,1.2c-.146.474-.292.949-.4,1.46-.328,1.569-.328.73.036,2.336a6.477,6.477,0,0,0,1.022,2.518c.036.037.036.109.073.146.109.182.036.109.219.255.292.292.949.876,1.423.766a1.877,1.877,0,0,0,1.022-.876l.365-.547c.146-.219.4-.985.547-1.314a1.938,1.938,0,0,0,.219-.693,14.07,14.07,0,0,0,.073-1.788c0-1.825-.292-1.131-.621-2.19-.255-.839-.328-.547-.511-.876a1.513,1.513,0,0,0-.547-.8c-.766-.584-.4-.584-1.35-.547" transform="translate(-177.008 -91.925)" fill="#a6aa5c" fill-rule="evenodd"/>
      <path id="XMLID_46_" d="M305.837,144.809a.8.8,0,0,0,.182-.584c.037-.438.365-.876.182-1.168a.127.127,0,0,1-.036-.073l-.109-.146c-.037-.036-.11-.146-.146-.182-.183-.219-.839-.219-1.095-.255l-.985.146a2.439,2.439,0,0,0-.73.219c-.365.109-.219.073-.584.4a3.435,3.435,0,0,1-.365.365l-.766.693a1.5,1.5,0,0,0-.292.474,4.565,4.565,0,0,0-.62,2.117c.073.474.876.876.912.912a.766.766,0,0,0,.511-.073c.693-.292.584-.073.985-.146l1.277-.693c.255-.182-.036-.073.584-.511a.44.44,0,0,0,.182-.182c1.095-1.058.292-.146.912-1.314" transform="translate(-189.657 -88.01)" fill="#608fa7" fill-rule="evenodd"/>
      <path id="XMLID_45_" d="M291.885,107.923a4.519,4.519,0,0,0,0-1.715,12.111,12.111,0,0,0-.292-1.5c-.4-.547-1.423-.182-2.007.146-.438.255-1.314.511-1.642,1.095-.474.876-.438.219-.876.912a3.424,3.424,0,0,0-.365.511,5.274,5.274,0,0,0-.693,2.007c-.036.62.037,1.241-.036,1.825-.037.4-.037,1.241.292,1.46a3.164,3.164,0,0,0,2.007.182c.292-.073.073.036.219-.146a2.365,2.365,0,0,1,.62-.584c.511-.292.4-.036.693-.474a4.527,4.527,0,0,1,1.022-1.168Z" transform="translate(-180.45 -63.899)" fill="#a6aa5c" fill-rule="evenodd"/>
      <path id="XMLID_44_" d="M312.6,130.88c0,.474.036.438.292.657l.985.8a1.524,1.524,0,0,1,.292.219c.912.8.328.037,1.46.8a4.543,4.543,0,0,0,1.5.292c.328,0,.511-.073.912-.073a1.845,1.845,0,0,0,1.387-.365c.547-.255.876-.146,1.241-.547.438-.511,1.241-.584,1.277-1.423.036-.8-.584-1.2-1.095-1.642-.255-.219-.292-.146-.584-.292-.4-.182-.073-.219-.62-.328-.255-.036-.438-.11-.73-.146-.292-.073-.474-.182-.657-.219-.255-.036-.62,0-.876-.036a6.743,6.743,0,0,0-2.92.584c-1.241.474-.438.365-1.533,1.131-.328.146-.328.146-.328.584" transform="translate(-197.369 -79.228)" fill="#b79345" fill-rule="evenodd"/>
      <path id="XMLID_43_" d="M289.776,83.465a12.9,12.9,0,0,0,2.117-.073c.182-.073.146-.109.292-.219.146-.073.146-.036.292-.146a1.582,1.582,0,0,1,.255-.146,8.021,8.021,0,0,0,1.131-.584c1.752-1.058.657-.438,1.788-1.642.766-.839.255-1.715-.693-2.044-.255-.073-.365-.146-.657-.255a3.359,3.359,0,0,1-.328-.109c-.328-.146-.036-.073-.328-.146h-1.715a6.985,6.985,0,0,0-.766.146c-.4.036-.219.073-.584.255-.4.219-.949.255-1.241.474l-.438.438c-.036.036-.62.365-1.022.693-.474.4-.438.438-.694,1.058-.073.219-.219.365-.219.62-.109.839.255.876.62,1.095.292.182.365.109.693.219.693.255,0,.365,1.5.365" transform="translate(-181.078 -47.179)" fill="#b79345" fill-rule="evenodd"/>
      <path id="XMLID_42_" d="M236.6,100.827a7.3,7.3,0,0,0,.292,2.226c.036.073.328.328.4.438.182.219.146.255.511.255a2.563,2.563,0,0,0,1.752-.766,3.592,3.592,0,0,0,.985-1.35c.073-.146.073-.11.146-.255l.146-.292a1,1,0,0,1,.328-.438c.328-.365.146-.985.255-1.423a.8.8,0,0,0,.109-.292c.255-.985-.292-2.737-.328-3.577-.73-.073-.182-.438-1.533-.146-.62.146-.365.255-1.095.949l-.036.036a2.506,2.506,0,0,0-.62.62,3.682,3.682,0,0,0-.547.766c-.657,1.679-.766.693-.766,3.248" transform="translate(-149.107 -57.97)" fill="#b3c260" fill-rule="evenodd"/>
      <path id="XMLID_41_" d="M227.481,85.265c.255.036,1.022.657,1.606.109l1.022-.693a.036.036,0,0,0,.036-.036l.62-.474a1.136,1.136,0,0,0,.146-.219l.146-.292.584-.912.037-.036.073-.073c.073-.109.073-.073.146-.182a.127.127,0,0,1,.036-.073l.073-.146c.4-.693.255-.693.4-1.46a2.721,2.721,0,0,0,.182-1.569l-.292-.949c-.109-.219.146-.365-.547-.73s-2.19.365-2.664.8l-.73.8c-.109.182-.146.328-.255.511a10.775,10.775,0,0,0-.766,1.533,8.681,8.681,0,0,0-.255,2.81c.146.547.365.693.4,1.277" transform="translate(-143.054 -46.753)" fill="#a97192" fill-rule="evenodd"/>
      <path id="XMLID_40_" d="M255.922,83a5.589,5.589,0,0,0-1.569,1.752c-.146.219-.073.328-.255.584a1.424,1.424,0,0,0-.255.584,6.1,6.1,0,0,0-.146,2.92c.146.73-.073.766.4,1.277l.547.693c.036.073.036.036.109.109.328.4.255.73.8.584l.985-.474c.146-.146.073-.146.292-.328.584-.438.4-.073.73-.912a2.327,2.327,0,0,1,.292-.511c.511-1.058.255-.8.4-2.117l-.219-2.263c-.073-.219-.219-.365-.292-.547-.328-.657-.474-1.679-1.679-1.423l-.146.073" transform="translate(-159.889 -50.221)" fill="#ddd150" fill-rule="evenodd"/>
      <path id="XMLID_39_" d="M238.8,140.288l.037.037,1.241.912c1.058.657.949.547,2.372.62,1.095.036.037.182,1.46-.073a2.6,2.6,0,0,0,.766-.146l.766-.474a8.755,8.755,0,0,0,.8-.438,2.525,2.525,0,0,0,1.168-1.058c.255-.474.182-.183.328-.438a.6.6,0,0,0,.073-.365l-.073-.073-.073-.073c-.073-.073-.036-.036-.146-.073-.182-.073-.146-.037-.328-.11-.328-.109-.219-.182-.365-.438-.219-.365-2.08-.73-2.7-.766a4.365,4.365,0,0,0-2.263.255c-1.971.73-.985.511-2.226,1.2l-.4.438Z" transform="translate(-150.504 -84.767)" fill="#b3c260" fill-rule="evenodd"/>
      <path id="XMLID_38_" d="M315.164,161.342A2.141,2.141,0,0,0,316,161.2l.766-.4c.365-.182.4-.073.73-.365.292-.292.292-.182.62-.4.182-.109.4-.4.657-.62l.62-.693.036-.036c.328-.438.073-.547.73-.839,0-.949.109-.839-.438-1.35-.438-.4-3.321-.438-3.832-.219l-.511.292a4.452,4.452,0,0,1-.62.255c-.62.182-.183.292-.912.766-.292.182-.255.255-.438.4l-.438.4c-.146.219-.109.365-.292.547-.109.109-.146.109-.219.182a.451.451,0,0,0-.146.292c-.584,1.277.109,1.387.73,1.679l.584.182a5.281,5.281,0,0,0,1.533.073" transform="translate(-197.049 -96.733)" fill="#ddd150" fill-rule="evenodd"/>
      <path id="XMLID_37_" d="M7.529,179.091a7.038,7.038,0,0,0,.876-.036c.182-.036.328-.146.584-.219,2.153-.584,1.2-.292,1.715-.766.219-.182.584-.365.73-.511a1.545,1.545,0,0,0,.182-.255c.438-.62.4.146.4-1.2a1.186,1.186,0,0,1-.474-.365c-.219-.219-.109-.219-.4-.365-.547-.255-.292-.511-.8-.73a18.451,18.451,0,0,0-2.664-.438,5.093,5.093,0,0,0-1.569.219,11.187,11.187,0,0,0-1.314.4,2.9,2.9,0,0,0-.985.73c-.62.511-.766.182-.839.876-.036.4-.036.547.146.73l.949.8c.182.146.255.292.438.4a1.993,1.993,0,0,0,.657.219,2.825,2.825,0,0,0,.584.255,3.442,3.442,0,0,0,1.788.255" transform="translate(-0.734 -108.204)" fill="#b3c260" fill-rule="evenodd"/>
      <path id="XMLID_36_" d="M38.846,180.667c.365-.109.73-.219,1.168-.365,1.022-.365.8-.547,1.277-.839.182-.109.328-.109.438-.438l.073-.255c.036-.219,0-.292-.182-.365-.255-.073-.146,0-.365-.292-.4-.474-.547-.365-.73-.474-.219-.182-.036-.182-.4-.146-.255,0-.219-.037-.438-.11-1.022-.365-.766-.036-1.35-.146-.182-.036-.037-.036-.255-.036a4.571,4.571,0,0,0-1.825.657c-.657.474-.365.292-.657.657-.109.146-.328.146,0,.949.146.438.4.4.693.547a5.346,5.346,0,0,0,1.2.474.786.786,0,0,0,.4.073c.182,0,.328-.036.511-.036.438,0,.365.255.438.146-.036-.036-.036,0,0,0" transform="translate(-21.357 -110.109)" fill="#6390b7" fill-rule="evenodd"/>
      <path id="XMLID_35_" d="M9.191,161.064a4.325,4.325,0,0,0,1.533,0c1.095,0,.511.073,1.058-.219a2.52,2.52,0,0,1,.292-.11c.693-.182.766-.219.62-.985-.073-.328,0-.146-.146-.365a1.588,1.588,0,0,1-.146-.255,1.931,1.931,0,0,0-.62-1.058c-.255-.255-.073-.182-.4-.438l-.073-.036-.036-.036-.4-.255c-.109-.073-.109-.146-.219-.219-.109-.109-.146-.109-.219-.182-.328-.328-.073-.146-.511-.328-.474-.182-.839-.584-1.095-.62-.985-.146-4.635-.547-4.27,1.277a1.3,1.3,0,0,0,.146.328c.073.146.073.109.146.255.328.584.584.474.693.949.255.766.4.438.8.912a4.427,4.427,0,0,0,1.606.912c.876.11.8.292,1.241.474" transform="translate(-1.739 -96.528)" fill="#ddd150" fill-rule="evenodd"/>
      <path id="XMLID_34_" d="M138.311,45.614c.766-1.46.584-.657.8-1.2l.328-.62a.036.036,0,0,1,.036-.036c.328-.584.4.036.438-1.241,0-.438.036-.255.146-.511a9.02,9.02,0,0,0-.256-2.737c-.146-.292-.109-.073-.328-.365a7.206,7.206,0,0,1-.4-1.314c-.949-.036-.693-.292-.985-.474a2.229,2.229,0,0,0-.474-.109.036.036,0,0,0-.037.036c-.073.219-.036-.109-.365.438l-.255.365c-.4.547-.146,0-.365.693a3.7,3.7,0,0,1-.328.474,8.032,8.032,0,0,0-.584,2.737l.073.62a13.605,13.605,0,0,0,.474,1.606c.292.438,0-.182.438.584a.535.535,0,0,0,.073.146c.219.255,0-.182.328.474.328.547.584.438,1.241.438" transform="translate(-85.018 -21.08)" fill="#b37095" fill-rule="evenodd"/>
      <path id="XMLID_33_" d="M148.164,58.373a4.492,4.492,0,0,1,.73-.073c.292-.036.255-.182.511-.328a.277.277,0,0,1,.146-.073c.182-.146.109-.182.255-.4l.073-.109c.073-.109.036,0,.109-.109l.839-.876.036-.036c.73-.73.4-.8.73-1.35.182-.292.073.037.146-.292a6.193,6.193,0,0,0-.255-2.226c-.036-.876-.474-1.058-.8-1.715l-.146-.255c-.036-.146,0-.219-.073-.365-.036-.073.073-.292-.584-.146l-.474.255c-.438.511-.4.255-.73.657l-.328.438a493.8,493.8,0,0,0-.073.073c0,.036,0,.036-.036.036l-.219.365a1.5,1.5,0,0,0-.109.292c-.11.219-.255.255-.4.438A6.35,6.35,0,0,0,147,56.037a5.79,5.79,0,0,0,.584,1.569s.073.036.073.073a1.492,1.492,0,0,1,.511.693" transform="translate(-92.17 -29.313)" fill="#6390b7" fill-rule="evenodd"/>
      <path id="XMLID_32_" d="M132.9,101.6c-.073,1.423-.146,1.095.255,1.9.292.547.036.766.876.766a3.014,3.014,0,0,0,1.861-.985l.219-.219c.4-.365.109.292.693-.912l.219-.4c.328-.511.438-.4.438-1.058a4.1,4.1,0,0,1,.109-1.095,3.375,3.375,0,0,0-.109-1.095l-.438-.693c-.328-.365-.438-.036-.766.073-1.095.4-.438,0-1.423.657l-.146.109a1.687,1.687,0,0,0-.62.62l-.474.693c-.255.255-.182.584-.328.876-.073.146,0,.036-.146.219-.182.109-.219.219-.219.547" transform="translate(-83.22 -59.587)" fill="#6086a5" fill-rule="evenodd"/>
      <path id="XMLID_31_" d="M130.759,74.1a11.558,11.558,0,0,0,.146,3.029c.036.109.146.328.182.438.11.182.11.109.255.365.438.949.109.657.657,1.131.182.146.146.182.255.328h.876l.8-.985a1.921,1.921,0,0,0,.839-1.022c.328-.912.474-.109.693-2.08a4.644,4.644,0,0,0,.073-1.9c-.146-1.569-.62-1.606-.839-2.336a1,1,0,0,0-.292-.547c-.255-.365-.584-.438-1.2-.365-.365.036-.4.182-.912.693-.109.109-.328.474-.73.949Z" transform="translate(-81.882 -42.118)" fill="#ddd150" fill-rule="evenodd"/>
      <path id="XMLID_30_" d="M73.569,82.033l-1.022,1.752c-.109.255-.292.365-.328.62a10.606,10.606,0,0,0,.036,3.869,6.981,6.981,0,0,0,1.2,2.117c.657.73.912,1.2,1.606,1.168,1.131-.036,1.2-.985,1.5-1.314.474-.511.4-1.569.62-2.117a1.805,1.805,0,0,0,.146-1.569c-.146-.584.109-.547-.219-1.022L76.89,85.1a6.535,6.535,0,0,0-.693-1.642c-.036-.073-.146-.219-.182-.292l-.766-.584c-.4-.255-.182-.255-.511-.438a1.253,1.253,0,0,0-1.168-.109" transform="translate(-44.619 -49.615)" fill="#a6aa5c" fill-rule="evenodd"/>
      <path id="XMLID_29_" d="M79.422,114.785c-.182-.109-.438-.146-.62-.255-.4-.219-.073-.219-.657-.292a5.019,5.019,0,0,0-2.445-.073c-.438.146-.547.949-.511,1.423.036.328.109.547.146.839.073.73.073.474.438.949a2.037,2.037,0,0,1,.182.292c.146.219.146.4.292.62a2.285,2.285,0,0,1,.365.584c.182.328.109.328.438.584l1.46.912a3.106,3.106,0,0,1,.511.328c.547.547,2.518.547,3.54.547a1.945,1.945,0,0,0,.365-1.46,2.926,2.926,0,0,0-.109-.839,5.476,5.476,0,0,1-.657-1.2,2.053,2.053,0,0,0-.255-.657c-.109-.146-.146-.11-.255-.255-.182-.219-.037-.219-.292-.474l-.328-.292a4.131,4.131,0,0,0-1.131-.912l-.328-.219c-.109-.109,0-.036-.146-.146" transform="translate(-46.604 -69.995)" fill="#9c6b84" fill-rule="evenodd"/>
      <path id="XMLID_28_" d="M58.717,124.128c.036.146.036.073.073.146v.036l.292.839a1.527,1.527,0,0,0,.547.693c.4.365.657.693,1.095.328a6.729,6.729,0,0,0,.839-.912c.511-.73.182-.4.328-.912a2.233,2.233,0,0,1,.182-.438c.073-.292.036-.949.073-1.35.037-.438-.146-.474-.182-.876a4.517,4.517,0,0,0-1.022-1.752c-.365-.328-.365-.4-.693-.255l-.146.073-.073.036c-.182.073-.255.182-.438.4a4.758,4.758,0,0,0-.547.73c-.182.4-.365.255-.328.73l-.109,1.095c-.146.693-.182.365.109,1.168v.219Z" transform="translate(-36.009 -73.534)" fill="#c1c851" fill-rule="evenodd"/>
      <path id="XMLID_27_" d="M41.555,134.513c.657-.219.292-1.533.073-1.934l-.182-.365c-.036-.073,0-.036-.073-.109l-.693-1.058a3.29,3.29,0,0,0-.328-.365l-.182-.182c-.073-.037-.182-.109-.255-.146a.824.824,0,0,1-.4-.292c-.182-.292-.036-.219-.4-.328-.474-.146-.328-.219-.839-.438a7.03,7.03,0,0,0-2.153-.073c-.219.365-.328.328-.255,1.168l.109.62a4.563,4.563,0,0,0,.985,1.861,6.714,6.714,0,0,0,1.642,1.241c.4.182.292.255.693.4a6.728,6.728,0,0,0,2.263,0" transform="translate(-21.62 -79.612)" fill="#a6aa5c" fill-rule="evenodd"/>
      <path id="XMLID_26_" d="M97,76.222c-.255.11,0-.073-.255.182-.109.109-.109.146-.219.255a7.624,7.624,0,0,0-.328,2.445c0,.365.073.511.073.839a4.169,4.169,0,0,0,.219,1.569l.182.292c.365.511.474.365.657.73a5.483,5.483,0,0,0,1.934,1.715,5.111,5.111,0,0,0,.584.365c.219.109.328.182.584.292a1,1,0,0,0,.8.036c.693-.182.4-.547.584-1.2A8.243,8.243,0,0,0,102,82.025a7.38,7.38,0,0,0-.4-2.3,3.07,3.07,0,0,0-.657-1.058l-.109-.109a1.824,1.824,0,0,1-.474-.766c-.219-.438-.255-.146-.8-.657-1.314-1.241-.766-.73-1.788-.949-.4-.036-.438-.146-.766.036" transform="translate(-59.951 -45.921)" fill="#a97192" fill-rule="evenodd"/>
      <path id="XMLID_25_" d="M100.311,125.984a9.81,9.81,0,0,0-.146,2.08l.146.657a3.515,3.515,0,0,0,.766,1.569c.182.292,0,.219.292.474.62.584.328.912,1.642,1.5.219.073.292.182.511.255a3.783,3.783,0,0,0,1.35.182,3.257,3.257,0,0,0,.474-1.934,4.2,4.2,0,0,1,.036-.73,1.563,1.563,0,0,0-.219-.62c-.11-.365.036-.766-.328-1.241-.584-.73-.328-.657-.62-.985-.182-.182-.219-.146-.365-.4-.547-.876-.62-.584-1.314-1.095a3.109,3.109,0,0,0-2.007-.328,1.054,1.054,0,0,0-.219.62" transform="translate(-62.456 -77.178)" fill="#c1c851" fill-rule="evenodd"/>
      <path id="XMLID_24_" d="M29.31,78.2c-.292.182-.182,0-.584.292-.219.146,0,.036-.255.146-.182.073-.219.109-.328.146-.547.255-.438.073-.547.365a1.959,1.959,0,0,0-.036.8,2.105,2.105,0,0,0,.109.511c.219.4.328.365.547.62.4.438.109.693,1.423,1.314.255.109.146.109.365.255a4.039,4.039,0,0,0,1.387.657,7.851,7.851,0,0,0,3.321.036l.255-.146a1.011,1.011,0,0,1,.292-.182c.219-.109.474-.146.657-.255.219-.146.73-.73.62-1.131-.109-.292-.036-.036-.182-.255-.109-.146-.073-.146-.146-.328a1.318,1.318,0,0,0-.584-.73l-.766-.693c-.693-.438-.365-.182-1.095-.693a6.141,6.141,0,0,0-1.2-.584c-.62-.328-.584-.255-1.533-.255a6.574,6.574,0,0,0-1.715.109" transform="translate(-16.347 -47.167)" fill="#b79345" fill-rule="evenodd"/>
      <path id="XMLID_23_" d="M74.657,133.809a1.551,1.551,0,0,1-.62-.182c-.292-.11-.4,0-.693-.073-.328-.037.036-.146-.328-.037l-.693.4c-.73.547-.219,1.387-.182,1.569.365,1.2.109.73.73,1.606a7.139,7.139,0,0,0,1.752,2.19l1.752.839a4.866,4.866,0,0,0,.73,0c.073,0,.292.036.365.036a.828.828,0,0,1,.146.037l.766.219c.328.073,1.2-.109,1.277-.62a5.14,5.14,0,0,0-.036-.73c.036-.292.146-.365.073-.693l-.036-.073a7.014,7.014,0,0,0-1.131-2.153c-.62-1.022-.657-.73-1.2-1.241-.292-.292-.292-.182-.766-.511Z" transform="translate(-44.539 -82.34)" fill="#608fa7" fill-rule="evenodd"/>
      <path id="XMLID_22_" d="M65.942,157.357c-.292.474-.584.365-.547.949a2.07,2.07,0,0,0,.328.949,8.2,8.2,0,0,0,2.19,1.277c.255.036.182-.073.511.036a3.624,3.624,0,0,0,.547.11c.4.073.766-.182,1.2-.292a2.457,2.457,0,0,0,.693-.219c.693-.183.328-.292.766-.438.292-.073.438-.657.146-.949a3.785,3.785,0,0,0-.985-1.058c-.912-.511-.657-.255-1.5-.73-.292-.182-.219-.073-.474-.073-.109,0-.328-.036-.438-.036a8.383,8.383,0,0,0-1.314.073.956.956,0,0,0-.62.182c-.474.328-.146.219-.511.219" transform="translate(-40.387 -97.201)" fill="#a97192" fill-rule="evenodd"/>
      <path id="XMLID_21_" d="M53.684,70.673c-.255.109-.182.036-.4.511a7.382,7.382,0,0,0-.146,2.555,1.787,1.787,0,0,0,.4,1.387c.109.182.182.4.292.62.182.365.109.438.292.62.146.182.182.109.438.474.62.949.8.73,1.35,1.35a2.339,2.339,0,0,0,1.2.584c.255.073.438.109.73.182.219.073.584.438,1.022-.584.474-1.095.292-.985.255-2.336a2.843,2.843,0,0,0-.146-.766c-.073-.474-.073-.328-.292-.62a3.236,3.236,0,0,1-.292-.62l-.839-1.387a1.363,1.363,0,0,1-.219-.255,2.513,2.513,0,0,0-.474-.4c-.292-.182-.073-.219-.8-.73l-.4-.292a3.393,3.393,0,0,0-1.533-.365h-.182c-.328.073-.219.073-.255.073" transform="translate(-32.582 -42.416)" fill="#c1c851" fill-rule="evenodd"/>
      <path id="XMLID_20_" d="M11.5,106.148a3.455,3.455,0,0,0,.584,2.044c1.058,1.168.547.912,1.971,1.971.547.365.438.182.985.511a7.071,7.071,0,0,0,4.416.146,1.087,1.087,0,0,0,.255-.657,5.445,5.445,0,0,0-.073-.766c-.073-.365-.146-.328-.292-.62-.292-.511-.219-.183-.365-.547a3.091,3.091,0,0,0-1.2-1.423c-.73-.62-.146-.219-1.095-.693-.766-.365.036-.146-1.241-.511a4.65,4.65,0,0,0-3.321-.182l-.328.146a.7.7,0,0,0-.292.584" transform="translate(-6.165 -64.387)" fill="#ddd150" fill-rule="evenodd"/>
      <path id="XMLID_19_" d="M54.818,101.04c1.9,0,.876.036,1.642-.219a8.646,8.646,0,0,0,1.168-.474c0-1.569-.182-1.168-.839-2.409l-.109-.219c-.219-.365-.474-.438-.693-.62-.182-.182,0-.073-.365-.4-.365-.292-.474-.693-1.314-.912-1.2-.328-.657-.584-2.591-.584-1.825,0-1.569.11-1.934.547-.182.182-.328.255-.365.511-.182.876.182,1.2.62,1.861.109.146.109.11.182.219l.036.036.109.109a10.442,10.442,0,0,0,1.642,1.46c.584.292.146.365.8.511l1.35.4c.292.109,0,.182.657.182" transform="translate(-30.212 -58.038)" fill="#6390b7" fill-rule="evenodd"/>
      <path id="XMLID_18_" d="M92.289,103.744l.657-.8a.036.036,0,0,1,.036-.036l.073-.109a6.525,6.525,0,0,0,.328-3.431c-.511-.985-.036-1.095-.584-1.642s-.219-.766-.912-1.314l-.73-.62a4.907,4.907,0,0,0-.4-.511l-.511-.4a1.833,1.833,0,0,0-.766.073l-.255.182s-.073.109-.109.109c-1.022,1.277-.328.511-.693,2.226-.073.4-.182.292-.255.584-.109.547.255,1.022.328,1.46a3,3,0,0,0,.073.839c.073.182.255.255.365.438.219.328.073.949,1.022,1.679l.511.4a.8.8,0,0,1,.182.219c.255.292.438.219.912.474.255.036.511.146.73.182" transform="translate(-54.835 -57.822)" fill="#608fa7" fill-rule="evenodd"/>
      <path id="XMLID_17_" d="M37.432,105.4a4.2,4.2,0,0,1-.219.62,4.693,4.693,0,0,1-.146.693l-.255.584c-.073.219-.073.109.037.365,0,.036,0,.036.036.036l.219.547a1.242,1.242,0,0,1,.036.365,1.936,1.936,0,0,0,.511,1.168c.146.182.219.8.693,1.241l.292.328c.4.584-.219-.109.511.73.511.547.182.255.839.474l.255.146c.182.146.328.474.8.511a2.716,2.716,0,0,0,1.2-.109c.292-.146.146-.036.292-.985a5.971,5.971,0,0,0-.292-2.628c-.328-.474-.146-.182-.255-.584-.073-.328-.109-.219-.182-.438-.146-.328,0-.219-.255-.511l-.328-.511c-.511-.766-.146-.219-.657-.8a2.679,2.679,0,0,0-.949-.8,5.72,5.72,0,0,0-2.19-.438" transform="translate(-22.206 -64.515)" fill="#b37095" fill-rule="evenodd"/>
      <path id="XMLID_16_" d="M10.518,130.875a.848.848,0,0,1-.693-.328l-.328-.292c-.328-.255-.365-.146-.693-.365-.4-.255.219.109-.109-.073l-1.387-.438a5.053,5.053,0,0,0-1.825-.073,5.93,5.93,0,0,0-.693.146c-1.569.219-.511.182-1.2.438-1.314.547-.584.182-1.058.62-.146.146-.365.182-.511.328a1.038,1.038,0,0,0-.146,1.022l1.058,1.022c.255.182.182.219.474.365.584.255.876.073,1.46.438l.109.036a3.711,3.711,0,0,0,1.9-.036c.255-.073.4-.109.657-.182a4.413,4.413,0,0,1,.657-.182c1.095-.219.255-.4,1.5-.839.438-.182.073-.073.474-.365l.255-.182c.365-.328.146-.328.109-1.058" transform="translate(0 -79.661)" fill="#b37095" fill-rule="evenodd"/>
      <path id="XMLID_15_" d="M116.974,84.187a1.172,1.172,0,0,0,.073.62c.109.292.219.219.328.511l.036.073c.182.438.036.255.365.584.073.073.073.036.146.146.255.4.365.365.547.547.073.073.036.073.146.146a.486.486,0,0,1,.182.11,1.26,1.26,0,0,0,1.241.328l.328-.11c.219-.146.146-.219.146-.474,0-.219.073-.255.073-.474a3.943,3.943,0,0,0-.219-1.46c-.036-.073-.036-.036-.109-.146L120,84c-.328-.693-.292-.4-.584-.73-.146-.146,0-.146-.438-.4l-.657-.438c-.219-.146-.036-.146-.328-.182-1.168-.219-.949,0-1.022.511-.036.255-.109.219-.109.4a2.827,2.827,0,0,0,.109,1.022" transform="translate(-73.061 -49.762)" fill="#c1c851" fill-rule="evenodd"/>
      <path id="XMLID_1_" d="M30.656,149.916c.109.584-.255,1.168.255,2.08l.219.511c.182.511.438.584.876,1.095a1.281,1.281,0,0,0,.365.292,2.315,2.315,0,0,0,.766.438c.657.146.365.182.8.219.365.037.511.146.8-.109.219-.182.219-.146.146-.547-.073-.511.4-.511-.511-2.117a2.5,2.5,0,0,0-.584-.839,4.606,4.606,0,0,0-1.168-.912,2.766,2.766,0,0,0-1.168-.365c-.365-.146-.365-.11-.8.255" transform="translate(-18.313 -92.57)" fill="#b79345" fill-rule="evenodd"/>
      <g id="XMLID_291_" transform="translate(127.714 113.809)">
        <path id="XMLID_294_" d="M348.3,305.2h.62v3.248c0,1.277-.62,1.679-1.46,1.679a1.769,1.769,0,0,1-.657-.109l.109-.511a2.1,2.1,0,0,0,.511.11c.547,0,.876-.255.876-1.2Z" transform="translate(-346.8 -305.2)" fill="#010003"/>
        <path id="XMLID_292_" d="M358.283,311.555a7.35,7.35,0,0,0,.036.949h-.547l-.036-.584h0a1.327,1.327,0,0,1-1.131.657c-.547,0-1.2-.292-1.2-1.533V309h.62v1.934c0,.657.219,1.095.766,1.095a.892.892,0,0,0,.839-.584,1.066,1.066,0,0,0,.073-.328V309h.62v2.555Z" transform="translate(-352.261 -307.613)" fill="#010003"/>
      </g>
      <g id="XMLID_288_" transform="translate(134.758 115.122)">
        <path id="XMLID_289_" d="M366.137,309.822a7.637,7.637,0,0,0-.036-.949h.547l.037.584h0a1.3,1.3,0,0,1,1.131-.657c.474,0,1.241.292,1.241,1.5v2.08h-.62v-2.007c0-.547-.219-1.022-.8-1.022a.9.9,0,0,0-.839.657.712.712,0,0,0-.036.292v2.117h-.62Z" transform="translate(-366.1 -308.8)" fill="#010003"/>
      </g>
      <g id="XMLID_285_" transform="translate(138.371 114.21)">
        <path id="XMLID_286_" d="M377.131,306.3v1.022h.912v.474h-.912v1.9c0,.438.109.693.474.693.182,0,.292-.037.365-.037l.036.474a1.978,1.978,0,0,1-.547.073,1,1,0,0,1-.693-.255,1.3,1.3,0,0,1-.255-.912v-1.9H376v-.547h.547v-.839Z" transform="translate(-376 -306.3)" fill="#010003"/>
      </g>
      <g id="XMLID_279_" transform="translate(140.816 115.122)">
        <path id="XMLID_282_" d="M386.094,310.588a1.707,1.707,0,0,1-1.715,1.861,1.66,1.66,0,0,1-1.679-1.788,1.709,1.709,0,0,1,1.715-1.861A1.64,1.64,0,0,1,386.094,310.588Zm-2.737.036c0,.766.438,1.35,1.058,1.35s1.058-.584,1.058-1.35c0-.584-.292-1.35-1.022-1.35C383.685,309.274,383.357,309.968,383.357,310.625Z" transform="translate(-382.7 -308.8)" fill="#010003"/>
        <path id="XMLID_280_" d="M393.682,311.72a1.756,1.756,0,0,0,.839.255c.474,0,.657-.219.657-.511s-.182-.474-.657-.657c-.62-.219-.912-.584-.912-.985a1.074,1.074,0,0,1,1.2-1.022,1.652,1.652,0,0,1,.839.219l-.146.474a1.551,1.551,0,0,0-.693-.219c-.365,0-.584.219-.584.474,0,.292.219.4.657.584.62.219.912.547.912,1.058,0,.62-.474,1.058-1.314,1.058a2.073,2.073,0,0,1-.985-.255Z" transform="translate(-389.558 -308.8)" fill="#010003"/>
      </g>
      <g id="XMLID_275_" transform="translate(149.393 113.772)">
        <path id="XMLID_276_" d="M406.2,305.21a8.532,8.532,0,0,1,1.2-.11,1.988,1.988,0,0,1,1.35.4,1.338,1.338,0,0,1,.438,1.022,1.611,1.611,0,0,1-.365,1.058,1.954,1.954,0,0,1-1.46.547,2.245,2.245,0,0,1-.511-.036v1.934h-.62V305.21Zm.657,2.336a2.086,2.086,0,0,0,.511.037c.766,0,1.2-.365,1.2-1.022s-.438-.949-1.131-.949c-.255,0-.474.036-.584.036Z" transform="translate(-406.2 -305.1)" fill="#010003"/>
      </g>
      <g id="XMLID_241_" transform="translate(152.788 113.553)">
        <path id="XMLID_272_" d="M418.894,310.588a1.707,1.707,0,0,1-1.715,1.861,1.66,1.66,0,0,1-1.679-1.788,1.709,1.709,0,0,1,1.715-1.861A1.66,1.66,0,0,1,418.894,310.588Zm-2.774.036c0,.766.438,1.35,1.058,1.35s1.058-.584,1.058-1.35c0-.584-.292-1.35-1.022-1.35C416.449,309.274,416.12,309.968,416.12,310.625Z" transform="translate(-415.5 -307.231)" fill="#010003"/>
        <path id="XMLID_270_" d="M426.837,309.968a10.256,10.256,0,0,0-.037-1.095h.547l.036.693h.036a1.033,1.033,0,0,1,.949-.766.329.329,0,0,1,.182.037v.584c-.073,0-.146-.036-.219-.036a.866.866,0,0,0-.839.8c0,.073-.036.183-.036.292v1.861h-.62Z" transform="translate(-422.676 -307.231)" fill="#010003"/>
        <path id="XMLID_268_" d="M440.055,307.791h-1.9v1.752h2.08v.511H437.5V305.2h2.628v.511h-1.971v1.533h1.9Z" transform="translate(-429.47 -304.944)" fill="#010003"/>
        <path id="XMLID_266_" d="M447.2,304.5h.62v5.146h-.62Z" transform="translate(-435.63 -304.5)" fill="#010003"/>
        <path id="XMLID_262_" d="M456.036,305.21a4.727,4.727,0,0,1,1.131-.11,1.886,1.886,0,0,1,1.314.365,1.013,1.013,0,0,1,.4.876,1.116,1.116,0,0,1-.8,1.058h0a1.229,1.229,0,0,1,.985,1.2,1.51,1.51,0,0,1-.4.985,2.319,2.319,0,0,1-1.679.438,6.036,6.036,0,0,1-.985-.073V305.21Zm.62,2.007h.584c.657,0,1.058-.328,1.058-.8,0-.584-.438-.8-1.058-.8-.292,0-.438.037-.547.037v1.569Zm0,2.336a1.94,1.94,0,0,0,.511.036c.657,0,1.241-.255,1.241-.949,0-.657-.584-.949-1.241-.949h-.511Z" transform="translate(-441.218 -304.881)" fill="#010003"/>
        <path id="XMLID_259_" d="M467.266,305.6a.383.383,0,0,1-.4.4.375.375,0,0,1-.365-.4.405.405,0,0,1,.4-.4A.375.375,0,0,1,467.266,305.6Zm-.693,4.489v-3.5h.62v3.5Z" transform="translate(-447.886 -304.944)" fill="#010003"/>
        <path id="XMLID_256_" d="M471.12,310.671a1.093,1.093,0,0,0,1.2,1.2,2.073,2.073,0,0,0,.949-.182l.109.438a2.73,2.73,0,0,1-1.168.219A1.619,1.619,0,0,1,470.5,310.6a1.706,1.706,0,0,1,1.642-1.9,1.477,1.477,0,0,1,1.423,1.642.628.628,0,0,1-.036.292H471.12Zm1.861-.438a.911.911,0,0,0-.876-1.022c-.62,0-.912.584-.985,1.022Z" transform="translate(-450.426 -307.167)" fill="#010003"/>
        <path id="XMLID_254_" d="M481.036,309.822a7.637,7.637,0,0,0-.036-.949h.547l.037.584h0a1.3,1.3,0,0,1,1.131-.657c.474,0,1.241.292,1.241,1.5v2.08h-.62v-2.007c0-.547-.219-1.022-.8-1.022a.9.9,0,0,0-.839.657.712.712,0,0,0-.036.292v2.117h-.621v-2.591Z" transform="translate(-457.094 -307.231)" fill="#010003"/>
        <path id="XMLID_251_" d="M491.92,310.671a1.093,1.093,0,0,0,1.2,1.2,2.074,2.074,0,0,0,.949-.182l.109.438a2.73,2.73,0,0,1-1.168.219A1.619,1.619,0,0,1,491.3,310.6a1.706,1.706,0,0,1,1.642-1.9,1.477,1.477,0,0,1,1.423,1.642.628.628,0,0,1-.036.292H491.92Zm1.861-.438a.911.911,0,0,0-.876-1.022c-.62,0-.912.584-.985,1.022Z" transform="translate(-463.634 -307.167)" fill="#010003"/>
        <path id="XMLID_249_" d="M501.282,311.72a1.756,1.756,0,0,0,.839.255c.474,0,.657-.219.657-.511s-.182-.474-.657-.657c-.62-.219-.912-.584-.912-.985a1.074,1.074,0,0,1,1.2-1.022,1.652,1.652,0,0,1,.839.219l-.146.474a1.551,1.551,0,0,0-.693-.219c-.365,0-.584.219-.584.474,0,.292.219.4.657.584.62.219.912.547.912,1.058,0,.62-.474,1.058-1.314,1.058a2.073,2.073,0,0,1-.985-.255Z" transform="translate(-469.858 -307.231)" fill="#010003"/>
        <path id="XMLID_247_" d="M509.668,306.3v1.022h.912v.474h-.912v1.9c0,.438.109.693.474.693.182,0,.292-.037.365-.037l.036.474a1.978,1.978,0,0,1-.547.073,1,1,0,0,1-.693-.255,1.3,1.3,0,0,1-.255-.912v-1.9H508.5v-.547h.547v-.839Z" transform="translate(-474.557 -305.643)" fill="#010003"/>
        <path id="XMLID_244_" d="M517.59,312.313l-.036-.438h-.036a1.246,1.246,0,0,1-1.058.511,1.006,1.006,0,0,1-1.058-1.022c0-.839.73-1.314,2.08-1.314v-.073a.715.715,0,0,0-.8-.8,1.9,1.9,0,0,0-.912.256l-.146-.4a2.176,2.176,0,0,1,1.131-.328c1.059,0,1.314.73,1.314,1.423v1.314a3.133,3.133,0,0,0,.073.839h-.547Zm-.073-1.788c-.693,0-1.46.109-1.46.8a.566.566,0,0,0,.584.62.892.892,0,0,0,.84-.584.464.464,0,0,0,.036-.219Z" transform="translate(-478.938 -307.167)" fill="#010003"/>
        <path id="XMLID_242_" d="M525.536,309.968a10.265,10.265,0,0,0-.036-1.095h.547l.036.693h.036a1.033,1.033,0,0,1,.949-.766.329.329,0,0,1,.182.037v.584c-.073,0-.146-.036-.219-.036a.866.866,0,0,0-.839.8c0,.073-.036.183-.036.292v1.861h-.62Z" transform="translate(-485.352 -307.231)" fill="#010003"/>
      </g>
      <g id="XMLID_236_" transform="translate(196.878 113.772)">
        <path id="XMLID_237_" d="M536.3,305.21a7.072,7.072,0,0,1,1.314-.11,2.771,2.771,0,0,1,1.971.62,2.223,2.223,0,0,1,.693,1.752,2.625,2.625,0,0,1-.693,1.9,3.044,3.044,0,0,1-2.153.693,9.823,9.823,0,0,1-1.131-.073Zm.621,4.307a3.146,3.146,0,0,0,.62.036,1.858,1.858,0,0,0,2.044-2.08,1.725,1.725,0,0,0-1.971-1.861,3.193,3.193,0,0,0-.73.073v3.832Z" transform="translate(-536.3 -305.1)" fill="#010003"/>
      </g>
      <g id="XMLID_230_" transform="translate(201.403 115.086)">
        <path id="XMLID_232_" d="M549.32,310.671a1.093,1.093,0,0,0,1.2,1.2,2.073,2.073,0,0,0,.949-.182l.109.438a2.73,2.73,0,0,1-1.168.219A1.619,1.619,0,0,1,548.7,310.6a1.706,1.706,0,0,1,1.642-1.9,1.477,1.477,0,0,1,1.423,1.642.628.628,0,0,1-.036.292H549.32Zm1.825-.438a.911.911,0,0,0-.876-1.022c-.62,0-.912.584-.985,1.022Z" transform="translate(-548.7 -308.7)" fill="#010003"/>
      </g>
      <g id="XMLID_226_" transform="translate(205.966 113.809)">
        <path id="XMLID_227_" d="M562.66,305.747H561.2V305.2h3.577v.547h-1.46v4.343h-.62v-4.343Z" transform="translate(-561.2 -305.2)" fill="#010003"/>
      </g>
      <g id="XMLID_221_" transform="translate(209.725 115.195)">
        <path id="XMLID_223_" d="M574.42,311.555a7.344,7.344,0,0,0,.036.949h-.584l-.036-.584h0a1.327,1.327,0,0,1-1.131.657c-.547,0-1.2-.292-1.2-1.533V309h.62v1.934c0,.657.219,1.095.766,1.095a.892.892,0,0,0,.839-.584,1.064,1.064,0,0,0,.073-.328V309h.62v2.555Z" transform="translate(-571.5 -309)" fill="#010003"/>
      </g>
      <g id="XMLID_218_" transform="translate(215.236 113.809)">
        <path id="XMLID_219_" d="M586.6,305.2h2.591v.511H587.22v1.606h1.825v.511H587.22v2.19h-.62V305.2Z" transform="translate(-586.6 -305.2)" fill="#010003"/>
      </g>
      <g id="XMLID_201_" transform="translate(218.119 113.553)">
        <path id="XMLID_215_" d="M596.69,312.313l-.037-.438h-.036a1.246,1.246,0,0,1-1.058.511,1.006,1.006,0,0,1-1.058-1.022c0-.839.73-1.314,2.08-1.314v-.073a.715.715,0,0,0-.8-.8,1.9,1.9,0,0,0-.912.256l-.146-.4a2.176,2.176,0,0,1,1.131-.328c1.059,0,1.314.73,1.314,1.423v1.314a3.131,3.131,0,0,0,.073.839h-.547Zm-.11-1.788c-.693,0-1.46.109-1.46.8a.566.566,0,0,0,.584.62.892.892,0,0,0,.839-.584.463.463,0,0,0,.036-.219Z" transform="translate(-594.5 -307.167)" fill="#010003"/>
        <path id="XMLID_213_" d="M604.636,309.758a7.65,7.65,0,0,0-.036-.949h.547l.036.547h.036a1.2,1.2,0,0,1,1.095-.657,1.032,1.032,0,0,1,.985.693h0a1.555,1.555,0,0,1,.4-.438,1.286,1.286,0,0,1,.766-.255c.474,0,1.131.292,1.131,1.533v2.044h-.62v-1.971c0-.657-.255-1.058-.766-1.058a.778.778,0,0,0-.73.584.907.907,0,0,0-.036.328v2.153h-.621v-2.08c0-.547-.255-.949-.73-.949a.827.827,0,0,0-.766.62,1.012,1.012,0,0,0-.036.328v2.117h-.62v-2.591Z" transform="translate(-600.914 -307.167)" fill="#010003"/>
        <path id="XMLID_210_" d="M621.667,305.6a.383.383,0,0,1-.4.4.375.375,0,0,1-.365-.4.405.405,0,0,1,.4-.4A.375.375,0,0,1,621.667,305.6Zm-.693,4.489v-3.5h.62v3.5Z" transform="translate(-611.265 -304.944)" fill="#010003"/>
        <path id="XMLID_208_" d="M625.7,304.5h.62v5.146h-.62Z" transform="translate(-614.313 -304.5)" fill="#010003"/>
        <path id="XMLID_205_" d="M630.966,305.6a.383.383,0,0,1-.4.4.375.375,0,0,1-.365-.4.4.4,0,0,1,.4-.4A.4.4,0,0,1,630.966,305.6Zm-.73,4.489v-3.5h.62v3.5Z" transform="translate(-617.17 -304.944)" fill="#010003"/>
        <path id="XMLID_202_" d="M636.39,312.313l-.036-.438h-.036a1.246,1.246,0,0,1-1.058.511,1.006,1.006,0,0,1-1.058-1.022c0-.839.73-1.314,2.08-1.314v-.073a.715.715,0,0,0-.8-.8,1.9,1.9,0,0,0-.912.256l-.146-.4a2.176,2.176,0,0,1,1.131-.328c1.058,0,1.314.73,1.314,1.423v1.314a3.131,3.131,0,0,0,.073.839h-.547Zm-.11-1.788c-.693,0-1.46.109-1.46.8a.566.566,0,0,0,.584.62.892.892,0,0,0,.839-.584.464.464,0,0,0,.036-.219Z" transform="translate(-619.71 -307.167)" fill="#010003"/>
      </g>
      <g id="XMLID_179_" transform="translate(178.044 100.961)">
        <path id="XMLID_199_" d="M484.7,278.322v-1.168l1.022-.949c1.752-1.606,2.591-2.518,2.628-3.467a1.163,1.163,0,0,0-1.314-1.2,2.825,2.825,0,0,0-1.715.693l-.547-1.387A4.337,4.337,0,0,1,487.4,270a2.509,2.509,0,0,1,2.81,2.555c0,1.387-.985,2.482-2.153,3.5l-.73.62v.037h3.029v1.569H484.7Z" transform="translate(-484.7 -270)" fill="#7c2946"/>
        <path id="XMLID_196_" d="M509.159,274.26c0,2.518-.985,4.27-3.066,4.27s-2.993-1.9-2.993-4.2c0-2.372.985-4.234,3.066-4.234C508.319,270.063,509.159,272,509.159,274.26ZM505,274.3c0,1.861.438,2.774,1.168,2.774s1.131-.912,1.131-2.774c0-1.825-.365-2.774-1.131-2.774C505.436,271.523,505,272.4,505,274.3Z" transform="translate(-496.384 -270.063)" fill="#7c2946"/>
        <path id="XMLID_194_" d="M525.561,272.015h0l-1.569.73-.292-1.423,2.117-1.022h1.569v8.176h-1.825Z" transform="translate(-509.466 -270.191)" fill="#7c2946"/>
        <path id="XMLID_191_" d="M541.266,276.935a2.9,2.9,0,0,0,.8,0,3.2,3.2,0,0,0,1.569-.511,2.54,2.54,0,0,0,1.022-1.5h-.036a2.151,2.151,0,0,1-1.606.584,2.464,2.464,0,0,1-2.518-2.555A2.961,2.961,0,0,1,543.529,270c2.044,0,3.029,1.606,3.029,3.5a4.942,4.942,0,0,1-1.423,3.759,4.7,4.7,0,0,1-3.066,1.131,6.334,6.334,0,0,1-.839,0v-1.46Zm1.132-4.124a1.164,1.164,0,0,0,1.131,1.314,1.111,1.111,0,0,0,1.022-.547.828.828,0,0,0,.109-.474c0-.876-.328-1.715-1.168-1.715C542.872,271.387,542.4,271.971,542.4,272.81Z" transform="translate(-520.134 -270)" fill="#7c2946"/>
        <path id="XMLID_189_" d="M562.548,282v1.277H559.3V282Z" transform="translate(-532.072 -277.62)" fill="#7c2946"/>
        <path id="XMLID_187_" d="M570.7,278.322v-1.168l1.022-.949c1.752-1.606,2.591-2.518,2.628-3.467a1.163,1.163,0,0,0-1.314-1.2,2.825,2.825,0,0,0-1.715.693l-.547-1.387A4.337,4.337,0,0,1,573.4,270a2.509,2.509,0,0,1,2.81,2.555c0,1.387-.985,2.482-2.153,3.5l-.73.62v.037h3.029v1.569H570.7Z" transform="translate(-539.312 -270)" fill="#7c2946"/>
        <path id="XMLID_184_" d="M595.159,274.26c0,2.518-.985,4.27-3.066,4.27s-2.993-1.9-2.993-4.2c0-2.372.985-4.234,3.066-4.234C594.319,270.063,595.159,272,595.159,274.26ZM591,274.3c0,1.861.438,2.774,1.168,2.774s1.131-.912,1.131-2.774c0-1.825-.365-2.774-1.131-2.774C591.436,271.523,590.961,272.4,591,274.3Z" transform="translate(-550.996 -270.063)" fill="#7c2946"/>
        <path id="XMLID_182_" d="M608.2,278.322v-1.168l1.022-.949c1.752-1.606,2.591-2.518,2.628-3.467a1.163,1.163,0,0,0-1.314-1.2,2.825,2.825,0,0,0-1.715.693l-.547-1.387A4.337,4.337,0,0,1,610.9,270a2.509,2.509,0,0,1,2.81,2.555c0,1.387-.985,2.482-2.153,3.5l-.73.62v.037h3.029v1.569H608.2Z" transform="translate(-563.125 -270)" fill="#7c2946"/>
        <path id="XMLID_180_" d="M630.261,272.015h0l-1.569.73-.292-1.423,2.117-1.022h1.569v8.176h-1.825Z" transform="translate(-575.952 -270.191)" fill="#7c2946"/>
      </g>
    </g>
  </g>
</svg>
