<svg xmlns="http://www.w3.org/2000/svg" width="327" height="327" viewBox="0 0 327 327">
  <g id="icon-directorio-imc" transform="translate(-44 -39)">
    <path id="Trazado_40" data-name="Trazado 40" d="M163.5,0A163.5,163.5,0,1,1,0,163.5,163.5,163.5,0,0,1,163.5,0Z" transform="translate(44 39)" fill="#efb12d"/>
    <g id="Grupo_1" data-name="Grupo 1" transform="translate(149 145.327)">
      <path id="Trazado_1" data-name="Trazado 1" d="M0,0H116.673V116.673H0Z" fill="none"/>
      <path id="Trazado_2" data-name="Trazado 2" d="M84.644,0H16.584a4.861,4.861,0,0,0,0,9.723H84.644a4.861,4.861,0,1,0,0-9.723ZM16.584,116.673H84.644a4.861,4.861,0,1,0,0-9.723H16.584a4.861,4.861,0,1,0,0,9.723ZM89.5,19.446H11.723A9.751,9.751,0,0,0,2,29.168V87.5a9.751,9.751,0,0,0,9.723,9.723H89.5A9.751,9.751,0,0,0,99.228,87.5V29.168A9.751,9.751,0,0,0,89.5,19.446ZM50.614,32.814A10.938,10.938,0,1,1,39.676,43.752,10.955,10.955,0,0,1,50.614,32.814ZM74.921,82.644H26.307V75.351C26.307,67.233,42.5,63.2,50.614,63.2s24.307,4.035,24.307,12.153Z" transform="translate(7.723)" fill="#fff"/>
    </g>
  </g>
</svg>
