<svg xmlns="http://www.w3.org/2000/svg" width="327" height="327" viewBox="0 0 327 327">
  <g id="icon-oda" transform="translate(-2482 -417)">
    <circle id="Elipse_4" data-name="Elipse 4" cx="163.5" cy="163.5" r="163.5" transform="translate(2482 417)" fill="#f4f4f4"/>
    <g id="logo-odapaz-oda" transform="translate(2513.92 518.612)">
      <path id="XMLID_44_" d="M174.112,78.2a51.266,51.266,0,0,0-5.617-16.582l-.027-.027-.027-.027c-4.105-8.156-13.26-17.365-13.314-17.446-16.663-15.853-20.039-31.895-20.093-42.1V1.551c-.054-.324-.324-.432-.54.054a2.814,2.814,0,0,0-.135.324,48.049,48.049,0,0,0-3.4,22.956v.054c1,18.392,13.827,33.974,13.962,34.136,0,0,14.395,16.312,16.42,25.548,1.593,5.914-.783,12.072-4.159,15.691,0,0-9.317,10.182-21.416,3.079-4.267-2.512,5.4,5.158,8.453,6A32.3,32.3,0,0,0,152.4,110.5c6.86-.432,10.182-3.052,10.182-3.052l.054-.027c9.4-7.13,13.26-16.96,11.478-29.221" transform="translate(-93.166)" fill="#76b2db"/>
      <path id="XMLID_43_" d="M4.651,262.748h0c.027.108,0,.243.027.351A39.109,39.109,0,0,0,80.3,276.008c.081-.243.189-.486.27-.756a38.4,38.4,0,0,1-1.863,6.59A39.109,39.109,0,0,1,3.085,268.933v-.351h0A39.314,39.314,0,0,1,5.354,254.7a37.671,37.671,0,0,0-.7,8.048" transform="translate(0 -184.984)" fill="#76b2db"/>
      <path id="XMLID_42_" d="M84.869,226.228c-.081.243-.189.486-.27.756-.378,1-.81,1.971-1.269,2.944A39.181,39.181,0,0,1,47.086,252.1,39.252,39.252,0,0,1,8.98,214.048V213.7h0a39.5,39.5,0,0,1,.675-8.048,41.57,41.57,0,0,1,1.944-4.483A38.843,38.843,0,0,1,22.4,188.04c.243-.189.486-.378.729-.54A41.33,41.33,0,0,0,20,192.631a44.037,44.037,0,0,0-1.944,4.483,39.5,39.5,0,0,0-.675,8.048h0v.351a39.209,39.209,0,0,0,38.106,38.025c3.916.108,11.208-1.377,11.208-1.377a27.117,27.117,0,0,0,16.1-11.91c.81-1.3,2.08-4.078,2.08-4.024" transform="translate(-4.302 -135.933)" fill="#4a72b0"/>
      <path id="XMLID_41_" d="M40.655,181.083A41.566,41.566,0,0,1,42.6,176.6a39.435,39.435,0,0,1,3.133-5.131,38.5,38.5,0,0,1,11.154-5.806,3.972,3.972,0,0,1,1.134-.162c.162,0,.324.027.513.027A35.171,35.171,0,0,0,81.786,227.1c.945,0,1.863-.054,2.809-.135a41.3,41.3,0,0,1-6.482.567A39.3,39.3,0,0,1,39.98,189.455V189.1h0a39.4,39.4,0,0,1,.675-8.021" transform="translate(-26.929 -119.874)" fill="#4a72b0"/>
      <path id="XMLID_40_" d="M64.5,191.786A35.04,35.04,0,0,1,76.437,165.4a16.237,16.237,0,0,1,14.125,9.182A16.825,16.825,0,0,1,91.7,177.8a18.737,18.737,0,0,1,.405,2.512c.027.432.054.864.054,1.3,0,.378-.027.729-.027,1.08a18.235,18.235,0,0,1-.783,4.051,10.464,10.464,0,0,1-2.3,3.835c-1.107.837-2.053,1.593-2.809,2.269a17.6,17.6,0,0,0-2.836,2.836,1.176,1.176,0,0,1-.162.189c-.135.189-.243.3-.3.378a20,20,0,0,0-2.134,3.592c-.162.324-.3.675-.432,1.026a18.8,18.8,0,0,0-1.269,6.887,18.994,18.994,0,0,0,4.753,12.612,23.865,23.865,0,0,0,15.259,6.536h.189c.243,0,.486.027.729.027h.324c.405,0,.837,0,1.242-.027l1.188-.081c-.081,0-.162.027-.216.027-.918.081-1.863.135-2.782.135a35.2,35.2,0,0,1-35.3-35.19" transform="translate(-44.833 -119.801)" fill="#205184"/>
      <path id="XMLID_95_" d="M341.127,158.114A14.314,14.314,0,1,1,326.814,143.8a14.3,14.3,0,0,1,14.314,14.314m-8.318,0a6,6,0,1,0-6,6,5.982,5.982,0,0,0,6-6" transform="translate(-225.856 -104.035)" fill="#434142"/>
      <path id="XMLID_92_" d="M457.066,158.041a14.337,14.337,0,0,1-13.422,14.314H429.6V143.7h14.043a14.382,14.382,0,0,1,13.422,14.341m-8.345,0a6.015,6.015,0,0,0-5.077-5.941h-5.671v11.883h5.671a6.039,6.039,0,0,0,5.077-5.941" transform="translate(-311.331 -103.962)" fill="#434142"/>
      <path id="XMLID_89_" d="M558.042,172.427H549.67L548.13,168.3H537.111l-1.539,4.132H527.2L537.868,143.8h9.506Zm-12.369-10.722-3.052-8.183-3.052,8.183Z" transform="translate(-382.573 -104.035)" fill="#434142"/>
      <path id="XMLID_86_" d="M677.632,153.855a10.112,10.112,0,0,1-2.7,6.941,10.592,10.592,0,0,1-7.616,3.187h-6.644v8.372H652.3V143.7h14.989a10.485,10.485,0,0,1,7.616,3.187,10.079,10.079,0,0,1,2.728,6.968m-7.616,0c0-.756-.27-2.539-2.89-2.539h-6.455v5.077h6.455c2.62-.027,2.89-1.782,2.89-2.539" transform="translate(-473.887 -103.962)" fill="#434142"/>
      <path id="XMLID_83_" d="M766.742,172.427H758.37L756.83,168.3H745.811l-1.539,4.132H735.9L746.568,143.8h9.506Zm-12.369-10.722-3.052-8.183-3.052,8.183Z" transform="translate(-534.91 -104.035)" fill="#434142"/>
      <path id="XMLID_29_" d="M886.27,151.146l-13.5,13.881h13.5v7.346H861.1v-7.346l13.5-13.881H861.1V143.8h25.17Z" transform="translate(-626.297 -104.035)" fill="#434142"/>
      <path id="XMLID_28_" d="M432.5,349.857l7.913-11.37v-.081h-7.157V335.3h12.018v2.161l-7.724,11.208v.108h7.832v3.106H432.5Z" transform="translate(-313.448 -243.817)" fill="#434142"/>
      <path id="XMLID_27_" d="M493.8,360.356c0,1.566.054,2.863.108,3.862h-3.241l-.162-1.7h-.108a4.285,4.285,0,0,1-3.754,1.971c-2.431,0-4.24-1.512-4.24-5.239V352.2h3.754v6.482c0,1.755.567,2.809,1.863,2.809a2,2,0,0,0,1.863-1.3,1.893,1.893,0,0,0,.135-.81v-7.157h3.754v8.129Z" transform="translate(-349.872 -256.153)" fill="#434142"/>
      <path id="XMLID_26_" d="M530.508,355.3c0-1.512-.054-2.782-.108-3.835h3.16l.162,1.62h.081a4.171,4.171,0,0,1,3.646-1.89,3.4,3.4,0,0,1,3.295,2.053h.054a5.237,5.237,0,0,1,1.539-1.458,4.278,4.278,0,0,1,2.3-.594c2.323,0,4.051,1.62,4.051,5.212v7.076h-3.646v-6.536c0-1.755-.567-2.755-1.782-2.755a1.84,1.84,0,0,0-1.728,1.3,2.921,2.921,0,0,0-.135.972v7.022h-3.646v-6.725c0-1.512-.54-2.566-1.728-2.566a1.944,1.944,0,0,0-1.755,1.35,2.3,2.3,0,0,0-.135.945v7.022h-3.646V355.3Z" transform="translate(-384.909 -255.423)" fill="#434142"/>
      <path id="XMLID_76_" d="M603.908,355.494c0-1.566-.054-2.917-.108-4.024h3.241l.162,1.674h.054a4.646,4.646,0,0,1,4-1.944c2.62,0,5,2.3,5,6.13,0,4.375-2.782,6.455-5.455,6.455a3.754,3.754,0,0,1-3.133-1.377h-.027v5.969h-3.727Zm3.727,2.836a3.321,3.321,0,0,0,.081.783A2.28,2.28,0,0,0,609.9,360.9c1.62,0,2.593-1.35,2.593-3.4,0-1.917-.864-3.376-2.539-3.376a2.349,2.349,0,0,0-2.242,1.89,2.568,2.568,0,0,0-.081.675Z" transform="translate(-438.486 -255.423)" fill="#434142"/>
      <path id="XMLID_73_" d="M658.416,363.561l-.216-1.215h-.081a4.383,4.383,0,0,1-3.43,1.485,3.7,3.7,0,0,1-3.889-3.7c0-3.133,2.809-4.618,7.049-4.591v-.162c0-.648-.351-1.539-2.187-1.539a6.507,6.507,0,0,0-3.322.918l-.675-2.4a10.044,10.044,0,0,1,4.672-1.053c4,0,5.293,2.35,5.293,5.185v4.186a20.519,20.519,0,0,0,.162,2.917h-3.376Zm-.432-5.7c-1.971-.027-3.484.432-3.484,1.89a1.36,1.36,0,0,0,1.485,1.431,2.039,2.039,0,0,0,1.945-1.377,2.366,2.366,0,0,0,.081-.648v-1.3Z" transform="translate(-472.792 -255.496)" fill="#434142"/>
      <path id="XMLID_21_" d="M696.608,355.3c0-1.512-.054-2.782-.108-3.835h3.241l.162,1.647h.081a4.411,4.411,0,0,1,3.7-1.917c2.458,0,4.294,1.62,4.294,5.158v7.13h-3.727v-6.671c0-1.539-.54-2.62-1.89-2.62a1.98,1.98,0,0,0-1.891,1.4,2.416,2.416,0,0,0-.135.945v6.941h-3.727Z" transform="translate(-506.15 -255.423)" fill="#434142"/>
      <path id="XMLID_69_" d="M754.88,351.47c-.054.756-.108,1.782-.108,3.565v6.725c0,2.323-.459,4.213-1.809,5.4a7.411,7.411,0,0,1-4.888,1.485,9.28,9.28,0,0,1-4.321-.945l.729-2.836a7.447,7.447,0,0,0,3.484.918,2.874,2.874,0,0,0,3.133-3.16v-.783h-.054a3.838,3.838,0,0,1-3.241,1.566c-2.971,0-5.1-2.4-5.1-5.887,0-3.862,2.512-6.32,5.455-6.32a3.6,3.6,0,0,1,3.295,1.7h.054l.135-1.431Zm-3.835,4.888a2.944,2.944,0,0,0-.081-.7,2.054,2.054,0,0,0-2.026-1.647c-1.35,0-2.458,1.242-2.458,3.43,0,1.782.891,3.187,2.458,3.187a2.057,2.057,0,0,0,1.971-1.512,2.92,2.92,0,0,0,.135-.972Z" transform="translate(-539.873 -255.423)" fill="#434142"/>
      <path id="XMLID_66_" d="M803.658,357.33a6.046,6.046,0,0,1-6.347,6.428,5.888,5.888,0,0,1-6.212-6.185c0-3.889,2.566-6.374,6.428-6.374a5.812,5.812,0,0,1,6.13,6.131m-8.7.135c0,2.053.864,3.619,2.458,3.619,1.458,0,2.377-1.458,2.377-3.619,0-1.782-.675-3.619-2.377-3.619-1.81,0-2.458,1.836-2.458,3.619" transform="translate(-575.202 -255.422)" fill="#434142"/>
      <path id="XMLID_63_" d="M533.727,285.81a3.641,3.641,0,0,0,.648-.216,3.814,3.814,0,0,1,2.269-.108c1.485.351,1.836,1.134,2.242,1.215a3.876,3.876,0,0,1,2.566-1.3,4.484,4.484,0,0,1,2.079.81,2.068,2.068,0,0,1,.243.243.588.588,0,0,1,.108.135.474.474,0,0,0,.108.135,1.729,1.729,0,0,0,.513-.351,3.742,3.742,0,0,1,1.728-.864,3.623,3.623,0,0,1,2.269.108c.162.054.513.189.648.216V274.981c-.648-.108-.729.27-.891-.513a1.79,1.79,0,0,1-.7-.216c-.459-.351-.162-.621-1.674-1.053v-.81c0-.054-.513-.243-.567-.27a1.637,1.637,0,0,1-.7-.513,1.351,1.351,0,0,0-.216-.189,3.8,3.8,0,0,0-2.187-1.053,5.976,5.976,0,0,0-.675-.135c-.027-1.08-.027-2.188-.027-3.268,0-.216,0-2.863-.027-3.025-.027-.108-.027-.108-.081-.135-.162.108-.108.513-.108.729v2.431c0,1.08,0,2.161-.027,3.241-.054.027-1.107.243-1.323.3a3.692,3.692,0,0,0-1.512.891,2.8,2.8,0,0,0-.405.405,7.125,7.125,0,0,1-1.053.567v.837a2.947,2.947,0,0,0-1.242.567c-.27.27-.216.486-.756.621-.324.108-.378,0-.405.162a.848.848,0,0,1-.162.432,2.873,2.873,0,0,0-.7.027v5.05c.027,1.891,0,3.835.027,5.752m7.373-13.287a2.225,2.225,0,0,1,.648,4.4,1.968,1.968,0,0,1-.972-.081,2.052,2.052,0,0,1-1.539-1.782,2.144,2.144,0,0,1,1.863-2.539" transform="translate(-387.318 -191.627)" fill="#7f181e" fill-rule="evenodd"/>
      <path id="XMLID_14_" d="M661.2,430.59v-.918l.837-.756c1.4-1.269,2.107-2,2.107-2.755,0-.54-.324-.945-1.053-.945a2.2,2.2,0,0,0-1.377.54l-.432-1.08a3.5,3.5,0,0,1,2.107-.675,2.016,2.016,0,0,1,2.268,2.025,4,4,0,0,1-1.728,2.782l-.594.486v.027h2.431v1.242H661.2Z" transform="translate(-480.384 -308.562)" fill="#7f181e"/>
      <path id="XMLID_59_" d="M686.161,427.395c0,2-.81,3.376-2.458,3.376-1.674,0-2.4-1.512-2.4-3.322,0-1.863.783-3.349,2.458-3.349,1.728,0,2.4,1.539,2.4,3.295m-3.349.054c0,1.485.351,2.188.945,2.188s.891-.729.891-2.215c0-1.431-.3-2.188-.918-2.188-.567,0-.945.7-.918,2.215" transform="translate(-495.056 -308.635)" fill="#7f181e"/>
      <path id="XMLID_11_" d="M705.185,425.823h-.027l-1.215.594-.243-1.134,1.7-.783h1.242v6.455h-1.458Z" transform="translate(-511.406 -308.927)" fill="#7f181e"/>
      <path id="XMLID_55_" d="M722.621,429.582a2.559,2.559,0,0,0,.648,0,2.524,2.524,0,0,0,1.269-.405,2.025,2.025,0,0,0,.81-1.188h-.027a1.719,1.719,0,0,1-1.3.459A1.956,1.956,0,0,1,722,426.423a2.348,2.348,0,0,1,2.431-2.323c1.674,0,2.458,1.269,2.458,2.782a3.857,3.857,0,0,1-1.134,2.971,3.689,3.689,0,0,1-2.458.891,5.549,5.549,0,0,1-.675,0v-1.161Zm.918-3.241a.909.909,0,0,0,.918,1.026.927.927,0,0,0,.837-.432.654.654,0,0,0,.081-.378c0-.675-.27-1.377-.945-1.377a1,1,0,0,0-.891,1.161" transform="translate(-524.764 -308.635)" fill="#7f181e"/>
      <rect id="XMLID_8_" width="2.593" height="0.999" transform="translate(202.773 118.922)" fill="#7f181e"/>
      <path id="XMLID_7_" d="M754.9,430.59v-.918l.837-.756c1.4-1.269,2.106-2,2.106-2.755,0-.54-.324-.945-1.053-.945a2.2,2.2,0,0,0-1.377.54l-.432-1.08a3.5,3.5,0,0,1,2.106-.675,2.016,2.016,0,0,1,2.269,2.025,4,4,0,0,1-1.728,2.782l-.594.486v.027h2.431v1.242H754.9Z" transform="translate(-548.779 -308.562)" fill="#7f181e"/>
      <path id="XMLID_50_" d="M779.861,427.395c0,2-.81,3.376-2.458,3.376-1.674,0-2.4-1.512-2.4-3.322,0-1.863.783-3.349,2.458-3.349,1.728,0,2.4,1.539,2.4,3.295m-3.349.054c0,1.485.351,2.188.945,2.188s.891-.729.891-2.215c0-1.431-.3-2.188-.918-2.188-.567,0-.945.7-.918,2.215" transform="translate(-563.45 -308.635)" fill="#7f181e"/>
      <path id="XMLID_4_" d="M795.8,430.59v-.918l.837-.756c1.4-1.269,2.107-2,2.107-2.755,0-.54-.324-.945-1.053-.945a2.2,2.2,0,0,0-1.377.54l-.432-1.08a3.5,3.5,0,0,1,2.107-.675,2.016,2.016,0,0,1,2.269,2.025,4,4,0,0,1-1.728,2.782l-.594.486v.027h2.431v1.242H795.8Z" transform="translate(-578.633 -308.562)" fill="#7f181e"/>
      <path id="XMLID_3_" d="M819.312,425.823h-.027l-1.242.594-.243-1.134,1.7-.783h1.269v6.455h-1.458Z" transform="translate(-594.691 -308.927)" fill="#7f181e"/>
      <rect id="XMLID_2_" width="52.798" height="1.647" transform="translate(86.671 85.38)" fill="#7f181e"/>
      <rect id="XMLID_1_" width="90.797" height="1.647" transform="translate(169.068 85.38)" fill="#7f181e"/>
    </g>
  </g>
</svg>
