<?xml version="1.0" encoding="utf-8"?>
<!-- Generator: Adobe Illustrator 19.0.0, SVG Export Plug-In . SVG Version: 6.00 Build 0)  -->
<svg version="1.1" id="Capa_1" xmlns="http://www.w3.org/2000/svg" xmlns:xlink="http://www.w3.org/1999/xlink" x="0px" y="0px"
	 viewBox="0 0 960 464.6" style="enable-background:new 0 0 960 464.6;" xml:space="preserve">
<style type="text/css">
	.st0{fill:#76B2DB;}
	.st1{fill:#4A72B0;}
	.st2{fill:#205184;}
	.st3{fill:#434142;}
	.st4{fill-rule:evenodd;clip-rule:evenodd;fill:#7F181E;}
	.st5{fill:#7F181E;}
</style>
<path id="XMLID_44_" class="st0" d="M291.4,286.1c-5-34.3-20.7-61.2-20.8-61.4l-0.1-0.1l-0.1-0.1c-15.2-30.2-49.1-64.3-49.3-64.6
	C159.4,101.2,146.9,41.8,146.7,4c0-0.3,0-0.6,0-1c0,0,0,0.2,0-0.7c-0.2-1.2-1.2-1.6-2,0.2c-0.5,1.1-0.1,0.2-0.5,1.2
	c-18.3,43.7-12.7,84.6-12.6,85l0,0.2c3.7,68.1,51.2,125.8,51.7,126.4c0,0,53.3,60.4,60.8,94.6c5.9,21.9-2.9,44.7-15.4,58.1
	c0,0-34.5,37.7-79.3,11.4c-15.8-9.3,20,19.1,31.3,22.2c9.6,2.6,20.4,4.1,30.3,4.1c25.4-1.6,37.7-11.3,37.7-11.3l0.2-0.1
	C283.7,367.9,298,331.5,291.4,286.1"/>
<path id="XMLID_43_" class="st0" d="M8.9,284.5L8.9,284.5c0.1,0.4,0,0.9,0.1,1.3c2,76.6,64.4,138.9,141.1,140.8
	c63.3,1.6,117.7-37.5,138.9-93c0.3-0.9,0.7-1.8,1-2.8c-1.6,8.4-3.9,16.6-6.9,24.4c-21.2,55.5-75.6,94.6-138.9,93
	C67.5,446.4,5.1,384,3.1,307.4c0-0.4,0-0.9,0-1.3h0c-0.3-18.1,2.7-35.4,8.4-51.4C9.6,264.3,8.7,274.3,8.9,284.5"/>
<path id="XMLID_42_" class="st1" d="M290,330.9c-0.3,0.9-0.7,1.8-1,2.8c-1.4,3.7-3,7.3-4.7,10.9c-3.7,7.7-8.1,15.1-13.1,22
	c-26.9,37.4-71.3,61.4-121.1,60.1C73.4,424.7,11,362.4,9,285.8c0-0.4,0-0.9,0-1.3h0c-0.2-10.2,0.7-20.2,2.5-29.8
	c2.1-5.7,4.5-11.3,7.2-16.6c9.6-19,23.3-35.6,40-48.6c0.9-0.7,1.8-1.4,2.7-2c-4.3,6-8.2,12.4-11.6,19c-2.7,5.4-5.1,10.9-7.2,16.6
	c-1.8,9.6-2.7,19.6-2.5,29.8h0c0,0.4,0,0.9,0,1.3c2,76.6,64.4,138.9,141.1,140.8c14.5,0.4,41.5-5.1,41.5-5.1
	c25.1-6.6,46.3-22.7,59.6-44.1C285.3,341,290,330.7,290,330.9"/>
<path id="XMLID_41_" class="st1" d="M42.5,223.2c2.1-5.7,4.5-11.3,7.2-16.6c3.4-6.7,7.3-13,11.6-19c12.4-9.3,26.3-16.6,41.3-21.5
	c1.3-0.4,2.8-0.6,4.2-0.6c0.6,0,1.2,0.1,1.9,0.1c-27.1,23.9-44.2,58.8-44.2,97.7c0,72,58.3,130.3,130.3,130.3
	c3.5,0,6.9-0.2,10.4-0.5c-8.1,1.2-17.4,2.3-24,2.1C104.5,393.2,42.1,330.9,40,254.2c0-0.4,0-0.9,0-1.3h0
	C39.8,242.8,40.7,232.8,42.5,223.2"/>
<path id="XMLID_40_" class="st2" d="M64.5,263.1c0-38.9,17.1-73.9,44.2-97.7c23.1,0.7,42.8,14.4,52.3,34c1.8,3.8,3.2,7.8,4.2,11.9
	c0.7,3,1.2,6.1,1.5,9.3c0.1,1.6,0.2,3.2,0.2,4.8c0,1.4-0.1,2.7-0.1,4c-0.4,5.2-1.4,10.2-2.9,15c-1.8,5.3-4.7,10.2-8.5,14.2
	c-4.1,3.1-7.6,5.9-10.4,8.4c-3.9,3.1-7.4,6.6-10.5,10.5c-0.2,0.3-0.4,0.5-0.6,0.7c-0.5,0.7-0.9,1.1-1.1,1.4
	c-3.1,4.1-5.7,8.6-7.9,13.3c-0.6,1.2-1.1,2.5-1.6,3.8c-3.1,7.9-4.7,16.5-4.7,25.5c0,17.9,6.6,34.2,17.6,46.7
	c14.9,14.1,34.6,23.1,56.5,24.2c0.2,0,0.5,0,0.7,0c0.9,0,1.8,0.1,2.7,0.1c0.4,0,0.8,0,1.2,0c1.5,0,3.1,0,4.6-0.1
	c1.5-0.1,2.9-0.2,4.4-0.3c-0.3,0-0.6,0.1-0.8,0.1c-3.4,0.3-6.9,0.5-10.3,0.5C122.8,393.4,64.5,335.1,64.5,263.1"/>
<path id="XMLID_95_" class="st3" d="M418.5,196.8c0,29.3-23.7,53-53,53c-29.3,0-53-23.7-53-53c0-29.3,23.7-53,53-53
	C394.8,143.8,418.5,167.5,418.5,196.8 M387.7,196.8c0-12.3-9.9-22.2-22.2-22.2c-12.3,0-22.2,9.9-22.2,22.2
	c0,12.3,9.9,22.2,22.2,22.2C377.7,219,387.7,209.1,387.7,196.8"/>
<path id="XMLID_92_" class="st3" d="M531.3,196.8c0,28.2-21.9,51.2-49.7,53h-52V143.7h52v0C509.3,145.5,531.3,168.6,531.3,196.8
	 M500.4,196.8c0-11.1-8.1-20.3-18.8-22l-21,0v44h21C492.2,217.1,500.4,207.9,500.4,196.8"/>
<path id="XMLID_89_" class="st3" d="M641.4,249.8h-31l-5.7-15.3h-40.8l-5.7,15.3h-31l39.5-106h35.2L641.4,249.8z M595.6,210.1
	l-11.3-30.3L573,210.1H595.6z"/>
<path id="XMLID_86_" class="st3" d="M746.1,181.3c0,9.7-3.6,18.9-10,25.7c-7,7.4-17,11.6-28.2,11.8l-24.6,0v31h-31V143.7h55.5v0
	c11.2,0.2,21.2,4.3,28.2,11.8C742.5,162.4,746.1,171.5,746.1,181.3 M717.9,181.3c0-2.8-1-9.4-10.7-9.4l-23.9,0v18.8h23.9
	C716.9,190.6,717.9,184.1,717.9,181.3"/>
<path id="XMLID_83_" class="st3" d="M850.1,249.8h-31l-5.7-15.3h-40.8l-5.7,15.3h-31l39.5-106h35.2L850.1,249.8z M804.3,210.1
	L793,179.8l-11.3,30.3H804.3z"/>
<polygon id="XMLID_29_" class="st3" points="954.3,171 904.3,222.4 954.3,222.4 954.3,249.6 861.1,249.6 861.1,222.4 911.1,171 
	861.1,171 861.1,143.8 954.3,143.8 "/>
<polygon id="XMLID_28_" class="st3" points="432.5,389.2 461.8,347.1 461.8,346.8 435.3,346.8 435.3,335.3 479.8,335.3 479.8,343.3 
	451.2,384.8 451.2,385.2 480.2,385.2 480.2,396.7 432.5,396.7 "/>
<path id="XMLID_27_" class="st3" d="M524.6,382.4c0,5.8,0.2,10.6,0.4,14.3h-12l-0.6-6.3H512c-1.7,2.7-5.9,7.3-13.9,7.3
	c-9,0-15.7-5.6-15.7-19.4v-26.1h13.9v24c0,6.5,2.1,10.4,6.9,10.4c3.8,0,6-2.6,6.9-4.8c0.4-0.8,0.5-1.9,0.5-3v-26.5h13.9V382.4z"/>
<path id="XMLID_26_" class="st3" d="M530.8,366.4c0-5.6-0.2-10.3-0.4-14.2h11.7l0.6,6h0.3c1.9-2.8,5.8-7,13.5-7
	c5.7,0,10.3,2.9,12.2,7.6h0.2c1.6-2.3,3.6-4.1,5.7-5.4c2.5-1.5,5.2-2.2,8.5-2.2c8.6,0,15,6,15,19.3v26.2h-13.5v-24.2
	c0-6.5-2.1-10.2-6.6-10.2c-3.2,0-5.5,2.2-6.4,4.8c-0.4,1-0.5,2.5-0.5,3.6v26h-13.5v-24.9c0-5.6-2-9.5-6.4-9.5c-3.5,0-5.6,2.7-6.5,5
	c-0.5,1.1-0.5,2.4-0.5,3.5v26h-13.5V366.4z"/>
<path id="XMLID_76_" class="st3" d="M604.2,367.1c0-5.8-0.2-10.8-0.4-14.9h12l0.6,6.2h0.2c3.3-4.7,8.4-7.2,14.8-7.2
	c9.7,0,18.5,8.5,18.5,22.7c0,16.2-10.3,23.9-20.2,23.9c-5.4,0-9.6-2.2-11.6-5.1H618v22.1h-13.8V367.1z M618,377.6
	c0,1.1,0.1,2.1,0.3,2.9c0.9,3.7,4.1,6.6,8.1,6.6c6,0,9.6-5,9.6-12.6c0-7.1-3.2-12.5-9.4-12.5c-3.9,0-7.4,2.9-8.3,7
	c-0.2,0.7-0.3,1.6-0.3,2.5V377.6z"/>
<path id="XMLID_73_" class="st3" d="M679,396.7l-0.8-4.5h-0.3c-2.9,3.5-7.5,5.5-12.7,5.5c-9,0-14.4-6.6-14.4-13.7
	c0-11.6,10.4-17.1,26.1-17v-0.6c0-2.4-1.3-5.7-8.1-5.7c-4.6,0-9.4,1.5-12.3,3.4l-2.5-8.9c3.1-1.7,9.2-3.9,17.3-3.9
	c14.8,0,19.6,8.7,19.6,19.2v15.5c0,4.3,0.2,8.4,0.6,10.8H679z M677.4,375.6c-7.3-0.1-12.9,1.6-12.9,7c0,3.5,2.4,5.3,5.5,5.3
	c3.5,0,6.3-2.3,7.2-5.1c0.2-0.7,0.3-1.5,0.3-2.4V375.6z"/>
<path id="XMLID_21_" class="st3" d="M696.9,366.4c0-5.6-0.2-10.3-0.4-14.2h12l0.6,6.1h0.3c1.8-2.8,6.4-7.1,13.7-7.1
	c9.1,0,15.9,6,15.9,19.1v26.4h-13.8V372c0-5.7-2-9.7-7-9.7c-3.8,0-6.1,2.6-7,5.2c-0.4,0.8-0.5,2.2-0.5,3.5v25.7h-13.8V366.4z"/>
<path id="XMLID_69_" class="st3" d="M787.8,352.2c-0.2,2.8-0.4,6.6-0.4,13.2v24.9c0,8.6-1.7,15.6-6.7,20c-4.9,4.2-11.6,5.5-18.1,5.5
	c-5.8,0-12-1.2-16-3.5l2.7-10.5c2.8,1.6,7.7,3.4,12.9,3.4c6.6,0,11.6-3.6,11.6-11.7v-2.9h-0.2c-2.6,3.7-6.9,5.8-12,5.8
	c-11,0-18.9-8.9-18.9-21.8c0-14.3,9.3-23.4,20.2-23.4c6.1,0,9.9,2.6,12.2,6.3h0.2l0.5-5.3H787.8z M773.6,370.3
	c0-0.9-0.1-1.8-0.3-2.6c-1-3.6-3.6-6.1-7.5-6.1c-5,0-9.1,4.6-9.1,12.7c0,6.6,3.3,11.8,9.1,11.8c3.5,0,6.4-2.4,7.3-5.6
	c0.4-1,0.5-2.5,0.5-3.6V370.3z"/>
<path id="XMLID_66_" class="st3" d="M837.6,373.9c0,16.3-11.6,23.8-23.5,23.8c-13,0-23-8.6-23-22.9c0-14.4,9.5-23.6,23.8-23.6
	C828.5,351.1,837.6,360.5,837.6,373.9 M805.4,374.4c0,7.6,3.2,13.4,9.1,13.4c5.4,0,8.8-5.4,8.8-13.4c0-6.6-2.5-13.4-8.8-13.4
	C807.8,361,805.4,367.8,805.4,374.4"/>
<path id="XMLID_63_" class="st4" d="M533.8,345.3c0.3,0,2-0.6,2.4-0.8c3.1-1,5.1-1.1,8.4-0.4c5.5,1.3,6.8,4.2,8.3,4.5
	c1.1-2.4,7.1-4.8,9.5-4.8c2.1,0.1,6.1,1.6,7.7,3c0.3,0.3,0.7,0.6,0.9,0.9c0.1,0.1,0.3,0.3,0.4,0.5c0.1,0.2,0.2,0.3,0.4,0.5
	c0.7-0.2,1.4-0.9,1.9-1.3c1.9-1.6,3.7-2.6,6.4-3.2c3.1-0.8,5.4-0.6,8.4,0.4c0.6,0.2,1.9,0.7,2.4,0.8v-40.2c-2.4-0.4-2.7,1-3.3-1.9
	c-0.9-0.2-2-0.3-2.6-0.8c-1.7-1.3-0.6-2.3-6.2-3.9l0-3c0-0.2-1.9-0.9-2.1-1c-1.7-0.8-1.6-0.9-2.6-1.9c-0.3-0.3-0.5-0.5-0.8-0.7
	c-2.9-2.5-4.2-3.1-8.1-3.9c-0.9-0.2-1.6-0.4-2.5-0.5c-0.1-4-0.1-8.1-0.1-12.1c0-0.8,0-10.6-0.1-11.2c-0.1-0.4-0.1-0.4-0.3-0.5
	c-0.6,0.4-0.4,1.9-0.4,2.7l0,9c0,4,0,8-0.1,12c-0.2,0.1-4.1,0.9-4.9,1.1c-2.3,0.6-4,1.9-5.6,3.3c-1.1,0.9-0.8,0.8-1.5,1.5
	c-1.1,1-3.4,1.7-3.9,2.1l0,3.1c-1.8,0.4-3.6,1.2-4.6,2.1c-1,1-0.8,1.8-2.8,2.3c-1.2,0.4-1.4,0-1.5,0.6c-0.2,0.9-0.1,0.8-0.6,1.6
	c-0.3,0-2.6-0.1-2.6,0.1l0,18.7C533.8,331,533.7,338.2,533.8,345.3 M561.1,296.1c4.3-0.6,8.7,2.1,9.3,7c0.6,5.2-2.6,8.6-6.9,9.3
	c-1.3,0.2-2.4,0.1-3.6-0.3c-3-0.9-5.3-3.1-5.7-6.6C553.6,300.8,556.2,296.8,561.1,296.1"/>
<path id="XMLID_14_" class="st5" d="M661.2,448.4V445l3.1-2.8c5.2-4.7,7.8-7.4,7.8-10.2c0-2-1.2-3.5-3.9-3.5c-2.1,0-3.9,1-5.1,2
	l-1.6-4c1.8-1.4,4.6-2.5,7.8-2.5c5.4,0,8.4,3.2,8.4,7.5c0,4-2.9,7.2-6.4,10.3l-2.2,1.8v0.1h9v4.6H661.2z"/>
<path id="XMLID_59_" class="st5" d="M699.3,436.3c0,7.4-3,12.5-9.1,12.5c-6.2,0-8.9-5.6-8.9-12.3c0-6.9,2.9-12.4,9.1-12.4
	C696.8,424.1,699.3,429.8,699.3,436.3 M686.9,436.5c0,5.5,1.3,8.1,3.5,8.1s3.3-2.7,3.3-8.2c0-5.3-1.1-8.1-3.4-8.1
	C688.2,428.3,686.8,430.9,686.9,436.5"/>
<polygon id="XMLID_11_" class="st5" points="709.2,429.4 709.1,429.4 704.6,431.6 703.7,427.4 710,424.5 714.6,424.5 714.6,448.4 
	709.2,448.4 "/>
<path id="XMLID_55_" class="st5" d="M724.3,444.4c0.7,0.1,1.3,0.1,2.4,0c1.7-0.1,3.4-0.6,4.7-1.5c1.5-1.1,2.6-2.6,3-4.4l-0.1,0
	c-1.1,1.1-2.6,1.7-4.8,1.7c-4,0-7.5-2.8-7.5-7.5c0-4.7,3.8-8.6,9-8.6c6.2,0,9.1,4.7,9.1,10.3c0,5-1.6,8.6-4.2,11
	c-2.3,2.1-5.4,3.2-9.1,3.3c-1,0.1-1.9,0-2.5,0V444.4z M727.7,432.4c0,2.1,1.1,3.8,3.4,3.8c1.5,0,2.6-0.7,3.1-1.6
	c0.2-0.3,0.3-0.7,0.3-1.4c0-2.5-1-5.1-3.5-5.1C729.1,428.2,727.6,429.8,727.7,432.4"/>
<rect id="XMLID_8_" x="742.5" y="436.9" class="st5" width="9.6" height="3.7"/>
<path id="XMLID_7_" class="st5" d="M754.9,448.4V445l3.1-2.8c5.2-4.7,7.8-7.4,7.8-10.2c0-2-1.2-3.5-3.9-3.5c-2.1,0-3.9,1-5.1,2
	l-1.6-4c1.8-1.4,4.6-2.5,7.8-2.5c5.4,0,8.4,3.2,8.4,7.5c0,4-2.9,7.2-6.4,10.3l-2.2,1.8v0.1h9v4.6H754.9z"/>
<path id="XMLID_50_" class="st5" d="M793,436.3c0,7.4-3,12.5-9.1,12.5c-6.2,0-8.9-5.6-8.9-12.3c0-6.9,2.9-12.4,9.1-12.4
	C790.5,424.1,793,429.8,793,436.3 M780.6,436.5c0,5.5,1.3,8.1,3.5,8.1s3.3-2.7,3.3-8.2c0-5.3-1.1-8.1-3.4-8.1
	C781.9,428.3,780.5,430.9,780.6,436.5"/>
<path id="XMLID_4_" class="st5" d="M795.8,448.4V445l3.1-2.8c5.2-4.7,7.8-7.4,7.8-10.2c0-2-1.2-3.5-3.9-3.5c-2.1,0-3.9,1-5.1,2
	l-1.6-4c1.8-1.4,4.6-2.5,7.8-2.5c5.4,0,8.4,3.2,8.4,7.5c0,4-2.9,7.2-6.4,10.3l-2.2,1.8v0.1h9v4.6H795.8z"/>
<polygon id="XMLID_3_" class="st5" points="823.4,429.4 823.3,429.4 818.7,431.6 817.8,427.4 824.1,424.5 828.8,424.5 828.8,448.4 
	823.4,448.4 "/>
<rect id="XMLID_2_" x="312.6" y="312.7" class="st5" width="195.5" height="6.1"/>
<rect id="XMLID_1_" x="617.7" y="312.7" class="st5" width="336.2" height="6.1"/>
</svg>
