<?xml version="1.0" encoding="utf-8"?>
<!-- Generator: Adobe Illustrator 19.0.0, SVG Export Plug-In . SVG Version: 6.00 Build 0)  -->
<svg version="1.1" id="Capa_1" xmlns="http://www.w3.org/2000/svg" xmlns:xlink="http://www.w3.org/1999/xlink" x="0px" y="0px"
	 viewBox="0 0 648.4 350" style="enable-background:new 0 0 648.4 350;" xml:space="preserve">
<style type="text/css">
	.st0{fill:#583038;}
	.st1{fill:#646766;}
	.st2{fill:#7C2946;}
	.st3{fill:#B9D4D9;}
	.st4{fill:#B4A8CA;}
	.st5{fill:#B777A1;}
	.st6{fill-rule:evenodd;clip-rule:evenodd;fill:#C28E26;}
	.st7{fill-rule:evenodd;clip-rule:evenodd;fill:#89154B;}
	.st8{fill-rule:evenodd;clip-rule:evenodd;fill:#A6AA5C;}
	.st9{fill-rule:evenodd;clip-rule:evenodd;fill:#A97192;}
	.st10{fill-rule:evenodd;clip-rule:evenodd;fill:#B79345;}
	.st11{fill-rule:evenodd;clip-rule:evenodd;fill:#608FA7;}
	.st12{fill-rule:evenodd;clip-rule:evenodd;fill:#9C6B84;}
	.st13{fill-rule:evenodd;clip-rule:evenodd;fill:#C1C851;}
	.st14{fill-rule:evenodd;clip-rule:evenodd;fill:#B3C260;}
	.st15{fill-rule:evenodd;clip-rule:evenodd;fill:#DDD150;}
	.st16{fill-rule:evenodd;clip-rule:evenodd;fill:#6390B7;}
	.st17{fill-rule:evenodd;clip-rule:evenodd;fill:#C89C36;}
	.st18{fill-rule:evenodd;clip-rule:evenodd;fill:#946385;}
	.st19{fill-rule:evenodd;clip-rule:evenodd;fill:#C0AB4B;}
	.st20{fill-rule:evenodd;clip-rule:evenodd;fill:#C3C943;}
	.st21{fill-rule:evenodd;clip-rule:evenodd;fill:#B37095;}
	.st22{fill-rule:evenodd;clip-rule:evenodd;fill:#6086A5;}
	.st23{fill:#010003;}
</style>
<path id="XMLID_119_" class="st0" d="M416,192.1h-65.8c-3,0-5.5-2.5-5.5-5.5c0-3,2.5-5.5,5.5-5.5H416c3,0,5.5,2.5,5.5,5.5
	C421.5,189.7,419.1,192.1,416,192.1"/>
<path id="XMLID_118_" class="st0" d="M642.9,193.8H477.1c-3,0-5.5-2.5-5.5-5.5c0-3,2.5-5.5,5.5-5.5h165.8c3,0,5.5,2.5,5.5,5.5
	C648.4,191.4,645.9,193.8,642.9,193.8"/>
<polygon id="XMLID_117_" class="st1" points="351.3,243.9 372.6,213.1 372.6,212.9 353.3,212.9 353.3,204.5 385.7,204.5 
	385.7,210.3 364.9,240.7 364.9,241 386,241 386,249.4 351.3,249.4 "/>
<path id="XMLID_116_" class="st1" d="M417,238.9c0,4.3,0.1,7.7,0.3,10.5h-8.7l-0.5-4.6h-0.2c-1.3,2-4.3,5.3-10.1,5.3
	c-6.6,0-11.4-4.1-11.4-14.2v-19.1h10.1v17.5c0,4.7,1.5,7.6,5,7.6c2.8,0,4.4-1.9,5-3.5c0.3-0.6,0.3-1.4,0.3-2.2v-19.4H417V238.9z"/>
<path id="XMLID_115_" class="st1" d="M420.2,227.2c0-4.1-0.1-7.5-0.3-10.4h8.5l0.5,4.4h0.2c1.4-2.1,4.2-5.1,9.8-5.1
	c4.2,0,7.5,2.1,8.9,5.5h0.1c1.2-1.7,2.7-3,4.2-3.9c1.8-1.1,3.8-1.6,6.2-1.6c6.2,0,10.9,4.4,10.9,14.1v19.2h-9.8v-17.7
	c0-4.7-1.5-7.5-4.8-7.5c-2.3,0-4,1.6-4.6,3.5c-0.3,0.7-0.4,1.8-0.4,2.6v19.1h-9.8v-18.3c0-4.1-1.5-6.9-4.6-6.9c-2.6,0-4.1,2-4.7,3.7
	c-0.3,0.8-0.4,1.7-0.4,2.5v19h-9.8V227.2z"/>
<path id="XMLID_238_" class="st1" d="M472.3,227.7c0-4.3-0.1-7.9-0.3-10.9h8.7l0.5,4.5h0.1c2.4-3.5,6.1-5.3,10.8-5.3
	c7.1,0,13.4,6.2,13.4,16.6c0,11.9-7.5,17.5-14.7,17.5c-3.9,0-7-1.6-8.4-3.7h-0.1v16.2h-10.1V227.7z M482.3,235.4
	c0,0.8,0.1,1.5,0.2,2.1c0.7,2.7,3,4.8,5.9,4.8c4.4,0,7-3.7,7-9.2c0-5.2-2.3-9.1-6.8-9.1c-2.8,0-5.4,2.1-6,5.1
	c-0.1,0.5-0.2,1.2-0.2,1.8V235.4z"/>
<path id="XMLID_235_" class="st1" d="M527.8,249.4l-0.6-3.3H527c-2.1,2.6-5.4,4-9.3,4c-6.6,0-10.5-4.8-10.5-10
	c0-8.5,7.5-12.5,19-12.5v-0.5c0-1.7-0.9-4.2-5.9-4.2c-3.3,0-6.8,1.1-8.9,2.5l-1.9-6.5c2.3-1.3,6.7-2.9,12.6-2.9
	c10.8,0,14.2,6.4,14.2,14.1v11.3c0,3.1,0.1,6.1,0.5,7.9H527.8z M526.6,234c-5.3-0.1-9.4,1.2-9.4,5.1c0,2.6,1.7,3.9,4,3.9
	c2.5,0,4.6-1.7,5.2-3.7c0.1-0.5,0.2-1.1,0.2-1.7V234z"/>
<path id="XMLID_110_" class="st1" d="M539.5,227.2c0-4.1-0.1-7.5-0.3-10.4h8.7l0.5,4.5h0.2c1.3-2.1,4.6-5.2,10-5.2
	c6.6,0,11.6,4.4,11.6,14v19.3h-10.1v-18.1c0-4.2-1.5-7.1-5.1-7.1c-2.8,0-4.4,1.9-5.1,3.8c-0.3,0.6-0.4,1.6-0.4,2.5v18.8h-10.1V227.2
	z"/>
<path id="XMLID_231_" class="st1" d="M606.8,216.8c-0.1,2.1-0.3,4.8-0.3,9.7v18.2c0,6.3-1.3,11.4-4.9,14.7c-3.6,3.1-8.4,4-13.2,4
	c-4.2,0-8.7-0.9-11.7-2.5l2-7.7c2.1,1.2,5.6,2.5,9.4,2.5c4.8,0,8.4-2.6,8.4-8.6v-2.1h-0.1c-1.9,2.7-5,4.3-8.7,4.3
	c-8,0-13.7-6.5-13.7-15.9c0-10.5,6.8-17.1,14.7-17.1c4.4,0,7.2,1.9,8.9,4.6h0.1l0.3-3.9H606.8z M596.5,230c0-0.7-0.1-1.3-0.2-1.9
	c-0.7-2.7-2.7-4.5-5.4-4.5c-3.6,0-6.6,3.3-6.6,9.3c0,4.9,2.4,8.7,6.6,8.7c2.6,0,4.6-1.7,5.3-4.1c0.3-0.7,0.3-1.8,0.3-2.7V230z"/>
<path id="XMLID_228_" class="st1" d="M641.7,232.7c0,11.9-8.4,17.4-17.1,17.4c-9.5,0-16.7-6.3-16.7-16.8c0-10.5,6.9-17.3,17.3-17.3
	C635.1,216,641.7,222.9,641.7,232.7 M618.3,233c0,5.6,2.3,9.8,6.6,9.8c3.9,0,6.4-3.9,6.4-9.8c0-4.9-1.9-9.8-6.4-9.8
	C620.1,223.2,618.3,228.2,618.3,233"/>
<path id="XMLID_225_" class="st2" d="M466,181.1v-1.5l-1.8-0.1c-0.3-4.1-2.4-3.9-4.4-3.9c0.8-3.5-1.6-3.4-2.6-3.3
	c0,0-2.1-5.3-9.3-5.4l0.1-2.7l0.8-0.1c0,0,0.5-1.8,0.6-3c0.1-1.1-1.1-3.5-1-4.9c0.1-1.3,0.6-1.8,0.5-3.5c-0.1-1.8-1.5-1.5-1.5-1.5
	l-0.1,15.6c-7.1,0.1-9.2,5-9.2,5c-1.1-0.1-3,0.1-2.6,3.1c0,0-4.4-0.8-4.3,3.6l-2.1-0.1v1.6l-2.4-0.1l0.1,32
	c7.2-5.1,12.5,1.3,12.5,1.3s7-7.8,15.4,0.3c0,0,6.3-6.7,13.9-1.7l0.1-31.2L466,181.1z M447.7,184.7c-2.9,0-5.3-2.4-5.3-5.4
	c0-3,2.4-5.4,5.3-5.4c3,0,5.3,2.4,5.3,5.4C453.1,182.3,450.7,184.7,447.7,184.7"/>
<path id="XMLID_222_" class="st3" d="M385.4,61c8.2-1.4,18.9-2.2,30.2-2.2c18.8,0,30.9,3.6,40.4,11.2c10.3,8.1,16.7,20.9,16.7,39.4
	c0,20-6.9,33.8-16.4,42.3c-10.4,9.1-26.2,13.5-45.6,13.5c-11.6,0-19.8-0.8-25.4-1.5V61z M407.8,146.3c1.9,0.5,5,0.5,7.8,0.5
	c20.2,0.2,33.4-11.6,33.4-36.6c0.1-21.7-11.9-33.2-31.1-33.2c-5,0-8.2,0.5-10.1,0.9V146.3z"/>
<rect id="XMLID_101_" x="487.4" y="59.6" class="st4" width="22.4" height="104.6"/>
<polygon id="XMLID_100_" class="st5" points="529.1,59.6 589.5,59.6 589.5,79 551.5,79 551.5,102.9 587,102.9 587,122.1 
	551.5,122.1 551.5,164.1 529.1,164.1 "/>
<path id="XMLID_99_" class="st6" d="M157.1,212.7c-1.4,3.3-2.5,6.6-3.2,10c-1.8,8.3-1.6,18-0.1,27.7c0.7,4.2,1.4,7.6,2.2,10.6
	c9.3,33.6,6.8,10.9,12.3-11.1c7-28.2,25.2-29.4,41.2-49.6c3.9-4.9,7.6-10.5,10.9-17.5c4.3-9.2,7.3-19,8.4-29.4
	c0.3-2.6,0.5-5.2,0.5-7.8c0.2-8.2-0.7-16.4-2.7-24.5c-4.4-11.8-7.3-18.8-8.1-12.7c-1.5,11-1.5,17.1-5.3,28.6
	c-4.2,12.7-11,24.3-24,38.3C177.5,187.7,164.1,196.4,157.1,212.7"/>
<path id="XMLID_98_" class="st6" d="M220.3,207.3c-22.2,8.1-36.7,22.2-44.6,41.9c-4.2,10.5-3.7,13.7,2.6,3.1
	c5.6-9.5,12.5-16.3,22.2-21.6c4.1-2.2,8.6-4.1,13.6-5.6c10.6-3.2,19.3-3.8,28.1-5c19.1-2.6,32.6-9.4,46.6-22.7
	c8.1-7.7,14.8-16.8,16.5-25.1c1.1-5.7,0.4-7.6-4.7-1.5c-6.8,8.1-8.5,10.1-18.5,15.2C262.5,195.9,241.8,197.3,220.3,207.3"/>
<path id="XMLID_97_" class="st6" d="M125.1,111.7c-0.9-3.6-3-3.5-5,3.7c-0.6,2-1.1,4.6-1.6,7.8c-1.1,9.4-1.3,18.4-0.4,27
	c1.4,13.6,6.6,30.1,13.2,42c1.4,2.6,5.9,9.9,10.3,14.9c7.6,8.6,11,4.2,13.8-4.3c0.9-2.8,1.5-5.7,1.7-8.1c0.5-6.2-1.1-11.8-4.1-17.2
	c-5.7-10.1-16.1-19.6-21.2-30.8c-1.8-4.1-3.2-8.3-4.3-13.3c-1.1-5.2-1.7-10.6-1.7-15.5C125.6,115.7,125.5,113.5,125.1,111.7"/>
<path id="XMLID_96_" class="st6" d="M171.6,118.9c9.7,0,17.6,9,17.6,20c0,11-7.9,20-17.6,20c-9.7,0-17.6-9-17.6-20
	C154,127.8,161.9,118.9,171.6,118.9"/>
<path id="XMLID_95_" class="st6" d="M120.6,306.9c8.6,2.9,18.1,7.7,24.5,13.3c5,4.4,8,7.5,11.9,13.5c1,1.5,4.1,6.7,4.9,7.6
	c2.7,2.8,4.5,0.3,5.5-1.8c0.4-0.8,0.7-1.6,1-2l0.1-0.4l0.2-0.4l0.2-0.4l0.2-0.4c0.4-1,1.1-2.1,1.6-3.2c3.1-6.3,7.2-11.8,12.7-16
	c5.7-4.4,13.1-8,21.1-10.3c9.7-2.8,13.4-3,23.1-8.2c3.1-1.6,6.1-3.3,9.4-4.9c0.6-0.3,1.2-0.6,1.8-0.9c1-0.5,2.3-1.4,3.2-2.1
	c0.5-0.4,1-0.7,1.5-1.2c1.4-1.1,3-2.3,4.3-3.6c0.5-0.5,0.8-0.9,1.3-1.3l2.7-2.5c6.6-6.6,12.8-24.1,16.5-33.5l3.3-7.2
	c0.3-0.6,0.6-1,0.9-1.7c0.3-0.6,0.5-1.1,0.8-1.8c1-2.1,2.3-5.3,1.7-8.6c-0.3-1.5-0.7-2.8-2.4-2.9c-1.9-0.1-3.1,0.3-4.3,1
	c-3.7,1.9-6.8,8.3-9,12.1c-1.3,2.2-2.5,4.2-3.9,6.5c-1.4,2.3-2.7,4.2-4.1,6.4l-10.9,15.4c-0.8,1-1.5,1.9-2.4,2.9
	c-0.8,1-1.5,1.9-2.6,2.7c-2.6,2-2.9,2.5-6.1,4.4c-4.6,2.7-9.2,5.4-14.7,6.3c-3.3,0.6-6.2,0.4-9.4-0.1c-8.9-1.6-8.7-7.5,2.3-11.2
	c5.2-1.7,10.8-3.2,15.9-5c2.4-0.9,5-2.2,6.9-3.6c0.9-0.7,2-1.9,2.5-2.7c0.8-1.3,0.7-2.6,0.4-4.1c-2.9-0.7-4.7-2.2-10.4-1.5
	c-9.1,1.2-13.3,3.1-19.9,4.2c-1.8,0.3-2.8,1-4.6,1.4c-3.2,0.7-1.7,0.3-4.6,1.6c-1.5,0.6-2.8,1.2-4.3,1.7c-0.8,0.3-1.3,0.6-2.1,0.9
	c-2.7,1.2-5.1,2.8-7.7,4.3c-3,1.8-6.3,3.9-8.8,6.4l-3.7,4.2c-4.3,5.5-3.7,5.2-7.9-0.3c-1.3-1.6-3-3.1-4.6-4.4
	c-0.5-0.5-1.1-0.9-1.7-1.3c-3.5-2.7-7.4-4.9-11.3-7.1c-2.7-1.5-5.5-2.5-8.4-3.7c-2.6-1.1-1.5-0.8-4.5-1.5c-1.9-0.4-2.5-1.1-4.8-1.4
	c-5.2-0.9-10.9-2.9-17.3-3.9c-2.8-0.4-5.6-0.6-8.4-0.1l-3.5,1c-1.3,0.6-1.3,1.6-1,2.9c0.2,0.8,0.4,1.3,0.8,1.8
	c2.9,4.7,12.4,7.3,17.2,8.6c4.3,1.2,16.7,4,16.5,9.2c-0.2,3.8-7.4,4.9-10.7,4.9c-6.3,0-11-1.8-16.2-4.6c-6.4-3.5-9.7-6-14.2-11.7
	c-2-2.4-3.6-5-5.4-7.5l-11.4-17.1C68,239.8,63.7,231,60,228.5c-1.7-1.2-6.1-2.9-7.2-0.1c-1.2,3-0.3,6.2,0.7,8.7
	c0.5,1.3,1,2.3,1.6,3.5c0.6,1.3,1.2,2.2,1.8,3.4c0.6,1.2,1.1,2.1,1.6,3.5l7.5,18.6c0.5,1.2,1.1,2.4,1.6,3.5c0.7,1.9,1.7,3.3,2.6,5.1
	c1.1,2.2,2.5,4.4,4,6.3c0.4,0.5,0.8,1,1.2,1.4l4,3.9c4.7,4.7,11.2,8.5,17,11.5c1.2,0.6,2.1,1,3.4,1.6c2.4,1.1,4.8,2.2,7.2,3.3
	C111.8,304.6,115.9,305.3,120.6,306.9"/>
<path id="XMLID_94_" class="st6" d="M68,227.8c0,4.1,0.1,6.5,1.3,10.4c0.2,0.6,0.4,1.1,0.6,1.7c0.3,0.6,0.4,0.9,0.7,1.5
	c1.2,2.2,8,13.1,9.2,13.9c0-1.1,0.2-1.3,0.2-2.4c0-0.8-0.1-1.8,0-2.6c0.6-7.3-0.2-20.2-4.5-25.4c-1.1-1.3-3.1-3.1-5.4-3.1
	c-0.5,0-1.3,1.9-1.5,2.5C68.3,225.2,68,226.5,68,227.8"/>
<path id="XMLID_93_" class="st6" d="M247.3,241.9l0.2,12.6c0.8-0.3,1.6-1.9,2.1-2.6c0.7-1,1.2-1.9,1.9-2.9c2.2-3.4,5.8-8.9,6.8-12.4
	c0.9-3.4,1.7-8.9,0.7-12.6c-0.2-0.8-1-2.9-1.7-2.9C249.4,221,247.3,235.6,247.3,241.9"/>
<path id="XMLID_92_" class="st6" d="M85.2,262.4c0.1-0.5,0.5-1,0.8-1.5c3.3-5.4,5.8-22.6-2.1-24.5c-0.5,1.9-1.2,1.7-1.7,6.2
	c-0.2,1.9-0.8,13.7-0.4,15.1c0.4,1.5,1.4,2.6,2.2,3.8C84.4,262.1,84.4,262.3,85.2,262.4"/>
<path id="XMLID_91_" class="st6" d="M238.1,246.4c0,3.9,1.9,13.5,4.3,15.2c0.9-0.6,3.2-3.7,3.2-5.1c0-3.3,0-13.7-0.7-16.6
	c-0.4-1.8-0.8-2.9-1.5-4.3c-1.8,0.2-3.4,2.4-4,3.9C238.6,241.5,238.1,244.3,238.1,246.4"/>
<path id="XMLID_90_" class="st6" d="M250.1,159.3c7.1,0,12.8,6.3,12.8,14.1c0,7.8-5.7,14.1-12.8,14.1c-7.1,0-12.8-6.3-12.8-14.1
	C237.3,165.6,243.1,159.3,250.1,159.3"/>
<path id="XMLID_89_" class="st6" d="M101.1,160.2c7.3,0,13.2,6.5,13.2,14.5c0,8-5.9,14.5-13.2,14.5c-7.3,0-13.2-6.5-13.2-14.5
	C87.9,166.8,93.8,160.2,101.1,160.2"/>
<path id="XMLID_88_" class="st6" d="M113.3,205.2c16.8,9.6,27.1,24.6,31.6,44.8c2.4,10.8,1.8,13.9-2.3,2.9
	c-3.6-9.9-8.5-17.1-15.7-23c-3-2.5-6.5-4.7-10.2-6.5c-8.1-3.9-14.9-5.1-21.7-6.9c-14.9-3.9-25-11.6-34.9-25.8
	c-5.7-8.2-10.3-17.7-10.9-26.2c-0.4-5.7,0.4-7.6,3.8-1.2c4.7,8.6,5.9,10.6,13.3,16.4C81,191,97.2,193.9,113.3,205.2"/>
<path id="XMLID_87_" class="st7" d="M182.2,226.6c7.1-7.3,14.1-11.6,19.8-16.7c4-3.6,7.9-8,11.4-12.7c3.1-4.1,5.8-8.4,8.7-14.6
	c1.9-4,3.5-8.1,4.8-12.3c2.2-7,4.5-17.6,4.2-27.3c-0.6-19.9-5.5-35.6-16.2-6.4c-10.5,28.8-13.6,32.2-23.1,46.3
	c-2.7,4-7.1,8.8-11.3,15.5c-8.4,13.3-11.1,27-12.5,42.5c-0.8,8.7,0.1,12.9,5.3-1.1C175.1,235.3,179.1,229.8,182.2,226.6"/>
<path id="XMLID_86_" class="st7" d="M201.2,230.9c3.5-2.4,9.3-4.4,15.4-6.5c3.5-1.2,7.1-1.8,10.2-2.4c4.5-0.8,8.4-1.3,11.8-1.7
	c5.3-0.7,10.2-1.4,14.4-2.3c4-0.9,7.4-2.1,11.7-3.8c5.1-2,10.5-4.7,17.3-9.9c2.6-2,5.6-4.6,8.6-7.4c3-2.7,5.7-5.7,8.1-8.8
	c4.2-5.4,7.2-11.1,8.4-16.3c1.3-5.7,0.4-7.6-4.7-1.5c-2.6,3.2-5.3,6.5-8.2,8.9c-11.2,9.2-24.3,13.1-37.8,21.6
	C250.4,204.6,199.4,226.8,201.2,230.9"/>
<path id="XMLID_85_" class="st7" d="M127,111.3c-0.9-3.6-3.4-3.8-3.6,3.6c-0.1,5.3-0.1,9.5,0,13.3c0.1,3.7,0.4,6.8,0.7,10
	c0.8,7.8,1.3,13.9,2.7,19.9c1.4,5.9,3.6,11.7,7.9,18.7c1.4,2.3,4.1,6,7.3,9.1c11.4,10.9,18.6,2.1,12.6-8.6c-1.9-3.4-4.4-6.8-7-10.2
	c-5.1-6.6-10.8-13.2-14.2-20.7c-1.8-4.1-3.2-8.3-4.3-13.3c-1.1-5.2-1.7-10.6-1.7-15.5C127.4,115.2,127.4,113.1,127,111.3"/>
<path id="XMLID_84_" class="st7" d="M129.6,230.2c-2.5-2.6-6.9-5.1-11.6-7.6c-2.7-1.4-5.5-2.3-7.8-3c-3.5-1.1-6.5-1.8-9.2-2.5
	c-4.1-1-7.9-2.1-11.2-3.3c-3.1-1.2-5.7-2.6-8.9-4.6c-3.8-2.3-7.9-5.4-12.8-11c-1.9-2.2-4.1-5-6.2-8c-2.1-2.9-4-6.1-5.7-9.3
	c-2.8-5.6-4.8-11.5-5.3-16.9c-0.5-5.7,0.4-7.6,3.8-1.2c1.8,3.3,3.6,6.8,5.7,9.4c8,9.9,18.1,14.7,28,24.1
	C93.1,200.6,131.4,226.3,129.6,230.2"/>
<path id="XMLID_83_" class="st8" d="M146.5,22.7c-1.6,0.7-1.3,0.6-1.3,3.7c0,1.6,0.3,4.3,1,5.1c0.2,0.2,0.1,0,0.3,0.2
	c0.8,0.7,0.8,1.4,1.1,2.3c0.3,0.8,0,0.1,0.5,0.6c0.1,0.1,0.1,0.1,0.3,0.3c1.4,1.7,0.5,0.5,1.7,1.6c0.9,0.9,0.1,0.4,1.9,1.9
	c0.3,0.2,0.4,0.5,0.7,0.6l3,1.3c0.2,0.1,0.3,0.1,0.5,0.3c1.7,1.1,1,1.2,3.8,1.2c1.7,0,3.6,0.1,5-0.2c1.5-0.3,1.3-1.8,1.3-3.7
	c0-1.1-0.2-3.3-0.8-4.2c-0.4-0.6,0,0.2-0.4-0.8c-2.1-5.1-2-2.8-4.3-5.8c-1-1.3-1.6-0.7-2.2-1.7c-1.5-2.2,0.2-0.7-3.1-2
	c-0.8-0.3-0.8-0.4-1.8-0.6c-0.9-0.2-1-0.4-2.3-0.3h-4c-0.1,0-0.4,0-0.5,0C146.4,22.7,146.7,22.7,146.5,22.7"/>
<path id="XMLID_82_" class="st9" d="M118.2,53.9c0.4-0.7-0.5,0.9,0.2-0.4c0,0,0-0.1,0.1-0.1l1.8-3.5c1-2.6,0-4,0.2-5.8
	c0.1-0.9,0.4-1.1-0.1-2.1c-1-2.2-1.3-1.7-1.5-3.6c-0.3-1.8-1.1-2.1-1.6-3.2c-0.5-1-0.4-0.6-1.2-1.3c-0.6-0.6-0.7-1.2-1.1-1.5
	c-0.4-0.3-1.2-0.4-1.7-0.7c-0.3-0.1-0.1-0.1-0.3-0.2l-3.9-2c-2.2-0.7-3.2,0.3-3.6,2.6c-0.2,0.8-0.3,1.5-0.7,2
	c-0.7,1.2-0.8,5.5-0.2,6.9l1,2c0.9,2-0.5,0.5,1.5,3.6l1.5,2.4c0.7,0.8,1.2,1,1.4,1.2c0.4,0.4,0.4,1.3,1.9,2.3c1.1,0.7,1.8,0.2,3,1
	C116.4,54.6,116,54,118.2,53.9"/>
<path id="XMLID_81_" class="st10" d="M167.2,44.8l-2.2,1.4c-0.7,0.7-0.3,2.1-1,2.9c-0.7,0.8-0.8,0.1-0.9,1.7c0,2.2-0.1,6.2,0.5,8.5
	c0.1,0.3,0,0,0.1,0.4c0.7,1.4,1.3,3.6,1.7,4.1l1.6,2.2c0.3,0.3,0.4,0.2,0.7,0.6c0.9,1-0.4,0.3,2.2,2.1c0.1,0,0.2,0.1,0.2,0.2
	c1,0.8,2.3,2,3.7,1.4c3.1-1.2,1.5-2.2,3.3-4.2c0.6-0.6,0.5-0.8,0.6-1.9c0.9-11.3-1.2-8.7-2-12.9c-0.3-1.7-1.4-1.7-2.2-2.9
	c-0.3-0.4,0-0.2-0.4-0.7c-0.3-0.4-0.4-0.3-0.7-0.6c-1.5-1.1-0.9-0.1-2-1.3c-0.4-0.4,0-0.1-0.4-0.3c-0.4-0.2-1.8-0.8-2.4-0.8
	C167.1,44.7,167.3,44.8,167.2,44.8"/>
<path id="XMLID_80_" class="st10" d="M85.2,59.1c-0.7,0.4-0.6,0.4-1.4,1.1c-1.3,1.1-0.5,1.4-1.7,3.2c-1.2,1.7-2.2,7.9-0.9,11.1
	c0.4,0.9,0.4,3.5,1.6,5.4c1.3,2,0.4,0.6,1.7,2l2.8,2.8c0,0,0.4,0.3,0.4,0.3c0.5,0.3,1.9,0.2,2.3,0c1.2-0.4,1.9-2,2.3-2.6
	c0.2-0.2,0.4-0.4,0.5-0.6l1.4-2.6c0.8-2.3,0.4-7,0.2-9.6c-0.1-1.6-0.8-2.5-1.2-3.9c-0.3-1-2.4-3.9-3.1-4.4c-1.5-1-0.8-0.5-1.7-1.8
	c-0.6-0.8-1.8-0.8-2.9-0.6C85.1,59,85.5,59,85.2,59.1"/>
<path id="XMLID_79_" class="st11" d="M258.3,69.1c0-2.1,0-3.2-0.7-5c-0.2-0.6-0.1,0-0.3-0.9c-0.2-1.5-0.1-1-1.5-2.4
	c-1.3-1.2-1.9-2.1-3-2.1c-1.4,0-1.6,0.6-2,1c-0.7,0.7-1.7,0.1-3.1,2.8c-1.1,2.1-1.7,2.3-2.1,4.3l-1.5,6.1c-0.1,1.1,0.3,0.9,0.3,2.2
	c0.1,2.5-0.3,2.4,0.8,4.2c1.3,2,0.2,2.3,2.8,4.8c1,1,2.5,1.5,3.4,0.6l3.5-3.7c0,0,0.1-0.1,0.1-0.1c1.3-1.5,1.7-1.1,2.2-3.5
	c0.6-3.5,2.3-2.9,1.5-5.8C258.5,70.8,258.3,69.8,258.3,69.1"/>
<path id="XMLID_78_" class="st9" d="M252.9,46.2c0-3.6-0.4-2.5-1-4.5c-0.5-1.9,0.5-0.4-0.7-2.3c-1.6-2.6-0.5-1.3-2.9-4.3
	c-2-2.5-4.6,1.6-5.6,2.6c-0.3,0.3-2.1,2.4-2.3,2.8c-0.4,0.8-0.6,2.1-0.8,3c-0.2,0.7-0.1,0.3-0.4,1c-0.6,1.7-1,6.4,0.2,8.3
	c0.7,1.1,0.3,2.4,2,5.2l0.7,1.4c0.4,0.9,0.6,1.3,2.3,1.4c1.8,0.1,1.4-0.5,2.7-1.1c1.6-0.7,2.2-1.3,2.9-2.8l0.9-1.2
	c0.8-1,1.3-3.4,1.5-4.9c0.1-0.8,0.1-1.5,0.2-2.3C252.8,47.5,252.9,47.3,252.9,46.2"/>
<path id="XMLID_77_" class="st9" d="M176.9,46.8c2.3-1.5,1.9-0.7,3.5-1.5c0.6-0.3,1.1-0.5,1.5-0.9c0.2-0.2,0.1-0.1,0.3-0.3
	c0.5-0.6,1-1.2,1.6-1.6l1.2-0.8c0,0,0.1-0.1,0.1-0.1c0,0,0.1-0.1,0.1-0.1c0.3-0.4,0.3-0.6,0.4-1.1c0.2-0.6,0.6-0.9,1.4-2l0.2-0.2
	c0.4-0.5,0.2-0.2,0.5-0.8c0.3-0.7,0.5-1,0.6-1.8c0.3-2.5,1.6-4.5,0.6-9c-0.3-1.3-0.1-3.8-1.3-4.6l-0.4-0.2c-1-0.4-1.1-0.2-2.1,0
	c-0.6,0.2-2.3,0.4-2.9,1c-1.8,1.5-2.3,1.3-4.1,3.4c-0.6,0.7-0.2,0.7-1,1.6c-0.5,0.5-0.7,0.7-1.1,1.3c-0.2,0.3-0.3,0.5-0.5,0.8
	c-0.1,0.2-0.1,0.3-0.2,0.4c-0.4,1-0.4,0.2-0.9,1.5c-0.6,1.5-0.7,0.7-0.7,2.7c0,2.1-0.2,7.9,0.6,9.6C175.1,45.3,176.1,46,176.9,46.8"
	/>
<path id="XMLID_76_" class="st12" d="M203.5,25.9l0.3,3.9c0.2,0.9,1,3.3,1.5,3.8c2.1,2.3,0.5,2.7,1.8,3.7c0.7,0.6,1.2,0.9,1.9,1.5
	c1.4,1.4,1.2,2.8,5.7,3.2c0.8,0.1,1.2,0.1,1.6-0.2c0.7-0.5,0.1,0.1,0.4-0.5l0.7-2.3c0.2-0.7,0.4-1,0.8-1.5c0,0,0.1-0.1,0.1-0.1
	c0,0,0.3-0.3,0.3-0.3c0.7-0.9-0.1-0.8,0.4-2.6c0.3-0.9,0.3-2.9,0-3.8c-0.2-0.5,0.1,0.1-0.2-0.4l-1-2.2c-0.5-1.5-0.2-1.6-1.4-3.7
	l-1.1-1.6c-0.4-0.5-0.3-0.1-0.9-1l-0.8-1.1c-0.3-0.4-0.3-0.4-0.6-0.8c-0.7-1.1-0.4-0.1-2.2-1.6c-0.3-0.3-0.4-0.3-0.7-0.6
	c-0.9-0.7-2.4-1.5-3.6-0.7c-0.7,0.4-0.3,0.1-0.6,0.7c-0.3,0.6-0.1,0.6-0.7,1c-0.9,0.8-0.8,0.7-1,2.4
	C203.9,23.9,203.5,22.3,203.5,25.9"/>
<path id="XMLID_75_" class="st11" d="M192.2,108.7c0-0.9,0.1-2.7-0.1-3.5l-0.2-0.5c0,0,0-0.1-0.1-0.1l-0.5-2.4
	c-0.3-2.3-0.1-2.1-1.4-3.5c-0.2-0.2,0,0.1-0.3-0.3l-1.6-2.4c0,0-0.1-0.2-0.2-0.2l-4.1-3.3c-1-0.4-0.7-0.5-1.5-1
	c-1.3-0.8-1.7-1-3.5-1.4c-3-0.6-4.4-2.5-5.4,3c-0.1,0.6-0.2,0.7,0,1.5l0.2,0.6c0.4,1.3,0,4.1,1.3,6.1c0.9,1.5,0.3,2,1.8,3.1
	c0.9,0.7,0.2,0.5,1,1.5c0.9,1,2.1,2.2,3.3,2.7c1.6,0.8,1.9,1.7,4,2.2c1,0.2,3.3,0.5,4.5,0.4c0.8-0.1,0.4,0.1,0.9-0.3l0.2-0.2
	C191.5,110.1,192.2,110,192.2,108.7"/>
<path id="XMLID_74_" class="st9" d="M180.1,86c-0.3,1.2,0-0.6-0.3,0.5l1.4,0.9c3,2.5,0.7,0.9,3.2,1.7c0.5,0.2,1,0.7,1.4,1
	c1.8,1.3,8.4,0.8,8.7,0.5c0.7-0.6,0.3-4.2,0.3-5.7c0-1.3-0.9-2.2-1.5-3.3c-0.3-0.5-0.2-0.7-0.5-1.2c-0.6-1.3-1-0.4-1.5-1.7
	c-0.2-0.5-0.1-0.8-0.4-1.2c-0.5-0.7-2.3-1.6-2.9-2c-0.7-0.5-1-1-1.9-1.5c-0.2-0.1-0.3-0.2-0.5-0.3c-1.6-1-1.2-0.7-3-1.3
	c-1.7-0.6-6.2-0.2-7.3,0.4c-1.8,0.9-0.7,3.3-0.7,5.4c0,1.1,0.7,1.8,1.5,3.4l0.5,0.7C177.4,83.4,178.3,85.5,180.1,86"/>
<path id="XMLID_73_" class="st9" d="M164.7,94.5c-0.2,0-0.6,0-0.9,0.1c-0.3,0.1-0.6,0.1-0.8,0.2c-1.2,0.3-2.7,0.5-3.1,0.8
	c-0.5,0.4,0.2,0.2-1.3,0.7c-0.9,0.3-2.2,1.1-2.8,1.8l-0.5,0.7c-0.8,1.1-2.2,0.9-2.7,3.3c-0.2,0.9-0.6,4,0.8,4.5
	c0.9,0.3,4.2,0.6,5.5,0.6l3.4-0.5c1.1-0.2,0.9-0.6,2.7-1.3l2-1.2l3.4-4.3c0.8-1.2,1-2.8,0.5-4c-0.6-1.2-1.9-0.6-4-1.3
	c-0.3-0.1,0.1,0-0.4-0.1C165.3,94.3,165.3,94.4,164.7,94.5"/>
<path id="XMLID_72_" class="st13" d="M201.8,111.6c0,0.7-0.1,1.1,0.2,1.7c0.3,0.8,0.6,0.6,0.9,1.4l0.1,0.2c0.5,1.2,0.1,0.7,1,1.6
	c0.2,0.2,0.2,0.1,0.4,0.4c0.7,1.1,1,1,1.5,1.5c0.2,0.2,0.1,0.2,0.4,0.4c0.2,0.1,0.3,0.1,0.5,0.3c1,0.7,1.3,1.2,3.4,0.9l0.9-0.3
	c0.6-0.4,0.4-0.6,0.4-1.3c0-0.6,0.2-0.7,0.2-1.3c0-0.9-0.1-3.2-0.6-4c-0.1-0.2-0.1-0.1-0.3-0.4l-0.7-1.6c-0.9-1.9-0.8-1.1-1.6-2
	c-0.4-0.4,0-0.4-1.2-1.1l-1.8-1.2c-0.6-0.4-0.1-0.4-0.9-0.5c-3.2-0.6-2.6,0-2.8,1.4c-0.1,0.7-0.3,0.6-0.3,1.1
	C201.3,110.2,201.8,110.5,201.8,111.6"/>
<path id="XMLID_71_" class="st13" d="M233.3,54.5c-0.6,0.3-1.3,0.3-1.9,0.6c-0.8,0.3-0.5,0.5-1.4,1c-1.2,0.6-1.9,1.3-2.7,2.2
	c-0.9,1.1-0.5,0.2-2.4,2.5c-1.9,2.4-0.7,1.2-1.7,3.4c-0.7,1.4-1.2,1.6-1.2,3.7c-0.1,3.8-0.8,6.2,0.9,8.8c0.3,0.5,0.7,1.5,1.2,1.8
	c0.3,0.2-0.5,0.2,0.5,0.1c0.1,0,4.2-1.1,4.8-1.4c1.1-0.7,1.1-1.4,2.4-2.5c1.3-1,1.7-0.7,2.3-2.5c1.4-3.9,1.5-0.8,2.6-7.5
	c0.3-2,0.7-1.9,0.3-4.3c-0.1-0.6-0.1-1.5-0.3-2.1c-0.2-0.7-0.4-1.2-0.6-1.9c-0.4-1.1-0.9-2.1-2.2-2.1
	C233.2,54.4,233.5,54.4,233.3,54.5"/>
<path id="XMLID_70_" class="st13" d="M93.3,34.6c-0.8,0.3-1,0.3-1.6,0.8c-1.7,1.6-2.5,4.3-3.2,5.8c-1.1,2.4-1.4,4.1-0.9,6.7
	c0.2,0.7,0,1.6,0.2,2.2c0.1,0.3,0.2,0.3,0.4,0.8c0.1,0.3,0.1,0.8,0.2,1.1c0.2,0.8,0.9,2.9,1.3,3.6c0.2,0.2,0.2,0.2,0.2,0.3l0.3,0.3
	c0.3,0.3,0.3,0.5,0.6,0.8c0.4,0.4,0.9,0.5,1.4,1.1c0.4,0.5,0.7,0.9,1.1,1.4c0.9,0.9,3,0.7,3.9,0.1c0.9-0.6,0.5-1.7,1.9-3
	c0.3-0.3,0.5,0.1,0.9-1.6c0.6-2.4,1.6-6.5,0.9-8.7c-0.4-1.3-0.5-2.7-0.9-4c-0.2-0.7-0.4-1.2-0.7-1.7l-2.7-3.9l-2.2-2.1
	C93.5,34.2,93.3,34.6,93.3,34.6"/>
<path id="XMLID_69_" class="st13" d="M256.8,49.2c0,1.1,0.5,2.9,0.8,3.7c0.2,0.6,0.4,0.7,0.5,1.2c2.7,0.1,5-0.1,7.1-1.6
	c0.9-0.6,0.5-0.1,1.7-1.3c0.5-0.6,1.5-1.5,2.1-1.8c1.8-1.1,0.6-0.8,1.6-2.2l2.6-4.4c1.1-2,0.8-4.8,0.8-7.2c0-0.9-0.1-1.4-0.3-2
	c-0.3-0.8-0.4-0.8-1.2-1.1c-1.6-0.5-2.7-0.1-4,0.3c-1.8,0.5,0,0.5-3,1.5c-1.5,0.5-2.2,2.1-3.8,3.2c-0.8,0.5-2.1,3.2-2.7,4.3
	c-0.6,1.1-1.1,1.9-1.4,3.4C257.3,46.2,256.8,48.1,256.8,49.2"/>
<path id="XMLID_68_" class="st11" d="M173.5,4c-1.2,0.3-0.2-0.1-1.5,0.8l-2,1.6c-1.3,1.2-1,0.4-2.1,2c-2.3,3.5-1.1,2.8-2.3,5.5
	c-0.8,1.8-0.8,3.3-0.8,5.3c0,1.5,0,3.3,0.3,4.6c0.2,0.6,0.4,1,0.7,1.6c0.3,0.6,0.8,1.9,1.3,2.4c0.6,0.5-0.1,0.2,0.9,0.4
	c1.3,0.3,2.5-0.1,3.5-0.9c0.3-0.2,0.3-0.3,0.6-0.5c2.7-1.9,0.6-0.4,1.8-1.8c0.8-0.9,1.3,0,3.1-4.1c1.4-3.4,1.8-3.8,1.8-7.8
	c0-3.2-0.8-5.8-2.5-8.3C175.6,3.6,174.6,3.7,173.5,4"/>
<path id="XMLID_67_" class="st14" d="M161.9,72.9l-2.5,2.2c-1.4,1.3-1,0.4-2.5,2.4l-2.4,2.7c-0.9,0.8-0.9,1.6-1.2,3.3
	c-0.2,1.2-1.8,4.4-1.3,7.3c0.2,1,0.5,1.4,1.4,2c1.1,0.7,3,0.2,4.1-0.1c0.7-0.2,1.5-0.1,2.3-0.1c0.3-0.4,0.5-1,0.9-1.3
	c0.6-0.5,1.9-0.8,3.1-1.8c0.4-0.3,0.7-1,1-1.4c0.5-0.6,0.6-0.6,1.2-1.1c0.7-0.6,0.3-1.1,2.2-3.5c0,0,0.1-0.1,0.1-0.1
	c0,0,0.1-0.1,0.1-0.1c0.4-0.7,0.1-1.5,0.7-2.9c1-2.5,0.9-3,0.7-6.7c-0.1-1-0.3-1.1-1.2-1.2c-2.2-0.4-2.9,0.1-4.4,0.3
	C163.4,72.8,162.9,72.9,161.9,72.9"/>
<path id="XMLID_66_" class="st15" d="M121.6,29.5c0,2.2-0.2,3.2,0.7,4.8c0.7,1.2,0.1,2.1,2.1,4.8l1.7,1.7c0.1,0.1,0.5,0.4,0.6,0.5
	c0.9,0.7,0.7,0.7,2.1,0.7c2.5,0,1.7-1.3,2.9-2.4l1.2-1.4c0.5-0.8,0.7-1,0.8-2c0.2-4.1,2.7-4.3,0.3-12.1c-0.6-2-0.9-1.2-1.3-2.3
	c-0.6-1.7,0.4-1.6-1.3-2.4c-1.3-0.6-0.8-1.4-1.4-2.1c-0.5-0.6-2.2-0.6-2.9-0.3c-0.6,0.3-0.4,0.5-0.8,0.9c-0.6,0.8-1.9,0.4-3.4,5.7
	l-0.6,1.3c0,0,0,0.1-0.1,0.1C121.5,26.2,121.6,28,121.6,29.5"/>
<path id="XMLID_65_" class="st16" d="M269.8,86.7c0,2.7,0.2,2.4,0.7,4.6c0.4,1.6,1.7,1.6,3.3,1.5c1.9-0.1,2.3-0.5,3.6-1.2
	c5.7-3,3.2-2.4,5.3-5.4l1.6-2c0.9-1.8,1-0.9,1.5-3.2c0.1-0.7,0.2-1.5,0.3-2.2l0.4-2c0-0.3-0.2-1.7-0.3-2c-0.2-0.5-0.2-0.2-0.4-0.7
	c-0.4-1.2-0.9-3-2.9-3.2c-0.8-0.1-1.7,0.1-2.3,0.5c0,0-0.1,0.1-0.1,0.1c0,0-0.1,0.1-0.1,0.1c-1.5,1-1.3,0.1-3.9,2.5
	c-2.4,2.1-0.7,0.7-2.2,2.5l-1.8,2.4c-0.1,0.3-0.1,0.2-0.2,0.5c-0.2,0.5-0.9,1-1.5,3.2c-0.1,0.5-0.1,0.5-0.2,1
	C270.1,84.7,269.8,84.8,269.8,86.7"/>
<path id="XMLID_64_" class="st14" d="M193.5,44.8c0,1.9,0.1,3,0.6,4.6l0.6,1.6c0.3,0.6,0.3,1.3,0.5,1.9c0.3,0.6,0.6,0.8,0.9,1.4
	c0.2,0.3,0.2,0.4,0.4,0.8c0.3,0.7,3,3.3,3.2,3.4c1.7,0.8,3.4,0.5,4.2-1.2l1.8-3c0.3-0.6,0.4-1,0.6-1.9c0.5-3,0.8-5.7,0.2-8.7
	l-0.6-2.8c-0.4-1.4-0.7-0.4-1.3-2.3c-0.4-1.3-0.3-0.7-1.4-1.9c0,0-0.1-0.1-0.1-0.1l-1.9-1.9c-0.4-0.3-1-0.7-1.6-0.8
	c-2.1-0.2-2.5,1.2-2.9,1.9c-1.3,2.5-1.4,1.1-1.9,2.8C194.2,40.6,193.5,43,193.5,44.8"/>
<path id="XMLID_63_" class="st16" d="M76.3,69.9c0-3.7,1-3.4-0.1-5c-0.3-0.4-0.3-0.4-0.5-0.8c-0.4-0.9-0.2-1.1-0.4-2
	c-0.4-1.3-1.1-0.4-2.6-3.2c-1.5-2.7-1-0.6-2.6-2.5c-0.7-0.8-2.4-2.2-3.3-2.6c-1.2-0.5-0.7-0.5-1.9-0.6c-0.2,0-4.6-1.4-5.7,0.4
	c-0.2,0.4-0.4,1.4-0.4,2.1c0,1.1,0.4,5.5,0.8,6.4c1.6,3.5,2,2.3,2.8,4.4c0.8,2-0.1,0.2,2.5,2.4c0.4,0.4,2.2,2.3,2.4,2.4
	c0.5,0.2,1.5,0.2,2,0.5c0.6,0.3,0.7,0.7,1.6,0.9c0.7,0.2,1.4,0,2.1,0.1c0.8,0.2,2.2,1.1,3.4-0.9C76.8,70.9,76.3,70.7,76.3,69.9"/>
<path id="XMLID_62_" class="st16" d="M117.2,72.9c0-5.8-0.5-5-0.6-6.4c-0.1-1.5,0.1-0.9-0.6-1.8c-0.8-1-0.6-2.4-1.5-3.3
	c-0.5-0.5-0.7-0.5-1.2-1.1c-2.6-3.2-0.2-2.1-3.6-3.6c-2.4-1-2-1.5-3.1-1.6c-1.9-0.2-2.6,0.1-3.2,1.5C102,60,102.7,63.4,103,67l1,2.6
	c0.5,0.7,0.5,0.6,1,1.8l0.2,0.5c0,0,0.2,0.3,0.2,0.4c0,0,0.1,0.1,0.1,0.1c0.5,0.8,0.5,1.1,1,1.6l3.5,2.5c1.2,1.3,0.3,0.7,3.2,1.5
	c0.9,0.2,0.9,0.6,1.6,0.1c0.5-0.4,0.7-0.9,1-1.5c0.5-0.9,0.8-0.6,1-1.5C117.1,74.8,117.2,73.2,117.2,72.9"/>
<path id="XMLID_61_" class="st17" d="M213.4,100.1c0.8-0.1,1.8-0.3,2.4-0.8c1.2-0.8,0-0.6,1.6-1.7c0.4-0.3,0.2,0,0.4-0.5l0.9-1.6
	c0.3-0.3,0.5-0.1,0.5-1.1c0-0.9,0.1-0.8,0.2-1.5c0.3-1.6-0.1-4.9-0.4-6.3c-0.3-1.4-2.2-3.1-2.7-4.1l-1.5,0c-0.2,0.3-0.3,0.6-0.6,0.9
	c-1.2,1.7-1,1.1-1.4,1.7c-1.3,1.8-0.8,1.8-1.4,2.9c-0.3,0.5-0.1,0.5-0.3,0.9c-0.3,0.5-0.3,0.1-0.6,1.8c-0.3,1.7-0.1,4.5,0.4,5.6
	l0.8,1.5c0.1,0.2,0.2,0.4,0.3,0.5c0.3,0.4,0.1,0.1,0.4,0.4L213.4,100.1z"/>
<path id="XMLID_60_" class="st14" d="M197.4,74c0,1.5-0.2,2.4-0.3,3.7c-0.2,1.6,0.2,2.1,0.3,3.6c0,1.3,1.9,5,2.9,5.9
	c1,0.9,0.3,0,1.3,1.7c0.7,1.2,1.9,1.5,2.6,1.1c0.4-0.3,0.6-1,1.2-1.6c0.1-0.1,0.5-0.5,0.5-0.6c0.4-0.6,0.5-1.3,1-1.9
	c0.3-0.4,0.2,0,0.4-0.7c0.5-1.7,0.5-7.3,0-8.8c-0.2-0.6-0.4-0.9-0.6-1.4c-0.7-1.8,0.2-0.9-1.5-2.5c-0.9-0.9-0.5-1.7-1.6-2.4
	c-2.9-1.7-3-0.9-4,0c-0.6,0.5-0.5,0.5-0.8,1.3C198.3,72.7,198.5,73.1,197.4,74"/>
<path id="XMLID_59_" class="st14" d="M262.7,68.1v2.5c0,0.6,0.1,0.9,0.7,1.5c1,1,3.7,0.7,5.5-0.1c2.3-1.1,1.9-1.3,2.8-1.7
	c0.6-0.3,1.5-0.5,2.2-1.2c1.6-1.6,1.4-0.8,2.1-1.9l2.8-3.4c0.3-0.4,0.7-2.4,1-3.5c0.3-0.9,0.6-5.6,0.1-6.5c-1-2.2-3-1.2-4-0.9
	l-3.3,1.3c-0.5,0.3,0.1,0-0.7,0.4c-0.7,0.4-0.8,0.3-1.5,0.8c-1.7,1.2-1.4,1.5-2.7,2.1c-1.1,0.5-0.7,0.1-1.3,1
	c-0.7,1-1.2,1.5-1.9,2.7c-0.3,0.6-0.4,1-0.7,1.6C263.4,64,262.7,66.3,262.7,68.1"/>
<path id="XMLID_58_" class="st15" d="M196,61.1c-0.8-0.5-0.6-0.2-1-1.2c-0.9-2.5,0.4-0.8-1.4-3.4c-1.5-2.2-0.5-2.4-1.4-3.4
	c-0.6-0.6-0.6-0.4-1.2-1.3c-0.3-0.5,0-0.4-0.9-0.9c-1.2-0.7-0.4-0.4-1.2-1.1c-0.4-0.4-1.2-0.6-1.9-1.2c-0.8-0.7-0.2-0.6-1.7-0.8
	c-1.5-0.3-1.4-0.1-2.9,1.7c-1.2,1.4-1.5,6.3-1.1,8.4l1.6,5.4c0.4,0.9,0.6,0.1,2,2.7c1.1,2,1.9,2.2,3.6,3.6c2.1,1.6,0.8,0.5,2.1,1.3
	c1.8,1.1,3.1,0.2,3.7-1.5c0.7-2.1,0.9-5.9,1-6.2C196,62.3,196,62.5,196,61.1"/>
<path id="XMLID_57_" class="st15" d="M149.3,125.7c0-1.8-0.1-1.8-1.8-2.3c-2.5-0.7-2.7-0.4-5,0.2c-0.7,0.2-0.2,0.1-0.8,0.4
	c-0.8,0.5-1.3,0.1-2.1,0.9c-0.7,0.7-0.8,0.5-1.4,1l-0.4,0.3c-1.2,0.8-0.9,0.6-1.9,1.7c-1,1-0.3,0.8-1.2,2.3
	c-0.8,1.3-1.4,2.2-0.8,3.7c0.2,0.5,0.3,0.7,0.9,0.8c1.3,0.2,0.2-0.2,2.2,0.2c1.4,0.3,3.7-0.5,5-1c2.2-0.9,0.8-0.3,2.2-1.2l1-0.7
	c0.2-0.1,0.3-0.2,0.5-0.3c0.1-0.1,0.6-0.9,1.3-1.7c0.1-0.1,0.1-0.1,0.2-0.2c0.2-0.2,0.2-0.2,0.4-0.5c0.3-0.4,0.4-0.7,0.7-1.1
	C148.8,127.5,149.3,126.8,149.3,125.7"/>
<path id="XMLID_56_" class="st14" d="M120.5,63.6c0,5.6,0.9,3.4,1.1,5.9c0,0.4,0,0.6,0.1,1.1c0.1,0.4,0.3,0.5,0.6,0.8
	c1.4,1.4,1.9,4.4,4.4,3c0.8-0.5,3-2.1,3.3-2.6c0.4-0.6,0.3-1.1,0.6-1.7l0.5-0.8c1-1.1,1.1-2.5,1.5-4.2c0.5-2,1.7-2.6,0.2-6.1
	c-0.3-0.8-0.4-2.3-0.8-3.4l-0.1-0.3c-0.1-0.2,0-0.1-0.2-0.4c-0.6-1.6-0.7-1-1.4-2.2c-0.3-0.5-0.4-1-0.8-1.5c-0.4-0.5-0.7-0.9-1.3-1
	c-1.1-0.3-1.5,0.1-1.9,0.6c-0.5,0.5-0.7,0.5-1.1,1.1c-1.1,1.7,0.1,0.5-1.6,1.8c-0.8,0.6-0.1,0-0.7,1.2c-1.6,2.8-0.4-0.3-1.9,4.6
	C120.6,61,120.6,61.5,120.5,63.6"/>
<path id="XMLID_55_" class="st14" d="M65.5,37.2c0,4.1,1.2,6,2.8,9l2.3,3c0.3,0.2,0.7,0.6,1,0.9c1.6,1.6,1,0.7,3,2.2
	c0.5,0.4,3.2,1.3,4.3,1.3l1.6,0c0.2-0.7,0.6-0.9,0.8-1.5c0.7-2.1,0.3-5.9-0.4-7.7c-0.2-0.5-0.4-1.2-0.6-1.7
	c-0.3-0.6-0.3-0.2-0.8-1.5c-0.6-1.5-0.8-1.1-1.8-2.7c-1.2-2-2.4-1.9-3.5-3.4c-1.3-1.7-1.9-0.8-3-1.5c-0.9-0.6-1-1.1-3.5-1.1
	c-1.1,0-1.3-0.1-1.6,0.8C65.3,35.5,65.5,35,65.5,37.2"/>
<path id="XMLID_54_" class="st18" d="M292.3,145.9c0.9-0.2,1.5-1.1,3.9-1.2c1.7-0.1,3-0.1,4-1c1.8-1.7,1.1-1,2.3-1.7
	c0.9-0.6,2.2-1.4,2.6-2.2c0.7-1.3,0.6-0.6,1.2-1.3l1.3-2.4c0.4-0.7,0.7-0.8,1-1.5c1.5-3.1,1.9-4.5,1.6-8.4c0-0.5-0.1-0.6-0.3-0.9
	c0,0-0.1-0.1-0.1-0.1l-0.6-0.2c-1.5-0.2-3.5,0.1-5.1-0.1c-2.2-0.3-3.9-0.5-4.8,0.9c-1,1.5-1,0.3-2.3,1.5l-1.4,1.1
	c-1,0.5-2.1,1.3-2.7,2.3c-1.2,2.1-0.5,0-2,2.9c-0.4,0.7-0.8,0.7-1.1,1.4l-1.3,3.9c-0.7,1.9-0.6,1.8-0.6,4.3l2,1.5
	C291.3,145.5,291.1,144.7,292.3,145.9"/>
<path id="XMLID_53_" class="st19" d="M304.6,120.7l0.4,0.3c0.9,0.6,1.8,0.7,3.1,0.8c2.1,0.1,6.9,0.4,8.8-0.3
	c1.4-0.5,0.6-0.8,3.3-1.6c1.8-0.6,1.2-1,2.7-2l2.4-2.3c0.4-0.6,0.3-0.9,0.8-1.5c0.7-0.8,0.5-0.2,1.1-1.4c0.4-0.8,0.3-1.1,0.5-1.9
	c0.3-0.9,0.5-0.8,1.1-1.3c0-1.4-0.9-3.2-2-3.9c-1.2-0.7-0.9-0.3-2.3-0.7c-1.8-0.5,0-0.5-3.4-0.5c-1.5,0-1.5-0.1-2.6,0.2l-0.9,0.2
	c-1,0.2-0.7,0-1.5,0.6c-0.7,0.5-0.6,0.4-1.5,0.6c-2.2,0.6-1.3,1.3-2.9,2c-0.4,0.1,0,0-0.4,0.2l-0.3,0.2c-0.5,0.4-0.5,0.7-0.9,1.1
	c-0.5,0.6-0.6,0.4-1.1,0.8c-0.9,0.7-0.7,1.1-1.4,1.6c-1.5,1.2-0.4,0.5-1.4,1.8c-0.9,1.2-0.2-0.4-1.1,1.9
	C304.3,116.8,304.6,118.9,304.6,120.7"/>
<path id="XMLID_52_" class="st19" d="M269.9,167.6c-0.3,0.5-0.8,3.3-0.6,4.3c0.1,0.5,0.1,0,0.1,0.8c0.1,0.9,0.3,1,0.7,1.6l0.4,0.8
	c0.1,0.1,0.1,0.1,0.2,0.2c0.2,0.2,0.4,0.3,0.5,0.5c0.2,0.2,0.1,0.3,0.4,0.5c0.9,0.8,0.5,0.3,1.1,0.7c0.1,0.1,0,0,0.1,0.1
	c0.6,0.4,0,0.6,1.4,0.5c0.2-0.4,0.1-0.2,0.3-0.5c0.2-0.2,0.1-0.4,0.3-0.5c0.4-0.6,0.2,0.4,0.4-1.2c0.1-0.6,0.1-0.9,0.1-1.6
	c0-0.9,0-1.4-0.4-1.9c-0.1-0.1,0,0-0.1-0.1c-0.2-0.2-0.3-1.5-1.1-2.2c-0.2-0.1-0.4-0.2-0.5-0.4c-0.3-0.4,0.1-0.6-0.9-0.7
	c-0.1-0.7-0.6-0.6-1.1-0.8C270.6,167.7,271,167.6,269.9,167.6"/>
<path id="XMLID_51_" class="st10" d="M260.4,114.1c-2.4,0-2.8-0.1-4.8,0.4L252,116c-1.1,0.5-0.8,0.7-1.4,1.2
	c-0.4,0.3-1.3,0.6-1.7,0.9c-0.6,0.4-0.8,0.8-1.2,1.4c-0.5,0.9-0.3,0.5-1.2,1.3c-2.4,2.4-1.6,1.4-2,3.3c-0.1,0.6-0.1,0.4-0.2,0.6
	c-1.3,2.2-0.5,1.3-1.2,3.2c-0.5,1.3-0.4,0.4-0.3,1.9c0,0.8-0.1,1.7,0.1,2.4c0.6,2,9.1,1.2,10.6,0.1c0.4-0.3,0.4-0.3,0.8-0.5
	c2.3-1.2,1.9-1.2,3.8-2.6l1.5-1.3c0.8-0.4,0.6-0.3,1.5-1.8l0.6-0.8c1.8-2.2,1.5-4.1,2.2-5.6c0.1-0.3,1.3-1.3,0.2-4.1
	C263.3,114,262.5,114.1,260.4,114.1"/>
<path id="XMLID_50_" class="st11" d="M336.7,179.6c-0.7-0.4-0.6,0-1.5-1.1c-1-1.3-0.9-1.1-2-1.9l-0.3-0.2c-0.1-0.1-0.3-0.2-0.4-0.2
	c-0.6-0.3-0.3,0-0.9-0.4c-1.3-0.8-0.8-0.1-3.3-1.1l-0.5-0.2c-2.1-0.7-3.2-0.6-5.6-0.3c-1.4,0.2-5.2,0.8-6.2,1.6
	c-0.7,0.5-0.7,0.6-1.5,1c-1.8,0.8-1.8,0.4-2.5,1.4c-0.5,0.7-1.3,1.3-1.4,2.2c-0.2,1.1,0.2,2.2,0.8,2.9c1.3,1.6,1.1,1,2.1,1.6
	c0.8,0.5,0.1,0.9,3.2,1.8c2.9,0.9,0.7,0.9,3.7,1.4c1.2,0.2,7.1,0.5,8.4-0.2c0,0,0.1,0,0.1-0.1c1.4-0.8,1.1-0.4,2.2-1
	c0.1-0.1,0.2-0.1,0.4-0.2c1.1-0.5,3.7-2.4,4.4-3.2C337.4,181.7,336.7,181.2,336.7,179.6"/>
<path id="XMLID_49_" class="st9" d="M290.9,97.4l-2.4-1.3c-1.5-1-2.7-1.4-4.8-1.2c-1.5,0.2-3.5-0.3-4.8,0.3
	c-1.1,0.6-0.9,0.2-2.1,1.1c-0.8,0.5-0.6,0.4-1.5,0.6l-1.9,1.1c-0.4,0.3-0.1,0.1-0.4,0.4c-1.7,1.7-3,2.1-3.5,2.9l-2.5,5.2
	c-0.7,4.3,1.3,3.1,4,4.8c1.1,0.7,1.6,0.4,3.5,0.4c0.9,0,1.4-0.1,2.1-0.3c2.1-0.6,2-0.3,3.1-0.9c0.3-0.1,0.7-0.3,1-0.4
	c0.9-0.4,0.9-0.5,1.6-1c1.3-1.2,1.6-0.1,3.5-2.2c0.2-0.2,0.1-0.1,0.3-0.3l2.6-2.4c1-1.1,0.7-0.9,0.9-1.7c0.1-0.6,0.2-0.6,0.3-1.1
	C290.1,100.1,290.9,98.3,290.9,97.4"/>
<path id="XMLID_48_" class="st20" d="M269.7,155.6c2.1,0.1,3,0.3,4.2-0.8c2.5-2,1.6,0.3,4.2-2.2l2.6-2.5c0.9-0.7,1-1.5,2.2-2.9
	c0.8-0.9,0.6-1,1-1.7l0.7-1.7c0.4-1.1,0.6-0.4,0.9-2.9c0.2-1.3,0.3-3.3,0.1-4.9c-0.2-1.8-0.5-2.1-2-2.9c-1.2-0.6-3.3-0.1-4.5,0.2
	c-1.3,0.3-2.3,1.1-3.3,1.8l-2.8,2.2c-0.8,0.8-2.1,2.8-2.6,3.8c-0.2,0.3-0.3,0.5-0.5,0.8c-1.1,1.6-0.8,2.3-1.1,4
	c-0.2,0.9-1.4,0.9-0.6,6.4C268.5,154.9,269,154.8,269.7,155.6"/>
<path id="XMLID_47_" class="st8" d="M286.6,148.6c-0.4,0.5-0.8,0.9-1.2,1.4c-0.9,1-0.8,0.5-1.3,1.2l-1.8,3.3c-0.4,1.3-0.8,2.6-1.1,4
	c-0.9,4.3-0.9,2,0.1,6.4c1.2,5.2,1.4,3.9,2.8,6.9c0.1,0.1,0.1,0.3,0.2,0.4c0.3,0.5,0.1,0.3,0.6,0.7c0.8,0.8,2.6,2.4,3.9,2.1
	c1.3-0.3,2.2-1.5,2.8-2.4l1-1.5c0.4-0.6,1.1-2.7,1.5-3.6c0.3-0.6,0.5-1.1,0.6-1.9c0.2-1.7,0.2-3,0.2-4.9c0-5-0.8-3.1-1.7-6
	c-0.7-2.3-0.9-1.5-1.4-2.4c-0.4-0.8-0.4-1.4-1.5-2.2C288.2,148.5,289.2,148.5,286.6,148.6"/>
<path id="XMLID_46_" class="st11" d="M315.2,149c0.4-0.7,0.5-0.7,0.5-1.6c0.1-1.2,1-2.4,0.5-3.2c0,0-0.1-0.1-0.1-0.2l-0.3-0.4
	c-0.1-0.1-0.3-0.4-0.4-0.5c-0.5-0.6-2.3-0.6-3-0.7l-2.7,0.4c-1.7,0.3-1.3,0.4-2,0.6c-1,0.3-0.6,0.2-1.6,1.1c-0.4,0.4-0.6,0.7-1,1
	l-2.1,1.9c-0.4,0.6-0.5,0.5-0.8,1.3c-0.7,1.2-2,4.5-1.7,5.8c0.2,1.3,2.4,2.4,2.5,2.5c0.6,0.1,1,0,1.4-0.2c1.9-0.8,1.6-0.2,2.7-0.4
	l3.5-1.9c0.7-0.5-0.1-0.2,1.6-1.4c0.2-0.1,0.4-0.3,0.5-0.5C315.7,149.7,313.5,152.2,315.2,149"/>
<path id="XMLID_45_" class="st8" d="M302.2,114c0.3-1.4,0.3-3.4,0-4.7c-0.2-0.9-0.5-3.6-0.8-4.1c-1.1-1.5-3.9-0.5-5.5,0.4
	c-1.2,0.7-3.6,1.4-4.5,3c-1.3,2.4-1.2,0.6-2.4,2.5c-0.4,0.6-0.8,0.9-1,1.4c-0.9,1.8-1.8,3.6-1.9,5.5c-0.1,1.7,0.1,3.4-0.1,5
	c-0.1,1.1-0.1,3.4,0.8,4c1.2,0.8,4.2,0.9,5.5,0.5c0.8-0.2,0.2,0.1,0.6-0.4c0.6-0.7,0.9-1.1,1.7-1.6c1.4-0.8,1.1-0.1,1.9-1.3
	c0.9-1.5,1.6-2.1,2.8-3.2L302.2,114z"/>
<path id="XMLID_44_" class="st10" d="M312.6,134.9c0,1.3,0.1,1.2,0.8,1.8l2.7,2.2c0.3,0.2,0.5,0.3,0.8,0.6c2.5,2.2,0.9,0.1,4,2.2
	c0.7,0.4,3,0.8,4.1,0.8c0.9,0,1.4-0.2,2.5-0.2c2.9,0,2.5-0.4,3.8-1c1.5-0.7,2.4-0.4,3.4-1.5c1.2-1.4,3.4-1.6,3.5-3.9
	c0.1-2.2-1.6-3.3-3-4.5c-0.7-0.6-0.8-0.4-1.6-0.8c-1.1-0.5-0.2-0.6-1.7-0.9c-0.7-0.1-1.2-0.3-2-0.4c-0.8-0.2-1.3-0.5-1.8-0.6
	c-0.7-0.1-1.7,0-2.4-0.1c-2.7-0.2-5.5,0.6-8,1.6c-3.4,1.3-1.2,1-4.2,3.1C312.6,133.7,312.6,133.7,312.6,134.9"/>
<path id="XMLID_43_" class="st10" d="M294.7,92.8c1.2,0,5.1,0.1,5.8-0.2c0.5-0.2,0.4-0.3,0.8-0.6c0.4-0.2,0.4-0.1,0.8-0.4
	c0.5-0.3,0.1-0.1,0.7-0.4c0.3-0.2,1.2-0.4,3.1-1.6c4.8-2.9,1.8-1.2,4.9-4.5c2.1-2.3,0.7-4.7-1.9-5.6c-0.7-0.2-1-0.4-1.8-0.7
	c-0.1,0-0.6-0.2-0.9-0.3c-0.9-0.4-0.1-0.2-0.9-0.4l-4.7,0c-0.9,0.1-1.1,0.2-2.1,0.4c-1.1,0.1-0.6,0.2-1.6,0.7
	c-1.1,0.6-2.6,0.7-3.4,1.3l-1.2,1.2c-0.1,0.1-1.7,1-2.8,1.9c-1.3,1.1-1.2,1.2-1.9,2.9c-0.2,0.6-0.6,1-0.6,1.7
	c-0.3,2.3,0.7,2.4,1.7,3c0.8,0.5,1,0.3,1.9,0.6C292.5,92.5,290.6,92.8,294.7,92.8"/>
<path id="XMLID_42_" class="st14" d="M236.6,110.8c0,1.3,0.2,5.1,0.8,6.1c0.1,0.2,0.9,0.9,1.1,1.2c0.5,0.6,0.4,0.7,1.4,0.7
	c2,0.1,3.2-0.9,4.8-2.1c1.2-0.9,2.1-2.4,2.7-3.7c0.2-0.4,0.2-0.3,0.4-0.7c0.2-0.4,0.2-0.4,0.4-0.8c0.3-0.7,0.4-0.7,0.9-1.2
	c0.9-1,0.4-2.7,0.7-3.9c0.1-0.2,0.2-0.3,0.3-0.8c0.7-2.7-0.8-7.5-0.9-9.8c-2-0.2-0.5-1.2-4.2-0.4c-1.7,0.4-1,0.7-3,2.6
	c0,0-0.1,0.1-0.1,0.1c-0.8,0.7-1.1,0.8-1.7,1.7c-0.6,0.8-1.1,1.2-1.5,2.1C236.9,106.5,236.6,103.8,236.6,110.8"/>
<path id="XMLID_41_" class="st9" d="M228.2,98.9c0.7,0.1,2.8,1.8,4.4,0.3l2.8-1.9c0,0,0.1,0,0.1-0.1l1.7-1.3c0,0,0.4-0.5,0.4-0.6
	c0.2-0.4,0.2-0.4,0.4-0.8l1.6-2.5c0,0,0.1-0.1,0.1-0.1l0.2-0.2c0.2-0.3,0.2-0.2,0.4-0.5c0-0.1,0.1-0.2,0.1-0.2
	c0.1-0.2,0.1-0.2,0.2-0.4c1.1-1.9,0.7-1.9,1.1-4c0.3-1.3,1-2.5,0.5-4.3l-0.8-2.6c-0.3-0.6,0.4-1-1.5-2c-1.9-1-6,1-7.3,2.2l-2,2.2
	c-0.3,0.5-0.4,0.9-0.7,1.4c-1.4,2.2-1.8,3.7-2.1,4.2c-0.7,1.2-0.8,6-0.7,7.7C227.5,96.9,228.1,97.3,228.2,98.9"/>
<path id="XMLID_40_" class="st15" d="M260,83.2c-1.7,1-3.2,3.1-4.3,4.8c-0.4,0.6-0.2,0.9-0.7,1.6c-0.4,0.7-0.5,0.7-0.7,1.6
	c-0.7,3.2-1,4.8-0.4,8c0.4,2-0.2,2.1,1.1,3.5l1.5,1.9c0.1,0.2,0.1,0.1,0.3,0.3c0.9,1.1,0.7,2,2.2,1.6l2.7-1.3
	c0.4-0.4,0.2-0.4,0.8-0.9c1.6-1.2,1.1-0.2,2-2.5c0.2-0.6,0.5-0.9,0.8-1.4c1.4-2.9,0.7-2.2,1.1-5.8l-0.6-6.2c-0.2-0.6-0.6-1-0.8-1.5
	c-0.9-1.8-1.3-4.6-4.6-3.9C260,83.2,260.2,83.1,260,83.2"/>
<path id="XMLID_39_" class="st14" d="M238.8,145.5c0,0,0.1,0.1,0.1,0.1l3.4,2.5c2.9,1.8,2.6,1.5,6.5,1.7c3,0.1,0.1,0.5,4-0.2
	c0.7-0.1,1.5-0.1,2.1-0.4l2.1-1.3c1.9-0.9,1.2-0.7,2.2-1.2c1.3-0.7,2.5-1.5,3.2-2.9c0.7-1.3,0.5-0.5,0.9-1.2c0.2-0.5,0.2-0.4,0.2-1
	l-0.2-0.2c0,0-0.2-0.2-0.2-0.2c-0.2-0.2-0.1-0.1-0.4-0.2c-0.5-0.2-0.4-0.1-0.9-0.3c-0.9-0.3-0.6-0.5-1-1.2c-0.6-1-5.7-2-7.4-2.1
	c-2.7-0.2-3.6-0.2-6.2,0.7c-5.4,2-2.7,1.4-6.1,3.3l-1.1,1.2L238.8,145.5z"/>
<path id="XMLID_38_" class="st15" d="M320.5,170.4c0.7,0,1.7-0.1,2.3-0.4l2.1-1.1c1-0.5,1.1-0.2,2-1c0.8-0.8,0.8-0.5,1.7-1.1
	c0.5-0.3,1.1-1.1,1.8-1.7l1.7-1.9c0,0,0.1-0.1,0.1-0.1c0.9-1.2,0.2-1.5,2-2.3c0-2.6,0.3-2.3-1.2-3.7c-1.2-1.1-9.1-1.2-10.5-0.6
	l-1.4,0.8c-0.6,0.3-1.1,0.5-1.7,0.7c-1.7,0.5-0.5,0.8-2.5,2.1c-0.8,0.5-0.7,0.7-1.2,1.1l-1.2,1.1c-0.4,0.6-0.3,1-0.8,1.5
	c-0.3,0.3-0.4,0.3-0.6,0.5c-0.3,0.3-0.3,0.4-0.4,0.8c-1.6,3.5,0.3,3.8,2,4.6l1.6,0.5C317.3,170.6,319.3,170.4,320.5,170.4"/>
<path id="XMLID_37_" class="st14" d="M15.5,187.6c0.6,0,1.8,0,2.4-0.1c0.5-0.1,0.9-0.4,1.6-0.6c5.9-1.6,3.3-0.8,4.7-2.1
	c0.6-0.5,1.6-1,2-1.4c0.2-0.2,0.3-0.4,0.5-0.7c1.2-1.7,1.1,0.4,1.1-3.3c-0.6-0.3-0.9-0.5-1.3-1c-0.6-0.6-0.3-0.6-1.1-1
	c-1.5-0.7-0.8-1.4-2.2-2c-0.7-0.3-6.2-1.2-7.3-1.2c-1.7,0-3,0.2-4.3,0.6c-1,0.3-2.8,0.7-3.6,1.1c-2.4,1.4-1.7,1.1-2.7,2
	c-1.7,1.4-2.1,0.5-2.3,2.4c-0.1,1.1-0.1,1.5,0.4,2l2.6,2.2c0.5,0.4,0.7,0.8,1.2,1.1c0.6,0.4,1.1,0.4,1.8,0.6
	c0.7,0.3,0.8,0.5,1.6,0.7C12.4,187.7,13.1,187.6,15.5,187.6"/>
<path id="XMLID_36_" class="st16" d="M44.8,186.7c1-0.3,2-0.6,3.2-1c2.8-1,2.2-1.5,3.5-2.3c0.5-0.3,0.9-0.3,1.2-1.2l0.2-0.7
	c0.1-0.6,0-0.8-0.5-1c-0.7-0.2-0.4,0-1-0.8c-1.1-1.3-1.5-1-2-1.3c-0.6-0.5-0.1-0.5-1.1-0.4c-0.7,0-0.6-0.1-1.2-0.3
	c-2.8-1-2.1-0.1-3.7-0.4c-0.5-0.1-0.1-0.1-0.7-0.1c-1.6,0.2-3.7,0.9-5,1.8c-1.8,1.3-1,0.8-1.8,1.8c-0.3,0.4-0.9,0.4,0,2.6
	c0.4,1.2,1.1,1.1,1.9,1.5c2.6,1.2,1.2,0.6,3.3,1.3c0.5,0.2,0.6,0.2,1.1,0.2c0.5,0,0.9-0.1,1.4-0.1C44.8,186.3,44.6,187,44.8,186.7
	C44.7,186.6,44.7,186.7,44.8,186.7"/>
<path id="XMLID_35_" class="st15" d="M17.3,170.2c1.2,0.5,2.9,0,4.2,0c3,0,1.4,0.2,2.9-0.6c0.1-0.1,0.6-0.2,0.8-0.3
	c1.9-0.5,2.1-0.6,1.7-2.7c-0.2-0.9,0-0.4-0.4-1c-0.2-0.3-0.2-0.3-0.4-0.7c-0.4-1-0.2-1.4-1.7-2.9c-0.7-0.7-0.2-0.5-1.1-1.2
	c0,0-0.2-0.1-0.2-0.1c0,0-0.1-0.1-0.1-0.1l-1.1-0.7c-0.3-0.2-0.3-0.4-0.6-0.6c-0.3-0.3-0.4-0.3-0.6-0.5c-0.9-0.9-0.2-0.4-1.4-0.9
	c-1.3-0.5-2.3-1.6-3-1.7c-2.7-0.4-12.7-1.5-11.7,3.5c0,0.2,0.3,0.7,0.4,0.9c0.2,0.4,0.2,0.3,0.4,0.7c0.9,1.6,1.6,1.3,1.9,2.6
	c0.7,2.1,1.1,1.2,2.2,2.5c0.4,0.5,3.1,2.3,4.4,2.5C16.3,169.2,16.1,169.7,17.3,170.2"/>
<path id="XMLID_34_" class="st21" d="M142.9,60.6c2.1-4,1.6-1.8,2.2-3.3l0.9-1.7c0,0,0-0.1,0.1-0.1c0.9-1.6,1.1,0.1,1.2-3.4
	c0-1.2,0.1-0.7,0.4-1.4c0.3-0.6-0.2-6.6-0.7-7.5c-0.4-0.8-0.3-0.2-0.9-1c-0.4-0.6-1.1-3.5-1.1-3.6c-2.6-0.1-1.9-0.8-2.7-1.3
	c-0.3-0.1-1-0.3-1.3-0.3c0,0-0.1,0-0.1,0.1c-0.2,0.6-0.1-0.3-1,1.2l-0.7,1c-1.1,1.5-0.4,0-1,1.9c-0.2,0.5-0.6,0.8-0.9,1.3
	c-0.8,1.5-1.8,6.4-1.6,7.5l0.2,1.7c0,0.1,0.9,3.6,1.3,4.4c0.8,1.2,0-0.5,1.2,1.6c0.1,0.3,0.1,0.2,0.2,0.4c0.6,0.7,0-0.5,0.9,1.3
	C140.4,60.9,141.1,60.6,142.9,60.6"/>
<path id="XMLID_33_" class="st16" d="M150.3,73c0.7-0.2,1.2-0.1,2-0.2c0.8-0.1,0.7-0.5,1.4-0.9c0.1-0.1,0.3-0.2,0.4-0.2
	c0.5-0.4,0.3-0.5,0.7-1.1l0.2-0.3c0.2-0.3,0.1,0,0.3-0.3l2.3-2.4c0,0,0.1-0.1,0.1-0.1c2-2,1.1-2.2,2-3.7c0.5-0.8,0.2,0.1,0.4-0.8
	c0.5-2.2-0.6-5.1-0.7-6.1c-0.1-2.4-1.3-2.9-2.2-4.7l-0.4-0.7c-0.1-0.4,0-0.6-0.2-1c-0.1-0.2,0.2-0.8-1.6-0.4l-1.3,0.7
	c-1.2,1.4-1.1,0.7-2,1.8l-0.9,1.2c0,0,0,0.1-0.1,0.1c0,0,0,0.1-0.1,0.1c0,0.1,0,0.1-0.1,0.1l-0.6,1c-0.2,0.3-0.2,0.6-0.3,0.8
	c-0.3,0.6-0.7,0.7-1.1,1.2c-1.2,1.5-1.9,7.2-1.4,9.5c0.2,0.7,1,3.8,1.6,4.3c0,0,0.2,0.1,0.2,0.2C149.9,72,149.8,72,150.3,73"/>
<path id="XMLID_32_" class="st22" d="M133,108.5c-0.2,3.9-0.4,3,0.7,5.2c0.8,1.5,0.1,2.1,2.4,2.1c2.1,0,3.7-1.5,5.1-2.7l0.6-0.6
	c1.1-1,0.3,0.8,1.9-2.5l0.6-1.1c0.9-1.4,1.2-1.1,1.2-2.9c0-2.5,0.2-1.9,0.3-3c0-1.4,0-1.9-0.3-3l-1.2-1.9c-0.9-1-1.2-0.1-2.1,0.2
	c-3,1.1-1.2,0-3.9,1.8l-0.4,0.3c-0.7,0.5-1.3,0.9-1.7,1.7l-1.3,1.9c-0.7,0.7-0.5,1.6-0.9,2.4c-0.2,0.4,0,0.1-0.4,0.6
	C133.1,107.3,133,107.6,133,108.5"/>
<path id="XMLID_31_" class="st15" d="M130.8,81c0,2-0.3,6.9,0.4,8.3c0.1,0.3,0.4,0.9,0.5,1.2c0.3,0.5,0.3,0.3,0.7,1
	c1.2,2.6,0.3,1.8,1.8,3.1c0.5,0.4,0.4,0.5,0.7,0.9l2.4,0l2.2-2.7c0.3-0.3,1.6-0.8,2.3-2.8c0.9-2.5,1.3-0.3,1.9-5.7
	c0.4-3.4,0.5-1.4,0.2-5.2c-0.4-4.3-1.7-4.4-2.3-6.4c-0.2-0.8-0.3-0.9-0.8-1.5c-0.7-1-1.6-1.2-3.3-1c-1,0.1-1.1,0.5-2.5,1.9
	c-0.3,0.3-0.9,1.3-2,2.6L130.8,81z"/>
<path id="XMLID_30_" class="st8" d="M76.2,82.2L73.4,87c-0.3,0.7-0.8,1-0.9,1.7c-0.4,1.7-0.8,8.9,0.1,10.6c1.4,2.8,1.4,3.7,3.3,5.8
	c1.8,2,2.5,3.3,4.4,3.2c3.1-0.1,3.3-2.7,4.1-3.6c1.3-1.4,1.1-4.3,1.7-5.8c0.8-1.7,0.9-2.3,0.4-4.3c-0.4-1.6,0.3-1.5-0.6-2.8
	l-0.6-1.2c-0.5-1.6-1-3.1-1.9-4.5c-0.1-0.2-0.4-0.6-0.5-0.8l-2.1-1.6c-1.1-0.7-0.5-0.7-1.4-1.2C78.4,81.7,76.5,81.9,76.2,82.2"/>
<path id="XMLID_29_" class="st12" d="M86.8,116.1c-0.5-0.3-1.2-0.4-1.7-0.7c-1.1-0.6-0.2-0.6-1.8-0.8c-1.7-0.3-4.8-1-6.7-0.2
	c-1.2,0.4-1.5,2.6-1.4,3.9c0.1,0.9,0.3,1.5,0.4,2.3c0.2,2,0.2,1.3,1.2,2.6c0.2,0.3,0.3,0.4,0.5,0.8c0.4,0.6,0.4,1.1,0.8,1.7
	c0.5,0.8,0.2,0,1,1.6c0.5,0.9,0.3,0.9,1.2,1.6l4,2.5c0.8,0.5,0.8,0.4,1.4,0.9c1.5,1.5,6.9,1.5,9.7,1.5c0.7-1.1,1.2-2,1-4
	c-0.1-0.7,0-1.8-0.3-2.3c-0.2-0.3-1.4-2-1.8-3.3c-0.2-0.7-0.3-1.2-0.7-1.8c-0.3-0.4-0.4-0.3-0.7-0.7c-0.5-0.6-0.1-0.6-0.8-1.3
	l-0.9-0.8c-2.3-2.1-0.3-0.6-3.1-2.5l-0.9-0.6C86.9,116.2,87.2,116.4,86.8,116.1"/>
<path id="XMLID_28_" class="st13" d="M59.1,132c0.1,0.4,0.1,0.2,0.2,0.4c0,0,0,0.1,0,0.1l0.8,2.3c0.5,1,0.4,0.9,1.5,1.9
	c1.1,1,1.8,1.9,3,0.9c0.5-0.4,1.9-1.9,2.3-2.5c1.4-2,0.5-1.1,0.9-2.5c0.1-0.5,0.3-0.7,0.5-1.2c0.2-0.8,0.1-2.6,0.2-3.7
	c0.1-1.2-0.4-1.3-0.5-2.4c-0.1-1.1-1.9-4-2.8-4.8c-1-0.9-1-1.1-1.9-0.7c-0.2,0.1-0.2,0.1-0.4,0.2l-0.2,0.1c-0.5,0.2-0.7,0.5-1.2,1.1
	c-0.6,0.7-1.1,1.3-1.5,2c-0.5,1.1-1,0.7-0.9,2l-0.3,3c-0.4,1.9-0.5,1,0.3,3.2c0,0,0,0.1,0,0.1L59.1,132z"/>
<path id="XMLID_27_" class="st8" d="M51.5,143.8c1.8-0.6,0.8-4.2,0.2-5.3l-0.5-1c-0.1-0.2,0-0.1-0.2-0.3l-1.9-2.9
	c-0.3-0.4-0.6-0.7-0.9-1c-0.1-0.1-0.4-0.4-0.5-0.5c-0.2-0.1-0.5-0.3-0.7-0.4c-0.5-0.2-0.8-0.4-1.1-0.8c-0.5-0.8-0.1-0.6-1.1-0.9
	c-1.3-0.4-0.9-0.6-2.3-1.2c-1.1-0.5-4.6-0.3-5.9-0.2c-0.6,1-0.9,0.9-0.7,3.2l0.3,1.7c0.2,1.3,1.8,4.4,2.7,5.1
	c1.5,1.3,2.7,2.6,4.5,3.4c1.1,0.5,0.8,0.7,1.9,1.1C46.7,144.1,50.2,144.2,51.5,143.8"/>
<path id="XMLID_26_" class="st9" d="M98.4,76.4c-0.7,0.3,0-0.2-0.7,0.5c-0.3,0.3-0.3,0.4-0.6,0.7c-0.7,1.3-0.9,5.1-0.9,6.7
	c0,1,0.2,1.4,0.2,2.3c0.1,1.1-0.1,2.9,0.6,4.3l0.5,0.8c1,1.4,1.3,1,1.8,2c1.1,1.9,3.4,3.6,5.3,4.7c0.6,0.4,1,0.7,1.6,1
	c0.6,0.3,0.9,0.5,1.6,0.8c0.8,0.3,1.1,0.4,2.2,0.1c1.9-0.5,1.1-1.5,1.6-3.3c0.3-1.1,0.5-3.3,0.5-4.7c0-1.8-0.5-5-1.1-6.3
	c-0.4-0.9-1.1-2.4-1.8-2.9l-0.3-0.3c-0.6-0.5-1-1.3-1.3-2.1c-0.6-1.2-0.7-0.4-2.2-1.8c-3.6-3.4-2.1-2-4.9-2.6
	C99.4,76.2,99.3,75.9,98.4,76.4"/>
<path id="XMLID_25_" class="st13" d="M100.6,127.1c-0.2,2.1-0.6,3.5-0.4,5.7l0.4,1.8c0.3,2.1,1.3,3,2.1,4.3c0.5,0.8,0,0.6,0.8,1.3
	c1.7,1.6,0.9,2.5,4.5,4.1c0.6,0.2,0.8,0.5,1.4,0.7c1.1,0.4,2.2,0.5,3.7,0.5c0.9-1.8,1.5-3.2,1.3-5.3c-0.1-1,0.1-1.3,0.1-2
	c0-0.7-0.4-1.2-0.6-1.7c-0.3-1,0.1-2.1-0.9-3.4c-1.6-2-0.9-1.8-1.7-2.7c-0.5-0.5-0.6-0.4-1-1.1c-1.5-2.4-1.7-1.6-3.6-3
	c-1.4-1.1-3.7-1-5.5-0.9C100.8,126.1,100.7,126.1,100.6,127.1"/>
<path id="XMLID_24_" class="st10" d="M32.4,78.4c-0.8,0.5-0.5,0-1.6,0.8c-0.6,0.4,0,0.1-0.7,0.4c-0.5,0.2-0.6,0.3-0.9,0.4
	c-1.5,0.7-1.2,0.2-1.5,1c-0.2,0.6-0.2,1.5-0.1,2.2c0.1,0.6,0.1,0.9,0.3,1.4c0.6,1.1,0.9,1,1.5,1.7c1.1,1.2,0.3,1.9,3.9,3.6
	c0.7,0.3,0.4,0.3,1,0.7c1,0.7,2.6,1.6,3.8,1.8c2.4,0.4,6.9,1,9.1,0.1l0.7-0.4c0.4-0.3,0.2-0.2,0.8-0.5c0.6-0.3,1.3-0.4,1.8-0.7
	c0.6-0.4,2-2,1.7-3.1c-0.3-0.8-0.1-0.1-0.5-0.7c-0.3-0.4-0.2-0.4-0.4-0.9c-0.5-1.2-0.7-1.3-1.6-2l-2.1-1.9c-1.9-1.2-1-0.5-3-1.9
	c-1-0.7-2.1-1.1-3.3-1.6c-1.7-0.9-1.6-0.7-4.2-0.7C36.1,78.2,33.2,77.9,32.4,78.4"/>
<path id="XMLID_23_" class="st11" d="M79.4,134.4c-1-0.1-0.9-0.2-1.7-0.5c-0.8-0.3-1.1,0-1.9-0.2c-0.9-0.1,0.1-0.4-0.9-0.1l-1.9,1.1
	c-2,1.5-0.6,3.8-0.5,4.3c1,3.3,0.3,2,2,4.4c1.1,1.5,2.1,4.1,4.8,6l4.8,2.3c0.7,0.1,1.2,0,2,0c0.2,0,0.8,0.1,1,0.1
	c0.1,0,0.4,0.1,0.4,0.1l2.1,0.6c0.9,0.2,3.3-0.3,3.5-1.7c0.1-0.6-0.1-1.3-0.1-2c0.1-0.8,0.4-1,0.2-1.9l-0.1-0.2
	c-0.9-3-1.8-3.8-3.1-5.9c-1.7-2.8-1.8-2-3.3-3.4c-0.8-0.8-0.8-0.5-2.1-1.4L79.4,134.4z"/>
<path id="XMLID_22_" class="st9" d="M66.9,158.2c-0.8,1.3-1.6,1-1.5,2.6c0,0.9,0.6,2.2,0.9,2.6c0.7,0.9,4.9,3.2,6,3.5
	c0.7,0.1,0.5-0.2,1.4,0.1c0.7,0.2,0.9,0.2,1.5,0.3c1.1,0.2,2.1-0.5,3.3-0.8c1.9-0.4,0.9-0.3,1.9-0.6c1.9-0.5,0.9-0.8,2.1-1.2
	c0.8-0.2,1.2-1.8,0.4-2.6c-0.8-0.9-1.3-2.1-2.7-2.9c-2.5-1.4-1.8-0.7-4.1-2c-0.8-0.5-0.6-0.2-1.3-0.2c-0.3,0-0.9-0.1-1.2-0.1
	c-1.2-0.1-2.2,0.1-3.6,0.2c-0.7,0-1.1,0.1-1.7,0.5C67,158.5,67.9,158.2,66.9,158.2"/>
<path id="XMLID_21_" class="st13" d="M54.7,70.8c-0.7,0.3-0.5,0.1-1.1,1.4c-0.8,1.7-0.4,5-0.4,7c0,1.9,0,2.1,1.1,3.8
	c0.3,0.5,0.5,1.1,0.8,1.7c0.5,1,0.3,1.2,0.8,1.7c0.4,0.5,0.5,0.3,1.2,1.3c1.7,2.6,2.2,2,3.7,3.7c0.9,1,2,1.2,3.3,1.6
	c0.7,0.2,1.2,0.3,2,0.5c0.6,0.2,1.6,1.2,2.8-1.6c1.3-3,0.8-2.7,0.7-6.4c0-1.1-0.2-1-0.4-2.1c-0.2-1.3-0.2-0.9-0.8-1.7
	c-0.4-0.5-0.5-1.1-0.8-1.7l-2.3-3.8c-0.4-0.4-0.3-0.3-0.6-0.7c-0.7-0.7-0.5-0.5-1.3-1.1c-0.8-0.5-0.2-0.6-2.2-2l-1.1-0.8
	c-1-0.6-2.8-1-4.2-1c-0.1,0-0.4,0-0.5,0C54.5,70.8,54.8,70.8,54.7,70.8"/>
<path id="XMLID_20_" class="st15" d="M11.5,107.8c0,1.8,0.5,4.4,1.6,5.6c2.9,3.2,1.5,2.5,5.4,5.4c1.5,1,1.2,0.5,2.7,1.4
	c3.5,2,11.4,1,12.1,0.4c0.3-0.3,0.7-1.1,0.7-1.8c0-0.7-0.1-1.4-0.2-2.1c-0.2-1-0.4-0.9-0.8-1.7c-0.8-1.4-0.6-0.5-1-1.5
	c-1-2.2-1.6-2.5-3.3-3.9c-2-1.7-0.4-0.6-3-1.9c-2.1-1,0.1-0.4-3.4-1.4c-4.2-1.2-4.1-1.5-9.1-0.5l-0.9,0.4
	C11.9,106.6,11.5,106.9,11.5,107.8"/>
<path id="XMLID_19_" class="st16" d="M64.3,111.2c5.2,0,2.4,0.1,4.5-0.6c1-0.3,2.4-0.9,3.2-1.3c0-4.3-0.5-3.2-2.3-6.6
	c-0.1-0.2-0.2-0.4-0.3-0.6c-0.6-1-1.3-1.2-1.9-1.7c-0.5-0.5,0-0.2-1-1.1c-1-0.8-1.3-1.9-3.6-2.5c-3.3-0.9-1.8-1.6-7.1-1.6
	c-5,0-4.3,0.3-5.3,1.5c-0.5,0.5-0.9,0.7-1,1.4c-0.5,2.4,0.5,3.3,1.7,5.1c0.3,0.4,0.3,0.3,0.5,0.6c0,0,0.1,0.1,0.1,0.1l0.3,0.3
	c0.9,1,3.3,3.3,4.5,4c1.6,0.8,0.4,1,2.2,1.4l3.7,1.1C63.3,111,62.5,111.2,64.3,111.2"/>
<path id="XMLID_18_" class="st11" d="M99.5,119.2l1.8-2.2c0,0,0-0.1,0.1-0.1l0.2-0.3c0.9-1.5,1.7-7.9,0.9-9.4
	c-1.4-2.7-0.1-3-1.6-4.5c-1.5-1.5-0.6-2.1-2.5-3.6l-2-1.7c-0.4-0.5-0.6-0.9-1.1-1.4l-1.4-1.1c-0.4-0.1-1.7,0-2.1,0.2l-0.7,0.5
	c0,0-0.2,0.3-0.3,0.3c-2.8,3.5-0.9,1.4-1.9,6.1c-0.2,1.1-0.5,0.8-0.7,1.6c-0.3,1.5,0.7,2.8,0.9,4c0.1,0.9-0.1,1.6,0.2,2.3
	c0.2,0.5,0.7,0.7,1,1.2c0.6,0.9,0.2,2.6,2.8,4.6l1.4,1.1c0.5,0.5,0.2,0.2,0.5,0.6c0.7,0.8,1.2,0.6,2.5,1.3
	C98.2,118.8,98.9,119.1,99.5,119.2"/>
<path id="XMLID_17_" class="st21" d="M38.6,105.4c-0.1,0.5-0.4,1.2-0.6,1.7c-0.2,0.6-0.1,1.3-0.4,1.9l-0.7,1.6
	c-0.2,0.6-0.2,0.3,0.1,1c0,0.1,0,0.1,0.1,0.1l0.6,1.5c0.1,0.4,0.1,0.6,0.1,1c0.1,1.7,0.8,2.3,1.4,3.2c0.4,0.5,0.6,2.2,1.9,3.4
	l0.8,0.9c1.1,1.6-0.6-0.3,1.4,2c1.4,1.5,0.5,0.7,2.3,1.3c0,0,0.7,0.4,0.7,0.4c0.5,0.4,0.9,1.3,2.2,1.4c0.9,0.1,2.4,0.1,3.3-0.3
	c0.8-0.4,0.4-0.1,0.8-2.7c0.2-1.2,0.1-5.9-0.8-7.2c-0.9-1.3-0.4-0.5-0.7-1.6c-0.2-0.9-0.3-0.6-0.5-1.2c-0.4-0.9,0-0.6-0.7-1.4
	L49,111c-1.4-2.1-0.4-0.6-1.8-2.2c-0.5-0.6-1.4-1.7-2.6-2.2C42.6,105.8,40.7,105.4,38.6,105.4"/>
<path id="XMLID_16_" class="st21" d="M25.7,133.7c-0.9,0-1.3-0.3-1.9-0.9l-0.9-0.8c-0.9-0.7-1-0.4-1.9-1c-1.1-0.7,0.6,0.3-0.3-0.2
	l-3.8-1.2c-1.1-0.3-3.7-0.5-5-0.2c-0.8,0.1-1,0.2-1.9,0.4c-4.3,0.6-1.4,0.5-3.3,1.2c-3.6,1.5-1.6,0.5-2.9,1.7
	c-0.4,0.4-1,0.5-1.4,0.9c-0.6,0.6-0.8,2.1-0.4,2.8l2.9,2.8c0.7,0.5,0.5,0.6,1.3,1c1.6,0.7,2.4,0.2,4,1.2l0.3,0.1
	c1.1,0.5,4.2,0.3,5.2-0.1c0.7-0.2,1.1-0.3,1.8-0.5c0.6-0.2,1.2-0.4,1.8-0.5c3-0.6,0.7-1.1,4.1-2.3c1.2-0.5,0.2-0.2,1.3-1l0.7-0.5
	C26.4,135.7,25.8,135.7,25.7,133.7"/>
<path id="XMLID_15_" class="st13" d="M117.2,87.7c0,0.7-0.1,1.1,0.2,1.7c0.3,0.8,0.6,0.6,0.9,1.4l0.1,0.2c0.5,1.2,0.1,0.7,1,1.6
	c0.2,0.2,0.2,0.1,0.4,0.4c0.7,1.1,1,1,1.5,1.5c0.2,0.2,0.1,0.2,0.4,0.4c0.2,0.1,0.3,0.1,0.5,0.3c1,0.7,1.3,1.2,3.4,0.9l0.9-0.3
	c0.6-0.4,0.4-0.6,0.4-1.3c0-0.6,0.2-0.7,0.2-1.3c0-0.9-0.1-3.2-0.6-4c-0.1-0.2-0.1-0.1-0.3-0.4l-0.7-1.6c-0.9-1.9-0.8-1.1-1.6-2
	c-0.4-0.4,0-0.4-1.2-1.1l-1.8-1.2c-0.6-0.4-0.1-0.4-0.9-0.5c-3.2-0.6-2.6,0-2.8,1.4c-0.1,0.7-0.3,0.6-0.3,1.1
	C116.7,86.3,117.1,86.7,117.2,87.7"/>
<path id="XMLID_1_" class="st10" d="M30.7,150.5c0.3,1.6-0.7,3.2,0.7,5.7l0.6,1.4c0.5,1.4,1.2,1.6,2.4,3c0.5,0.5,0.5,0.5,1,0.8
	c0.7,0.5,1.3,1,2.1,1.2c1.8,0.4,1,0.5,2.2,0.6c1,0.1,1.4,0.4,2.2-0.3c0.6-0.5,0.6-0.4,0.4-1.5c-0.2-1.4,1.1-1.4-1.4-5.8
	c-1-1.7-0.2-0.7-1.6-2.3c-0.9-1.2-2.1-1.7-3.2-2.5c-1.4-1-2.8-0.8-3.2-1C31.9,149.4,31.9,149.5,30.7,150.5"/>
<g id="XMLID_291_">
	<path id="XMLID_294_" class="st23" d="M350.9,305.2h1.7v8.9c0,3.5-1.7,4.6-4,4.6c-0.6,0-1.4-0.1-1.8-0.3l0.3-1.4
		c0.4,0.1,0.9,0.3,1.4,0.3c1.5,0,2.4-0.7,2.4-3.3V305.2z"/>
	<path id="XMLID_292_" class="st23" d="M363.3,316c0,1,0,1.9,0.1,2.6h-1.5l-0.1-1.6h0c-0.5,0.8-1.5,1.8-3.1,1.8
		c-1.5,0-3.3-0.8-3.3-4.2V309h1.7v5.3c0,1.8,0.6,3,2.1,3c1.2,0,2-0.8,2.3-1.6c0.1-0.3,0.2-0.6,0.2-0.9V309h1.7V316z"/>
</g>
<g id="XMLID_288_">
	<path id="XMLID_289_" class="st23" d="M366.2,311.6c0-1,0-1.8-0.1-2.6h1.5l0.1,1.6h0c0.5-0.9,1.6-1.8,3.1-1.8
		c1.3,0,3.4,0.8,3.4,4.1v5.7h-1.7v-5.5c0-1.5-0.6-2.8-2.2-2.8c-1.1,0-2,0.8-2.3,1.8c-0.1,0.2-0.1,0.5-0.1,0.8v5.8h-1.7V311.6z"/>
</g>
<g id="XMLID_285_">
	<path id="XMLID_286_" class="st23" d="M379.1,306.3v2.8h2.5v1.3h-2.5v5.2c0,1.2,0.3,1.9,1.3,1.9c0.5,0,0.8-0.1,1-0.1l0.1,1.3
		c-0.3,0.1-0.9,0.2-1.5,0.2c-0.8,0-1.5-0.3-1.9-0.7c-0.5-0.5-0.7-1.4-0.7-2.5v-5.2H376V309h1.5v-2.3L379.1,306.3z"/>
</g>
<g id="XMLID_279_">
	<path id="XMLID_282_" class="st23" d="M392,313.7c0,3.5-2.4,5.1-4.7,5.1c-2.6,0-4.6-1.9-4.6-4.9c0-3.2,2.1-5.1,4.7-5.1
		C390.2,308.8,392,310.8,392,313.7z M384.5,313.8c0,2.1,1.2,3.7,2.9,3.7c1.7,0,2.9-1.6,2.9-3.7c0-1.6-0.8-3.7-2.8-3.7
		C385.4,310.1,384.5,312,384.5,313.8z"/>
	<path id="XMLID_280_" class="st23" d="M394,316.8c0.5,0.3,1.4,0.7,2.3,0.7c1.3,0,1.8-0.6,1.8-1.4c0-0.8-0.5-1.3-1.8-1.8
		c-1.7-0.6-2.5-1.6-2.5-2.7c0-1.5,1.2-2.8,3.3-2.8c1,0,1.8,0.3,2.3,0.6l-0.4,1.3c-0.4-0.2-1.1-0.6-1.9-0.6c-1,0-1.6,0.6-1.6,1.3
		c0,0.8,0.6,1.1,1.8,1.6c1.7,0.6,2.5,1.5,2.5,2.9c0,1.7-1.3,2.9-3.6,2.9c-1,0-2-0.3-2.7-0.7L394,316.8z"/>
</g>
<g id="XMLID_275_">
	<path id="XMLID_276_" class="st23" d="M406.2,305.4c0.8-0.1,1.9-0.3,3.3-0.3c1.7,0,2.9,0.4,3.7,1.1c0.7,0.6,1.2,1.6,1.2,2.8
		c0,1.2-0.4,2.2-1,2.9c-0.9,1-2.4,1.5-4,1.5c-0.5,0-1,0-1.4-0.1v5.3h-1.7V305.4z M408,311.8c0.4,0.1,0.8,0.1,1.4,0.1
		c2.1,0,3.3-1,3.3-2.8c0-1.8-1.2-2.6-3.1-2.6c-0.7,0-1.3,0.1-1.6,0.1V311.8z"/>
</g>
<g id="XMLID_241_">
	<path id="XMLID_272_" class="st23" d="M424.8,313.7c0,3.5-2.4,5.1-4.7,5.1c-2.6,0-4.6-1.9-4.6-4.9c0-3.2,2.1-5.1,4.7-5.1
		C422.9,308.8,424.8,310.8,424.8,313.7z M417.2,313.8c0,2.1,1.2,3.7,2.9,3.7c1.7,0,2.9-1.6,2.9-3.7c0-1.6-0.8-3.7-2.8-3.7
		C418.1,310.1,417.2,312,417.2,313.8z"/>
	<path id="XMLID_270_" class="st23" d="M426.9,312c0-1.1,0-2.1-0.1-3h1.5l0.1,1.9h0.1c0.4-1.3,1.5-2.1,2.6-2.1c0.2,0,0.3,0,0.5,0.1
		v1.6c-0.2,0-0.4-0.1-0.6-0.1c-1.2,0-2.1,0.9-2.3,2.2c0,0.2-0.1,0.5-0.1,0.8v5.1h-1.7V312z"/>
	<path id="XMLID_268_" class="st23" d="M444.5,312.3h-5.2v4.8h5.7v1.4h-7.5v-13.3h7.2v1.4h-5.4v4.2h5.2V312.3z"/>
	<path id="XMLID_266_" class="st23" d="M447.2,304.5h1.7v14.1h-1.7V304.5z"/>
	<path id="XMLID_262_" class="st23" d="M456.1,305.4c0.7-0.2,1.9-0.3,3.1-0.3c1.7,0,2.8,0.3,3.6,1c0.7,0.5,1.1,1.3,1.1,2.4
		c0,1.3-0.8,2.4-2.2,2.9v0c1.3,0.3,2.7,1.4,2.7,3.3c0,1.1-0.5,2-1.1,2.7c-0.9,0.9-2.4,1.2-4.6,1.2c-1.2,0-2.1-0.1-2.7-0.2V305.4z
		 M457.8,310.9h1.6c1.8,0,2.9-0.9,2.9-2.2c0-1.6-1.2-2.2-2.9-2.2c-0.8,0-1.2,0.1-1.5,0.1V310.9z M457.8,317.3
		c0.3,0.1,0.8,0.1,1.4,0.1c1.8,0,3.4-0.7,3.4-2.6c0-1.8-1.6-2.6-3.4-2.6h-1.4V317.3z"/>
	<path id="XMLID_259_" class="st23" d="M468.6,306.3c0,0.6-0.4,1.1-1.1,1.1c-0.6,0-1-0.5-1-1.1c0-0.6,0.5-1.1,1.1-1.1
		C468.2,305.2,468.6,305.7,468.6,306.3z M466.7,318.6V309h1.7v9.6H466.7z"/>
	<path id="XMLID_256_" class="st23" d="M472.2,314.1c0,2.4,1.5,3.3,3.3,3.3c1.2,0,2-0.2,2.6-0.5l0.3,1.2c-0.6,0.3-1.7,0.6-3.2,0.6
		c-2.9,0-4.7-1.9-4.7-4.8c0-2.9,1.7-5.2,4.5-5.2c3.1,0,3.9,2.8,3.9,4.5c0,0.4,0,0.6-0.1,0.8H472.2z M477.3,312.9
		c0-1.1-0.5-2.8-2.4-2.8c-1.7,0-2.5,1.6-2.7,2.8H477.3z"/>
	<path id="XMLID_254_" class="st23" d="M481.1,311.6c0-1,0-1.8-0.1-2.6h1.5l0.1,1.6h0c0.5-0.9,1.6-1.8,3.1-1.8
		c1.3,0,3.4,0.8,3.4,4.1v5.7h-1.7v-5.5c0-1.5-0.6-2.8-2.2-2.8c-1.1,0-2,0.8-2.3,1.8c-0.1,0.2-0.1,0.5-0.1,0.8v5.8h-1.7V311.6z"/>
	<path id="XMLID_251_" class="st23" d="M493,314.1c0,2.4,1.5,3.3,3.3,3.3c1.2,0,2-0.2,2.6-0.5l0.3,1.2c-0.6,0.3-1.7,0.6-3.2,0.6
		c-2.9,0-4.7-1.9-4.7-4.8c0-2.9,1.7-5.2,4.5-5.2c3.1,0,3.9,2.8,3.9,4.5c0,0.4,0,0.6-0.1,0.8H493z M498.1,312.9
		c0-1.1-0.5-2.8-2.4-2.8c-1.7,0-2.5,1.6-2.7,2.8H498.1z"/>
	<path id="XMLID_249_" class="st23" d="M501.6,316.8c0.5,0.3,1.4,0.7,2.3,0.7c1.3,0,1.8-0.6,1.8-1.4c0-0.8-0.5-1.3-1.8-1.8
		c-1.7-0.6-2.5-1.6-2.5-2.7c0-1.5,1.2-2.8,3.3-2.8c1,0,1.8,0.3,2.3,0.6l-0.4,1.3c-0.4-0.2-1.1-0.6-1.9-0.6c-1,0-1.6,0.6-1.6,1.3
		c0,0.8,0.6,1.1,1.8,1.6c1.7,0.6,2.5,1.5,2.5,2.9c0,1.7-1.3,2.9-3.6,2.9c-1,0-2-0.3-2.7-0.7L501.6,316.8z"/>
	<path id="XMLID_247_" class="st23" d="M511.7,306.3v2.8h2.5v1.3h-2.5v5.2c0,1.2,0.3,1.9,1.3,1.9c0.5,0,0.8-0.1,1-0.1l0.1,1.3
		c-0.3,0.1-0.9,0.2-1.5,0.2c-0.8,0-1.5-0.3-1.9-0.7c-0.5-0.5-0.7-1.4-0.7-2.5v-5.2h-1.5V309h1.5v-2.3L511.7,306.3z"/>
	<path id="XMLID_244_" class="st23" d="M521.4,318.6l-0.1-1.2h-0.1c-0.5,0.8-1.6,1.4-2.9,1.4c-1.9,0-2.9-1.4-2.9-2.8
		c0-2.3,2-3.6,5.7-3.6v-0.2c0-0.8-0.2-2.2-2.2-2.2c-0.9,0-1.8,0.3-2.5,0.7l-0.4-1.1c0.8-0.5,1.9-0.9,3.1-0.9c2.9,0,3.6,2,3.6,3.9
		v3.6c0,0.8,0,1.6,0.2,2.3H521.4z M521.2,313.7c-1.9,0-4,0.3-4,2.2c0,1.1,0.7,1.7,1.6,1.7c1.2,0,2-0.8,2.3-1.6
		c0.1-0.2,0.1-0.4,0.1-0.6V313.7z"/>
	<path id="XMLID_242_" class="st23" d="M525.6,312c0-1.1,0-2.1-0.1-3h1.5l0.1,1.9h0.1c0.4-1.3,1.5-2.1,2.6-2.1c0.2,0,0.3,0,0.5,0.1
		v1.6c-0.2,0-0.4-0.1-0.6-0.1c-1.2,0-2.1,0.9-2.3,2.2c0,0.2-0.1,0.5-0.1,0.8v5.1h-1.7V312z"/>
</g>
<g id="XMLID_236_">
	<path id="XMLID_237_" class="st23" d="M536.3,305.4c1-0.2,2.3-0.3,3.6-0.3c2.5,0,4.2,0.6,5.4,1.7c1.2,1.1,1.9,2.6,1.9,4.8
		c0,2.2-0.7,4-1.9,5.2c-1.2,1.2-3.3,1.9-5.9,1.9c-1.2,0-2.2-0.1-3.1-0.2V305.4z M538,317.2c0.4,0.1,1.1,0.1,1.7,0.1
		c3.7,0,5.6-2.1,5.6-5.7c0-3.1-1.7-5.1-5.4-5.1c-0.9,0-1.6,0.1-2,0.2V317.2z"/>
</g>
<g id="XMLID_230_">
	<path id="XMLID_232_" class="st23" d="M550.4,314.1c0,2.4,1.5,3.3,3.3,3.3c1.2,0,2-0.2,2.6-0.5l0.3,1.2c-0.6,0.3-1.7,0.6-3.2,0.6
		c-2.9,0-4.7-1.9-4.7-4.8c0-2.9,1.7-5.2,4.5-5.2c3.1,0,3.9,2.8,3.9,4.5c0,0.4,0,0.6-0.1,0.8H550.4z M555.4,312.9
		c0-1.1-0.5-2.8-2.4-2.8c-1.7,0-2.5,1.6-2.7,2.8H555.4z"/>
</g>
<g id="XMLID_226_">
	<path id="XMLID_227_" class="st23" d="M565.2,306.7h-4v-1.5h9.8v1.5h-4v11.9h-1.7V306.7z"/>
</g>
<g id="XMLID_221_">
	<path id="XMLID_223_" class="st23" d="M579.5,316c0,1,0,1.9,0.1,2.6H578l-0.1-1.6h0c-0.5,0.8-1.5,1.8-3.1,1.8
		c-1.5,0-3.3-0.8-3.3-4.2V309h1.7v5.3c0,1.8,0.6,3,2.1,3c1.2,0,2-0.8,2.3-1.6c0.1-0.3,0.2-0.6,0.2-0.9V309h1.7V316z"/>
</g>
<g id="XMLID_218_">
	<path id="XMLID_219_" class="st23" d="M586.6,305.2h7.1v1.4h-5.4v4.4h5v1.4h-5v6h-1.7V305.2z"/>
</g>
<g id="XMLID_201_">
	<path id="XMLID_215_" class="st23" d="M600.5,318.6l-0.1-1.2h-0.1c-0.5,0.8-1.6,1.4-2.9,1.4c-1.9,0-2.9-1.4-2.9-2.8
		c0-2.3,2-3.6,5.7-3.6v-0.2c0-0.8-0.2-2.2-2.2-2.2c-0.9,0-1.8,0.3-2.5,0.7l-0.4-1.1c0.8-0.5,1.9-0.9,3.1-0.9c2.9,0,3.6,2,3.6,3.9
		v3.6c0,0.8,0,1.6,0.2,2.3H600.5z M600.2,313.7c-1.9,0-4,0.3-4,2.2c0,1.1,0.7,1.7,1.6,1.7c1.2,0,2-0.8,2.3-1.6
		c0.1-0.2,0.1-0.4,0.1-0.6V313.7z"/>
	<path id="XMLID_213_" class="st23" d="M604.7,311.6c0-1,0-1.8-0.1-2.6h1.5l0.1,1.5h0.1c0.5-0.9,1.4-1.8,3-1.8
		c1.3,0,2.3,0.8,2.7,1.9h0c0.3-0.5,0.7-0.9,1.1-1.2c0.6-0.4,1.2-0.7,2.1-0.7c1.3,0,3.1,0.8,3.1,4.2v5.6h-1.7v-5.4
		c0-1.8-0.7-2.9-2.1-2.9c-1,0-1.7,0.7-2,1.6c-0.1,0.2-0.1,0.6-0.1,0.9v5.9h-1.7v-5.7c0-1.5-0.7-2.6-2-2.6c-1.1,0-1.9,0.9-2.1,1.7
		c-0.1,0.3-0.1,0.6-0.1,0.9v5.8h-1.7V311.6z"/>
	<path id="XMLID_210_" class="st23" d="M623,306.3c0,0.6-0.4,1.1-1.1,1.1c-0.6,0-1-0.5-1-1.1c0-0.6,0.5-1.1,1.1-1.1
		C622.6,305.2,623,305.7,623,306.3z M621.1,318.6V309h1.7v9.6H621.1z"/>
	<path id="XMLID_208_" class="st23" d="M625.7,304.5h1.7v14.1h-1.7V304.5z"/>
	<path id="XMLID_205_" class="st23" d="M632.3,306.3c0,0.6-0.4,1.1-1.1,1.1c-0.6,0-1-0.5-1-1.1c0-0.6,0.5-1.1,1.1-1.1
		C631.8,305.2,632.3,305.7,632.3,306.3z M630.3,318.6V309h1.7v9.6H630.3z"/>
	<path id="XMLID_202_" class="st23" d="M640.2,318.6l-0.1-1.2H640c-0.5,0.8-1.6,1.4-2.9,1.4c-1.9,0-2.9-1.4-2.9-2.8
		c0-2.3,2-3.6,5.7-3.6v-0.2c0-0.8-0.2-2.2-2.2-2.2c-0.9,0-1.8,0.3-2.5,0.7l-0.4-1.1c0.8-0.5,1.9-0.9,3.1-0.9c2.9,0,3.6,2,3.6,3.9
		v3.6c0,0.8,0,1.6,0.2,2.3H640.2z M639.9,313.7c-1.9,0-4,0.3-4,2.2c0,1.1,0.7,1.7,1.6,1.7c1.2,0,2-0.8,2.3-1.6
		c0.1-0.2,0.1-0.4,0.1-0.6V313.7z"/>
</g>
<g id="XMLID_179_">
	<path id="XMLID_199_" class="st2" d="M484.7,292.8v-3.2l2.8-2.6c4.8-4.4,7.1-6.9,7.2-9.5c0-1.8-1.1-3.3-3.6-3.3
		c-1.9,0-3.6,1-4.7,1.9l-1.5-3.8c1.7-1.3,4.2-2.3,7.2-2.3c5,0,7.7,3,7.7,7c0,3.8-2.7,6.8-5.9,9.6l-2,1.7v0.1h8.3v4.3H484.7z"/>
	<path id="XMLID_196_" class="st2" d="M519.7,281.5c0,6.9-2.7,11.7-8.4,11.7c-5.7,0-8.2-5.2-8.2-11.5c0-6.5,2.7-11.6,8.4-11.6
		C517.4,270,519.7,275.3,519.7,281.5z M508.3,281.6c0,5.1,1.2,7.6,3.2,7.6c2,0,3.1-2.5,3.1-7.6c0-5-1-7.6-3.1-7.6
		C509.5,274,508.3,276.4,508.3,281.6z"/>
	<path id="XMLID_194_" class="st2" d="M528.8,275L528.8,275l-4.3,2l-0.8-3.9l5.8-2.8h4.3v22.4h-5V275z"/>
	<path id="XMLID_191_" class="st2" d="M542.6,289c0.6,0.1,1.2,0.1,2.2,0c1.6-0.1,3.1-0.6,4.3-1.4c1.4-1,2.4-2.4,2.8-4.1l-0.1,0
		c-1,1-2.4,1.6-4.4,1.6c-3.7,0-6.9-2.7-6.9-7c0-4.4,3.5-8.1,8.3-8.1c5.6,0,8.3,4.4,8.3,9.6c0,4.6-1.5,8.1-3.9,10.3
		c-2.1,1.9-5,3-8.4,3.1c-0.9,0.1-1.8,0-2.3,0V289z M545.7,277.7c0,1.9,1,3.6,3.1,3.6c1.4,0,2.4-0.7,2.8-1.5c0.2-0.3,0.3-0.7,0.3-1.3
		c0-2.4-0.9-4.7-3.2-4.7C547,273.8,545.7,275.4,545.7,277.7z"/>
	<path id="XMLID_189_" class="st2" d="M568.2,282v3.5h-8.9V282H568.2z"/>
	<path id="XMLID_187_" class="st2" d="M570.7,292.8v-3.2l2.8-2.6c4.8-4.4,7.1-6.9,7.2-9.5c0-1.8-1.1-3.3-3.6-3.3
		c-1.9,0-3.6,1-4.7,1.9l-1.5-3.8c1.7-1.3,4.2-2.3,7.2-2.3c5,0,7.7,3,7.7,7c0,3.8-2.7,6.8-5.9,9.6l-2,1.7v0.1h8.3v4.3H570.7z"/>
	<path id="XMLID_184_" class="st2" d="M605.7,281.5c0,6.9-2.7,11.7-8.4,11.7c-5.7,0-8.2-5.2-8.2-11.5c0-6.5,2.7-11.6,8.4-11.6
		C603.4,270,605.7,275.3,605.7,281.5z M594.3,281.6c0,5.1,1.2,7.6,3.2,7.6c2,0,3.1-2.5,3.1-7.6c0-5-1-7.6-3.1-7.6
		C595.5,274,594.2,276.4,594.3,281.6z"/>
	<path id="XMLID_182_" class="st2" d="M608.2,292.8v-3.2l2.8-2.6c4.8-4.4,7.1-6.9,7.2-9.5c0-1.8-1.1-3.3-3.6-3.3
		c-1.9,0-3.6,1-4.7,1.9l-1.5-3.8c1.7-1.3,4.2-2.3,7.2-2.3c5,0,7.7,3,7.7,7c0,3.8-2.7,6.8-5.9,9.6l-2,1.7v0.1h8.3v4.3H608.2z"/>
	<path id="XMLID_180_" class="st2" d="M633.5,275L633.5,275l-4.3,2l-0.8-3.9l5.8-2.8h4.3v22.4h-5V275z"/>
</g>
</svg>
