<?xml version="1.0" encoding="utf-8"?>
<!-- Generator: Adobe Illustrator 19.0.0, SVG Export Plug-In . SVG Version: 6.00 Build 0)  -->
<svg version="1.1" id="Zumpango_Logo_Color" xmlns="http://www.w3.org/2000/svg" xmlns:xlink="http://www.w3.org/1999/xlink"
	 x="0px" y="0px" viewBox="-377 181 203.4 200" style="enable-background:new -377 181 203.4 200;" xml:space="preserve">
<style type="text/css">
	.st0{fill:#A6171B;}
	.st1{fill:none;}
	.st2{fill:#7F7B7B;}
	.st3{enable-background:new    ;}
</style>
<path id="XMLID_77_" class="st0" d="M-239.8,216.5c-1,0-2.1,0-3.1,0c-0.4,0-1.1,0.1-1.1-0.3c0-0.7,0-1.6,0-2.3c-0.9,0-2.3,0-3.2,0.1
	l0,0c0,0.1,0,0.1-0.1,0.1c-0.8-3.8-4.1-6.6-8-6.6l0,0l0.2-3.4l-2-2h-2.2c0,0-0.1,0-0.1-0.1c-3.6-5.2-9.5-8.6-16.2-8.9l0,0h-1.2l0,0
	c-7,0.1-13.1,3.5-16.9,8.9c-0.1,0.1-0.2,0.1-0.3,0.2h-2.2l-2,2l0.2,3.4c0,0,0,0,0,0.1c-4,0-7.2,2.9-8,6.6c0,0,0-0.1-0.1-0.1l0,0
	c-0.9,0-2.3-0.1-3.2-0.1c0,0.7,0,1.6,0,2.3c0,0.4-0.7,0.3-1.1,0.3c-1,0-2.1,0-3.1,0c-0.1,0-0.3,0-0.3,0.1v25.1v28.2v2.3
	c2.8-2.2,6.4-3.5,10.2-3.5c5.6,0,10.6,2.8,13.6,7.1c3.1-4,7.9-6.6,13.2-6.6c5.6,0,10.6,2.8,13.7,7.1c3-4.2,7.9-6.9,13.5-6.9
	c3.8,0,7.3,1.3,10.1,3.4v-3v-28.3v-25.1C-239.6,216.5-239.7,216.5-239.8,216.5 M-276.8,223.7c-5.1,0-9.1-4.1-9.1-9.2
	s4.1-9.2,9.1-9.2c5.1,0,9.1,4.1,9.1,9.2S-271.8,223.7-276.8,223.7"/>
<path id="XMLID_32_" class="st0" d="M-275.7,193.9c-0.1-0.1-0.2-0.2-0.3-0.2c-0.2-0.6-0.1-1.2-0.1-1.9c0.6,0,1,0.1,1.3,0.1
	c0.3-0.6,0.6-1.1,0.7-1.7c0.1-0.4,0.2-0.9-0.1-1.2c-1.2-1.5-1.5-3-0.4-4.6c0.6-0.8-0.4-1.6-2.1-1.9c0,0.1-0.1,0.2-0.1,0.3
	c0,3.5,0,6.9,0,10.4c0,0.4,0,0.6-0.2,0.8l0,0h1.3V193.9L-275.7,193.9z"/>
<path id="XMLID_31_" class="st0" d="M-313.7,315.2h18.2c0-9.4,0-18.9,0-28.3c0-1-0.2-1.9-0.5-2.9c-1.4-3.6-4.1-5.6-7.9-5.9
	c-2.8-0.2-5.3,0.7-7.2,2.7c-1.8,1.8-2.5,4-2.5,6.5C-313.7,296.6-313.7,305.9-313.7,315.2"/>
<path id="XMLID_30_" class="st0" d="M-285.9,315.2h18.2v-28.4c0-1-0.2-1.9-0.5-2.9c-1.4-3.5-4.1-5.6-7.9-5.9
	c-2.8-0.2-5.3,0.7-7.2,2.7c-1.7,1.8-2.5,4-2.5,6.5C-285.9,296.5-285.9,305.8-285.9,315.2"/>
<path id="XMLID_29_" class="st0" d="M-257.6,315.2h18.2V287c0-1-0.2-1.9-0.5-2.9c-1.4-3.6-4.1-5.6-7.9-5.9c-2.8-0.2-5.3,0.7-7.2,2.7
	c-1.8,1.8-2.5,4-2.5,6.5C-257.6,296.6-257.6,305.9-257.6,315.2"/>
<line id="XMLID_28_" class="st1" x1="-279" y1="196.6" x2="-278.2" y2="196.6"/>
<line id="XMLID_27_" class="st1" x1="-275.9" y1="196.6" x2="-278.2" y2="196.6"/>
<line id="XMLID_26_" class="st1" x1="-279.3" y1="193.8" x2="-276.9" y2="193.8"/>
<g id="XMLID_53_">
	<path id="XMLID_25_" class="st2" d="M-328.1,338.6c0,2.7,0.1,5,0.2,6.7h-5.6l-0.3-3h-0.2c-0.8,1.3-2.8,3.4-6.5,3.4
		c-4.2,0-7.3-2.7-7.3-9.1v-12.3h6.5v11.3c0,3,1,4.9,3.2,4.9c1.8,0,2.8-1.2,3.2-2.3c0.2-0.4,0.2-0.9,0.2-1.4v-12.5h6.5v14.3H-328.1z"
		/>
	<path id="XMLID_24_" class="st2" d="M-323.8,331.1c0-2.6-0.1-4.8-0.2-6.7h5.4l0.3,2.8h0.1c0.9-1.3,2.7-3.3,6.3-3.3
		c2.7,0,4.8,1.4,5.7,3.6h0.1c0.8-1.1,1.7-1.9,2.7-2.5c1.1-0.7,2.4-1,3.9-1c4,0,7,2.8,7,9.1v12.4h-6.3v-11.4c0-3-1-4.8-3-4.8
		c-1.5,0-2.5,1-3,2.3c-0.2,0.5-0.3,1.2-0.3,1.7v12.3h-6.3v-11.8c0-2.7-0.9-4.5-3-4.5c-1.7,0-2.6,1.3-3,2.4c-0.2,0.5-0.3,1.1-0.3,1.6
		v12.2h-6.3v-14.4H-323.8z"/>
	<path id="XMLID_65_" class="st2" d="M-288.1,331.4c0-2.7-0.1-5.1-0.2-7h5.6l0.3,2.9h0.1c1.5-2.2,3.9-3.4,6.9-3.4
		c4.5,0,8.6,4,8.6,10.7c0,7.6-4.8,11.2-9.4,11.2c-2.5,0-4.4-1-5.4-2.4h-0.1v10.4h-6.4V331.4z M-281.7,336.3c0,0.5,0,1,0.1,1.4
		c0.4,1.8,1.9,3.1,3.8,3.1c2.8,0,4.4-2.4,4.4-5.9c0-3.3-1.5-5.9-4.4-5.9c-1.8,0-3.4,1.4-3.9,3.3c-0.1,0.3-0.1,0.8-0.1,1.2
		L-281.7,336.3L-281.7,336.3z"/>
	<path id="XMLID_62_" class="st2" d="M-251.9,345.3l-0.4-2.1h-0.1c-1.4,1.7-3.5,2.6-5.9,2.6c-4.2,0-6.7-3.1-6.7-6.4
		c0-5.4,4.8-8.1,12.2-8v-0.3c0-1.1-0.6-2.7-3.8-2.7c-2.1,0-4.4,0.7-5.7,1.6l-1.2-4.2c1.4-0.8,4.3-1.8,8-1.8c6.9,0,9.1,4.1,9.1,9.1
		v7.3c0,2,0.1,3.9,0.3,5.1h-5.8V345.3z M-252.6,335.4c-3.4,0-6,0.8-6,3.3c0,1.7,1.1,2.5,2.5,2.5c1.6,0,2.9-1.1,3.3-2.4
		c0.1-0.3,0.1-0.7,0.1-1.1L-252.6,335.4L-252.6,335.4z"/>
	<path id="XMLID_19_" class="st2" d="M-242.1,331.1c0-2.6-0.1-4.8-0.2-6.7h5.6l0.3,2.9h0.1c0.8-1.3,3-3.3,6.4-3.3
		c4.2,0,7.4,2.8,7.4,9v12.4h-6.4v-11.6c0-2.7-0.9-4.5-3.3-4.5c-1.8,0-2.8,1.2-3.3,2.4c-0.2,0.4-0.3,1-0.3,1.6v12.1h-6.4
		L-242.1,331.1L-242.1,331.1z"/>
	<path id="XMLID_58_" class="st2" d="M-198.3,324.4c-0.1,1.3-0.2,3.1-0.2,6.2v11.7c0,4-0.8,7.3-3.1,9.4c-2.3,2-5.4,2.6-8.4,2.6
		c-2.7,0-5.6-0.6-7.5-1.6l1.3-4.9c1.3,0.8,3.6,1.6,6,1.6c3.1,0,5.4-1.7,5.4-5.5v-1.4h-0.1c-1.2,1.8-3.2,2.7-5.6,2.7
		c-5.1,0-8.8-4.2-8.8-10.3c0-6.7,4.3-11,9.4-11c2.8,0,4.6,1.2,5.7,3h0.1l0.2-2.5H-198.3z M-204.9,332.9c0-0.4,0-0.9-0.1-1.2
		c-0.5-1.7-1.7-2.9-3.5-2.9c-2.3,0-4.2,2.1-4.2,6c0,3.1,1.5,5.6,4.2,5.6c1.7,0,3-1.1,3.4-2.7c0.2-0.5,0.2-1.2,0.2-1.7L-204.9,332.9
		L-204.9,332.9z"/>
	<path id="XMLID_55_" class="st2" d="M-173.6,334.6c0,7.7-5.4,11.2-10.9,11.2c-6.1,0-10.7-4-10.7-10.8s4.4-11.1,11.1-11.1
		C-177.9,323.9-173.6,328.3-173.6,334.6 M-188.6,334.8c0,3.6,1.5,6.3,4.2,6.3c2.5,0,4.1-2.5,4.1-6.3c0-3.1-1.2-6.3-4.1-6.3
		C-187.5,328.5-188.6,331.7-188.6,334.8"/>
	<polygon id="XMLID_14_" class="st2" points="-377,341.1 -360.7,317.4 -360.7,317.2 -375.5,317.2 -375.5,310.7 -350.7,310.7 
		-350.7,315.2 -366.6,338.6 -366.6,338.8 -350.5,338.8 -350.5,345.3 -377,345.3 	"/>
</g>
<g id="XMLID_37_">
	<path id="XMLID_13_" class="st2" d="M-312.8,380.8v-1l1.3-1.3c3-2.9,4.4-4.5,4.4-6.3c0-1.2-0.6-2.4-2.4-2.4c-1.1,0-2,0.6-2.5,1
		l-0.5-1.2c0.8-0.7,2-1.2,3.4-1.2c2.6,0,3.6,1.8,3.6,3.5c0,2.2-1.6,4.1-4.1,6.5l-1,0.9l0,0h5.3v1.4L-312.8,380.8L-312.8,380.8z"/>
	<path id="XMLID_49_" class="st2" d="M-295.5,374.6c0,4.1-1.5,6.4-4.1,6.4c-2.3,0-3.9-2.2-3.9-6.2c0-4.1,1.7-6.3,4.1-6.3
		S-295.5,370.8-295.5,374.6 M-302,374.8c0,3.2,0.9,4.9,2.4,4.9c1.6,0,2.4-2,2.4-5.1c0-3-0.8-4.9-2.4-4.9
		C-301,369.8-302,371.5-302,374.8"/>
	<polygon id="XMLID_10_" class="st2" points="-290.6,370.2 -290.6,370.2 -292.7,371.4 -293,370.1 -290.4,368.7 -289,368.7 
		-289,380.8 -290.6,380.8 	"/>
	<path id="XMLID_45_" class="st2" d="M-283.7,379.7c0.3,0,0.8,0,1.3-0.1c0.9-0.1,1.8-0.5,2.5-1.2c0.8-0.7,1.4-1.8,1.6-3.2h-0.1
		c-0.7,0.8-1.6,1.3-2.8,1.3c-2.1,0-3.5-1.6-3.5-3.7c0-2.3,1.6-4.3,4.1-4.3c2.4,0,3.9,2,3.9,5.1c0,2.7-0.9,4.5-2,5.7
		c-0.9,0.9-2.2,1.5-3.5,1.6c-0.6,0.1-1.1,0.1-1.5,0.1V379.7z M-283.1,372.7c0,1.5,0.9,2.6,2.3,2.6c1.1,0,1.9-0.5,2.3-1.3
		c0.1-0.1,0.1-0.3,0.1-0.6c0-2.1-0.8-3.7-2.4-3.7C-282.2,369.7-283.1,371-283.1,372.7"/>
	<rect id="XMLID_7_" x="-275.5" y="375.2" class="st2" width="4.5" height="1.2"/>
	<path id="XMLID_6_" class="st2" d="M-269.7,380.8v-1l1.3-1.3c3-2.9,4.4-4.5,4.4-6.3c0-1.2-0.6-2.4-2.4-2.4c-1.1,0-2,0.6-2.5,1
		l-0.5-1.2c0.8-0.7,2-1.2,3.4-1.2c2.6,0,3.6,1.8,3.6,3.5c0,2.2-1.6,4.1-4.1,6.5l-1,0.9l0,0h5.3v1.4L-269.7,380.8L-269.7,380.8z"/>
	<path id="XMLID_40_" class="st2" d="M-252.4,374.6c0,4.1-1.5,6.4-4.1,6.4c-2.3,0-3.9-2.2-3.9-6.2c0-4.1,1.7-6.3,4.1-6.3
		C-253.8,368.5-252.4,370.8-252.4,374.6 M-258.8,374.8c0,3.2,1,4.9,2.4,4.9c1.6,0,2.4-2,2.4-5.1c0-3-0.7-4.9-2.4-4.9
		C-257.8,369.8-258.8,371.5-258.8,374.8"/>
	<path id="XMLID_3_" class="st2" d="M-250.9,380.8v-1l1.3-1.3c3-2.9,4.4-4.5,4.4-6.3c0-1.2-0.6-2.4-2.4-2.4c-1.1,0-2,0.6-2.5,1
		l-0.5-1.2c0.8-0.7,2-1.2,3.4-1.2c2.6,0,3.6,1.8,3.6,3.5c0,2.2-1.6,4.1-4.1,6.5l-1,0.9l0,0h5.3v1.4L-250.9,380.8L-250.9,380.8z"/>
	<polygon id="XMLID_2_" class="st2" points="-238,370.2 -238.1,370.2 -240.1,371.4 -240.4,370.1 -237.8,368.7 -236.5,368.7 
		-236.5,380.8 -238,380.8 	"/>
</g>
<g class="st3">
	<path class="st2" d="M-374.2,356.4h2.1v5.5c0,2.5-1.3,3.4-3.4,3.4c-0.5,0-1.1-0.1-1.6-0.2l0.2-1.6c0.3,0.1,0.7,0.2,1.1,0.2
		c0.9,0,1.5-0.4,1.5-1.7V356.4z"/>
	<path class="st2" d="M-363.9,363.1c0,0.8,0,1.5,0.1,2h-1.9l-0.1-0.9h0c-0.3,0.4-0.9,1-2.2,1c-1.4,0-2.4-0.8-2.4-2.8v-3.7h2.2v3.4
		c0,0.9,0.3,1.5,1.1,1.5c0.6,0,0.9-0.4,1.1-0.7c0.1-0.1,0.1-0.3,0.1-0.4v-3.8h2.2V363.1z"/>
	<path class="st2" d="M-362.1,360.8c0-0.8,0-1.5-0.1-2h1.9l0.1,0.9h0c0.3-0.4,1-1,2.1-1c1.4,0,2.5,0.9,2.5,2.7v3.8h-2.1v-3.5
		c0-0.8-0.3-1.4-1.1-1.4c-0.6,0-0.9,0.4-1.1,0.7c-0.1,0.1-0.1,0.3-0.1,0.5v3.7h-2.1V360.8z"/>
	<path class="st2" d="M-351.6,357v1.8h1.5v1.5h-1.5v2.3c0,0.8,0.2,1.1,0.8,1.1c0.3,0,0.5,0,0.6-0.1l0,1.5c-0.3,0.1-0.8,0.2-1.4,0.2
		c-0.7,0-1.3-0.2-1.6-0.5c-0.4-0.4-0.6-1-0.6-1.9v-2.6h-0.9v-1.5h0.9v-1.4L-351.6,357z"/>
	<path class="st2" d="M-342.1,361.9c0,2.3-1.8,3.4-3.6,3.4c-2,0-3.6-1.2-3.6-3.3c0-2.1,1.5-3.4,3.7-3.4
		C-343.5,358.6-342.1,360-342.1,361.9z M-347.1,362c0,1.1,0.5,1.9,1.4,1.9c0.8,0,1.4-0.8,1.4-1.9c0-0.9-0.4-1.9-1.4-1.9
		C-346.7,360-347.1,361-347.1,362z"/>
	<path class="st2" d="M-340.8,363.4c0.4,0.2,1.2,0.5,1.8,0.5c0.6,0,0.9-0.2,0.9-0.5c0-0.3-0.2-0.5-1-0.7c-1.4-0.4-2-1.2-2-1.9
		c0-1.2,1.1-2.1,2.8-2.1c0.8,0,1.5,0.2,1.9,0.4l-0.4,1.4c-0.3-0.2-0.9-0.4-1.5-0.4c-0.5,0-0.8,0.2-0.8,0.5c0,0.3,0.3,0.5,1.1,0.7
		c1.3,0.4,1.9,1,1.9,2c0,1.2-1,2.1-3,2.1c-0.9,0-1.7-0.2-2.2-0.4L-340.8,363.4z"/>
	<path class="st2" d="M-331.8,355.9h2.1v3.6h0c0.2-0.3,0.5-0.5,0.8-0.7c0.3-0.2,0.7-0.2,1.1-0.2c1.4,0,2.4,0.9,2.4,2.8v3.7h-2.1
		v-3.5c0-0.8-0.3-1.4-1.1-1.4c-0.6,0-0.9,0.3-1.1,0.7c-0.1,0.1-0.1,0.3-0.1,0.4v3.8h-2.1V355.9z"/>
	<path class="st2" d="M-319.6,365.1l-0.1-0.6h0c-0.5,0.5-1.2,0.8-2,0.8c-1.4,0-2.2-0.9-2.2-2c0-1.7,1.6-2.4,4-2.4v-0.1
		c0-0.3-0.2-0.8-1.3-0.8c-0.7,0-1.5,0.2-1.9,0.5l-0.4-1.3c0.5-0.2,1.4-0.6,2.7-0.6c2.3,0,3,1.2,3,2.7v2.2c0,0.6,0,1.2,0.1,1.5
		H-319.6z M-319.9,362.1c-1.1,0-2,0.2-2,1c0,0.5,0.4,0.8,0.8,0.8c0.5,0,1-0.3,1.1-0.7c0-0.1,0-0.2,0-0.3V362.1z"/>
	<path class="st2" d="M-310.9,365c-0.4,0.2-1.1,0.3-1.9,0.3c-2.2,0-3.6-1.2-3.6-3.3c0-1.9,1.4-3.4,3.9-3.4c0.6,0,1.2,0.1,1.6,0.2
		l-0.3,1.5c-0.3-0.1-0.6-0.2-1.2-0.2c-1.1,0-1.9,0.7-1.8,1.8c0,1.2,0.8,1.8,1.9,1.8c0.5,0,0.9-0.1,1.2-0.2L-310.9,365z"/>
	<path class="st2" d="M-308.2,362.6c0.1,0.8,0.9,1.2,1.9,1.2c0.7,0,1.3-0.1,1.9-0.3l0.3,1.3c-0.7,0.3-1.6,0.4-2.5,0.4
		c-2.3,0-3.7-1.2-3.7-3.2c0-1.6,1.1-3.4,3.5-3.4c2.2,0,3.1,1.6,3.1,3.2c0,0.3,0,0.6-0.1,0.8H-308.2z M-305.7,361.2
		c0-0.5-0.2-1.3-1.2-1.3c-0.9,0-1.3,0.8-1.3,1.3H-305.7z"/>
	<path class="st2" d="M-302.5,360.8c0-0.8,0-1.5-0.1-2h1.8l0.1,0.9h0c0.3-0.4,0.9-1,2.1-1c0.9,0,1.6,0.4,1.9,1.1h0
		c0.3-0.3,0.6-0.6,0.9-0.8c0.4-0.2,0.8-0.3,1.3-0.3c1.3,0,2.3,0.9,2.3,2.8v3.7h-2.1v-3.5c0-0.9-0.3-1.5-1-1.5c-0.5,0-0.8,0.3-1,0.7
		c-0.1,0.1-0.1,0.4-0.1,0.5v3.7h-2.1v-3.6c0-0.8-0.3-1.4-1-1.4c-0.5,0-0.9,0.4-1,0.7c-0.1,0.2-0.1,0.3-0.1,0.5v3.7h-2.1V360.8z"/>
	<path class="st2" d="M-283.5,361.9c0,2.3-1.8,3.4-3.6,3.4c-2,0-3.6-1.2-3.6-3.3c0-2.1,1.5-3.4,3.7-3.4
		C-284.9,358.6-283.5,360-283.5,361.9z M-288.5,362c0,1.1,0.5,1.9,1.4,1.9c0.8,0,1.4-0.8,1.4-1.9c0-0.9-0.4-1.9-1.4-1.9
		C-288.1,360-288.5,361-288.5,362z"/>
	<path class="st2" d="M-282.2,363.4c0.4,0.2,1.2,0.5,1.8,0.5c0.6,0,0.9-0.2,0.9-0.5c0-0.3-0.2-0.5-1-0.7c-1.4-0.4-2-1.2-2-1.9
		c0-1.2,1.1-2.1,2.8-2.1c0.8,0,1.5,0.2,1.9,0.4l-0.4,1.4c-0.3-0.2-0.9-0.4-1.5-0.4c-0.5,0-0.8,0.2-0.8,0.5c0,0.3,0.3,0.5,1.1,0.7
		c1.3,0.4,1.9,1,1.9,2c0,1.2-1,2.1-3,2.1c-0.9,0-1.7-0.2-2.2-0.4L-282.2,363.4z"/>
	<path class="st2" d="M-265.2,361.8c0-1.1-0.1-2.3-0.1-3.6h0c-0.3,1.1-0.7,2.4-1.1,3.4l-1.2,3.4h-1.7l-1-3.4c-0.3-1-0.6-2.3-0.9-3.4
		h0c-0.1,1.2-0.1,2.5-0.2,3.6l-0.2,3.3h-2l0.6-8.8h2.9l0.9,2.9c0.3,1,0.6,2.1,0.8,3.1h0c0.3-1,0.6-2.2,0.9-3.1l1-2.9h2.8l0.5,8.8
		h-2.1L-265.2,361.8z"/>
	<path class="st2" d="M-259.6,362.6c0.1,0.8,0.9,1.2,1.9,1.2c0.7,0,1.3-0.1,1.9-0.3l0.3,1.3c-0.7,0.3-1.6,0.4-2.5,0.4
		c-2.3,0-3.7-1.2-3.7-3.2c0-1.6,1.1-3.4,3.5-3.4c2.2,0,3.1,1.6,3.1,3.2c0,0.3,0,0.6-0.1,0.8H-259.6z M-257.1,361.2
		c0-0.5-0.2-1.3-1.2-1.3c-0.9,0-1.3,0.8-1.3,1.3H-257.1z"/>
	<path class="st2" d="M-255.3,366.3c0.6,0,1-0.2,1.3-0.4c0.3-0.3,0.4-0.8,0.4-2.1v-5h2.2v5.5c0,1.4-0.3,2.2-1,2.8s-1.6,0.8-2.7,0.8
		L-255.3,366.3z M-251.4,357c0,0.5-0.4,1-1.2,1c-0.7,0-1.1-0.4-1.1-1c0-0.6,0.4-1,1.1-1C-251.8,356-251.4,356.4-251.4,357z"/>
	<path class="st2" d="M-243,361.9c0,2.3-1.8,3.4-3.6,3.4c-2,0-3.6-1.2-3.6-3.3c0-2.1,1.5-3.4,3.7-3.4
		C-244.4,358.6-243,360-243,361.9z M-247.9,362c0,1.1,0.5,1.9,1.4,1.9c0.8,0,1.4-0.8,1.4-1.9c0-0.9-0.4-1.9-1.4-1.9
		C-247.6,360-247.9,361-247.9,362z"/>
	<path class="st2" d="M-241.6,360.9c0-0.9,0-1.5-0.1-2.1h1.8l0.1,1.2h0.1c0.4-0.9,1.2-1.3,1.9-1.3c0.2,0,0.3,0,0.5,0v1.9
		c-0.2,0-0.3-0.1-0.6-0.1c-0.8,0-1.3,0.4-1.5,1c0,0.1,0,0.3,0,0.4v3.2h-2.1V360.9z"/>
	<path class="st2" d="M-225.4,364.7c-0.7,0.2-1.9,0.5-3.2,0.5c-1.7,0-3-0.4-3.9-1.2c-0.9-0.8-1.4-1.9-1.3-3.2c0-2.9,2.3-4.6,5.4-4.6
		c1.2,0,2.2,0.2,2.6,0.4l-0.5,1.6c-0.5-0.2-1.2-0.4-2.2-0.4c-1.8,0-3.1,0.9-3.1,2.8c0,1.8,1.2,2.9,3,2.9c0.5,0,0.9-0.1,1.1-0.1v-1.8
		h-1.5v-1.5h3.5V364.7z"/>
	<path class="st2" d="M-216.9,361.9c0,2.3-1.8,3.4-3.6,3.4c-2,0-3.6-1.2-3.6-3.3c0-2.1,1.5-3.4,3.7-3.4
		C-218.3,358.6-216.9,360-216.9,361.9z M-221.9,362c0,1.1,0.5,1.9,1.4,1.9c0.8,0,1.4-0.8,1.4-1.9c0-0.9-0.4-1.9-1.4-1.9
		C-221.5,360-221.9,361-221.9,362z"/>
	<path class="st2" d="M-215.7,365.1c0-0.4,0.1-1.2,0.1-1.9v-7.3h2.1v3.6h0c0.4-0.5,1.1-0.9,2.1-0.9c1.6,0,2.9,1.3,2.8,3.2
		c0,2.3-1.6,3.4-3.2,3.4c-0.8,0-1.6-0.3-2.1-1h0l-0.1,0.9H-215.7z M-213.5,362.4c0,0.1,0,0.2,0,0.4c0.1,0.5,0.6,0.9,1.3,0.9
		c0.9,0,1.5-0.7,1.5-1.8c0-1-0.5-1.8-1.5-1.8c-0.6,0-1.1,0.4-1.3,1c0,0.1,0,0.2,0,0.4V362.4z"/>
	<path class="st2" d="M-205,357c0,0.5-0.5,1-1.2,1c-0.7,0-1.1-0.4-1.1-1c0-0.6,0.4-1,1.1-1S-205,356.4-205,357z M-207.2,365.1v-6.4
		h2.1v6.4H-207.2z"/>
	<path class="st2" d="M-201.7,362.6c0.1,0.8,0.9,1.2,1.9,1.2c0.7,0,1.3-0.1,1.9-0.3l0.3,1.3c-0.7,0.3-1.6,0.4-2.5,0.4
		c-2.3,0-3.7-1.2-3.7-3.2c0-1.6,1.1-3.4,3.5-3.4c2.2,0,3.1,1.6,3.1,3.2c0,0.3,0,0.6-0.1,0.8H-201.7z M-199.2,361.2
		c0-0.5-0.2-1.3-1.2-1.3c-0.9,0-1.3,0.8-1.3,1.3H-199.2z"/>
	<path class="st2" d="M-195.9,360.9c0-0.9,0-1.5-0.1-2.1h1.8l0.1,1.2h0.1c0.4-0.9,1.2-1.3,1.9-1.3c0.2,0,0.3,0,0.5,0v1.9
		c-0.2,0-0.3-0.1-0.6-0.1c-0.8,0-1.3,0.4-1.5,1c0,0.1,0,0.3,0,0.4v3.2h-2.1V360.9z"/>
	<path class="st2" d="M-190.5,360.8c0-0.8,0-1.5-0.1-2h1.9l0.1,0.9h0c0.3-0.4,1-1,2.1-1c1.4,0,2.5,0.9,2.5,2.7v3.8h-2.1v-3.5
		c0-0.8-0.3-1.4-1.1-1.4c-0.6,0-0.9,0.4-1.1,0.7c-0.1,0.1-0.1,0.3-0.1,0.5v3.7h-2.1V360.8z"/>
	<path class="st2" d="M-175.5,361.9c0,2.3-1.8,3.4-3.6,3.4c-2,0-3.6-1.2-3.6-3.3c0-2.1,1.5-3.4,3.7-3.4
		C-176.9,358.6-175.5,360-175.5,361.9z M-180.5,362c0,1.1,0.5,1.9,1.4,1.9c0.8,0,1.4-0.8,1.4-1.9c0-0.9-0.4-1.9-1.4-1.9
		C-180.1,360-180.5,361-180.5,362z"/>
</g>
</svg>
