<?xml version="1.0" encoding="utf-8"?>
<!-- Generator: Adobe Illustrator 19.0.0, SVG Export Plug-In . SVG Version: 6.00 Build 0)  -->
<svg version="1.1" xmlns="http://www.w3.org/2000/svg" xmlns:xlink="http://www.w3.org/1999/xlink" x="0px" y="0px"
	 viewBox="0 0 203.4 174.2" style="enable-background:new 0 0 203.4 174.2;" xml:space="preserve">
<style type="text/css">
	.st0{display:none;}
	.st1{display:inline;fill:#A6171B;}
	.st2{display:inline;fill:#211915;}
	.st3{display:inline;}
	.st4{fill:#7F7B7B;}
	.st5{display:inline;fill:#7F7B7B;}
	.st6{font-family:'MyriadPro-Bold';}
	.st7{font-size:13.0033px;}
	.st8{fill:#FFFFFF;}
</style>
<g id="Zumpango_Logo_Color" class="st0">
	<path id="XMLID_77_" class="st1" d="M137.2,35.5c-1,0-2.1,0-3.1,0c-0.4,0-1.1,0.1-1.1-0.3c0-0.7,0-1.6,0-2.3c-0.9,0-2.3,0-3.2,0.1
		l0,0c0,0.1,0,0.1-0.1,0.1c-0.8-3.8-4.1-6.6-8-6.6c0,0,0,0,0,0l0.2-3.4l-2-2h-2.2c0,0-0.1,0-0.1-0.1c-3.6-5.2-9.5-8.6-16.2-8.9
		c0,0,0,0,0,0l-1.2,0c0,0,0,0,0,0c-7,0.1-13.1,3.5-16.9,8.9c-0.1,0.1-0.2,0.1-0.3,0.2h-2.2l-2,2l0.2,3.4c0,0,0,0,0,0.1
		c-4,0-7.2,2.9-8,6.6c0,0,0-0.1-0.1-0.1l0,0c-0.9,0-2.3-0.1-3.2-0.1c0,0.7,0,1.6,0,2.3c0,0.4-0.7,0.3-1.1,0.3c-1,0-2.1,0-3.1,0
		c-0.1,0-0.3,0-0.3,0.1v25.1v28.2v2.3c2.8-2.2,6.4-3.5,10.2-3.5c5.6,0,10.6,2.8,13.6,7.1c3.1-4,7.9-6.6,13.2-6.6
		c5.6,0,10.6,2.8,13.7,7.1c3-4.2,7.9-6.9,13.5-6.9c3.8,0,7.3,1.3,10.1,3.4v-3V60.7V35.6C137.4,35.5,137.3,35.5,137.2,35.5
		 M100.2,42.7c-5.1,0-9.1-4.1-9.1-9.2c0-5.1,4.1-9.2,9.1-9.2c5.1,0,9.1,4.1,9.1,9.2C109.3,38.6,105.2,42.7,100.2,42.7"/>
	<path id="XMLID_32_" class="st1" d="M101.3,12.9c-0.1-0.1-0.2-0.2-0.3-0.2c-0.2-0.6-0.1-1.2-0.1-1.9c0.6,0,1,0.1,1.3,0.1
		c0.3-0.6,0.6-1.1,0.7-1.7c0.1-0.4,0.2-0.9-0.1-1.2c-1.2-1.5-1.5-3-0.4-4.6c0.6-0.8-0.4-1.6-2.1-1.9c0,0.1-0.1,0.2-0.1,0.3
		c0,3.5,0,6.9,0,10.4c0,0.4,0,0.6-0.2,0.8h0H101.3L101.3,12.9L101.3,12.9z"/>
	<path id="XMLID_31_" class="st1" d="M63.3,134.2h18.2c0-9.4,0-18.9,0-28.3c0-1-0.2-1.9-0.5-2.9c-1.4-3.6-4.1-5.6-7.9-5.9
		c-2.8-0.2-5.3,0.7-7.2,2.7c-1.8,1.8-2.5,4-2.5,6.5C63.3,115.6,63.3,124.9,63.3,134.2"/>
	<path id="XMLID_30_" class="st1" d="M91.1,134.2h18.2v-28.4c0-1-0.2-1.9-0.5-2.9c-1.4-3.5-4.1-5.6-7.9-5.9
		c-2.8-0.2-5.3,0.7-7.2,2.7c-1.7,1.8-2.5,4-2.5,6.5C91.1,115.5,91.1,124.8,91.1,134.2"/>
	<path id="XMLID_29_" class="st1" d="M119.4,134.2h18.2v-28.2c0-1-0.2-1.9-0.5-2.9c-1.4-3.6-4.1-5.6-7.9-5.9
		c-2.8-0.2-5.3,0.7-7.2,2.7c-1.8,1.8-2.5,4-2.5,6.5C119.4,115.6,119.4,124.9,119.4,134.2"/>
	<line id="XMLID_28_" class="st2" x1="98" y1="15.6" x2="98.8" y2="15.6"/>
	<line id="XMLID_27_" class="st2" x1="101.1" y1="15.6" x2="98.8" y2="15.6"/>
	<line id="XMLID_26_" class="st2" x1="97.7" y1="12.8" x2="100.1" y2="12.8"/>
	<g id="XMLID_53_" class="st3">
		<path id="XMLID_25_" class="st4" d="M48.9,157.6c0,2.7,0.1,5,0.2,6.7h-5.6l-0.3-3H43c-0.8,1.3-2.8,3.4-6.5,3.4
			c-4.2,0-7.3-2.7-7.3-9.1v-12.3h6.5v11.3c0,3,1,4.9,3.2,4.9c1.8,0,2.8-1.2,3.2-2.3c0.2-0.4,0.2-0.9,0.2-1.4v-12.5h6.5V157.6z"/>
		<path id="XMLID_24_" class="st4" d="M53.2,150.1c0-2.6-0.1-4.8-0.2-6.7h5.4l0.3,2.8h0.1c0.9-1.3,2.7-3.3,6.3-3.3
			c2.7,0,4.8,1.4,5.7,3.6h0.1c0.8-1.1,1.7-1.9,2.7-2.5c1.1-0.7,2.4-1,3.9-1c4,0,7,2.8,7,9.1v12.4h-6.3v-11.4c0-3-1-4.8-3-4.8
			c-1.5,0-2.5,1-3,2.3c-0.2,0.5-0.3,1.2-0.3,1.7v12.3h-6.3v-11.8c0-2.7-0.9-4.5-3-4.5c-1.7,0-2.6,1.3-3,2.4
			c-0.2,0.5-0.3,1.1-0.3,1.6v12.2h-6.3V150.1z"/>
		<path id="XMLID_65_" class="st4" d="M88.9,150.4c0-2.7-0.1-5.1-0.2-7h5.6l0.3,2.9h0.1c1.5-2.2,3.9-3.4,6.9-3.4
			c4.5,0,8.6,4,8.6,10.7c0,7.6-4.8,11.2-9.4,11.2c-2.5,0-4.4-1-5.4-2.4h-0.1v10.4h-6.4V150.4z M95.3,155.3c0,0.5,0,1,0.1,1.4
			c0.4,1.8,1.9,3.1,3.8,3.1c2.8,0,4.4-2.4,4.4-5.9c0-3.3-1.5-5.9-4.4-5.9c-1.8,0-3.4,1.4-3.9,3.3c-0.1,0.3-0.1,0.8-0.1,1.2V155.3z"
			/>
		<path id="XMLID_62_" class="st4" d="M125.1,164.3l-0.4-2.1h-0.1c-1.4,1.7-3.5,2.6-5.9,2.6c-4.2,0-6.7-3.1-6.7-6.4
			c0-5.4,4.8-8.1,12.2-8v-0.3c0-1.1-0.6-2.7-3.8-2.7c-2.1,0-4.4,0.7-5.7,1.6l-1.2-4.2c1.4-0.8,4.3-1.8,8-1.8c6.9,0,9.1,4.1,9.1,9.1
			v7.3c0,2,0.1,3.9,0.3,5.1H125.1z M124.4,154.4c-3.4,0-6,0.8-6,3.3c0,1.7,1.1,2.5,2.5,2.5c1.6,0,2.9-1.1,3.3-2.4
			c0.1-0.3,0.1-0.7,0.1-1.1V154.4z"/>
		<path id="XMLID_19_" class="st4" d="M134.9,150.1c0-2.6-0.1-4.8-0.2-6.7h5.6l0.3,2.9h0.1c0.8-1.3,3-3.3,6.4-3.3
			c4.2,0,7.4,2.8,7.4,9v12.4h-6.4v-11.6c0-2.7-0.9-4.5-3.3-4.5c-1.8,0-2.8,1.2-3.3,2.4c-0.2,0.4-0.3,1-0.3,1.6v12.1h-6.4V150.1z"/>
		<path id="XMLID_58_" class="st4" d="M178.7,143.4c-0.1,1.3-0.2,3.1-0.2,6.2v11.7c0,4-0.8,7.3-3.1,9.4c-2.3,2-5.4,2.6-8.4,2.6
			c-2.7,0-5.6-0.6-7.5-1.6l1.3-4.9c1.3,0.8,3.6,1.6,6,1.6c3.1,0,5.4-1.7,5.4-5.5v-1.4h-0.1c-1.2,1.8-3.2,2.7-5.6,2.7
			c-5.1,0-8.8-4.2-8.8-10.3c0-6.7,4.3-11,9.4-11c2.8,0,4.6,1.2,5.7,3h0.1l0.2-2.5H178.7z M172.1,151.9c0-0.4,0-0.9-0.1-1.2
			c-0.5-1.7-1.7-2.9-3.5-2.9c-2.3,0-4.2,2.1-4.2,6c0,3.1,1.5,5.6,4.2,5.6c1.7,0,3-1.1,3.4-2.7c0.2-0.5,0.2-1.2,0.2-1.7V151.9z"/>
		<path id="XMLID_55_" class="st4" d="M203.4,153.6c0,7.7-5.4,11.2-10.9,11.2c-6.1,0-10.7-4-10.7-10.8c0-6.8,4.4-11.1,11.1-11.1
			C199.1,142.9,203.4,147.3,203.4,153.6 M188.4,153.8c0,3.6,1.5,6.3,4.2,6.3c2.5,0,4.1-2.5,4.1-6.3c0-3.1-1.2-6.3-4.1-6.3
			C189.5,147.5,188.4,150.7,188.4,153.8"/>
		<polygon id="XMLID_14_" class="st4" points="0,160.1 16.3,136.4 16.3,136.2 1.5,136.2 1.5,129.7 26.3,129.7 26.3,134.2 
			10.4,157.6 10.4,157.8 26.5,157.8 26.5,164.3 0,164.3 		"/>
	</g>
	<g id="XMLID_37_" class="st3">
		<path id="XMLID_13_" class="st4" d="M64.2,199.8v-1l1.3-1.3c3-2.9,4.4-4.5,4.4-6.3c0-1.2-0.6-2.4-2.4-2.4c-1.1,0-2,0.6-2.5,1
			l-0.5-1.2c0.8-0.7,2-1.2,3.4-1.2c2.6,0,3.6,1.8,3.6,3.5c0,2.2-1.6,4.1-4.1,6.5l-1,0.9v0h5.3v1.4H64.2z"/>
		<path id="XMLID_49_" class="st4" d="M81.5,193.6c0,4.1-1.5,6.4-4.1,6.4c-2.3,0-3.9-2.2-3.9-6.2c0-4.1,1.7-6.3,4.1-6.3
			C80,187.5,81.5,189.8,81.5,193.6 M75,193.8c0,3.2,0.9,4.9,2.4,4.9c1.6,0,2.4-2,2.4-5.1c0-3-0.8-4.9-2.4-4.9
			C76,188.8,75,190.5,75,193.8"/>
		<polygon id="XMLID_10_" class="st4" points="86.4,189.2 86.4,189.2 84.3,190.4 84,189.1 86.6,187.7 88,187.7 88,199.8 86.4,199.8 
					"/>
		<path id="XMLID_45_" class="st4" d="M93.3,198.7c0.3,0,0.8,0,1.3-0.1c0.9-0.1,1.8-0.5,2.5-1.2c0.8-0.7,1.4-1.8,1.6-3.2h-0.1
			c-0.7,0.8-1.6,1.3-2.8,1.3c-2.1,0-3.5-1.6-3.5-3.7c0-2.3,1.6-4.3,4.1-4.3c2.4,0,3.9,2,3.9,5.1c0,2.7-0.9,4.5-2,5.7
			c-0.9,0.9-2.2,1.5-3.5,1.6c-0.6,0.1-1.1,0.1-1.5,0.1V198.7z M93.9,191.7c0,1.5,0.9,2.6,2.3,2.6c1.1,0,1.9-0.5,2.3-1.3
			c0.1-0.1,0.1-0.3,0.1-0.6c0-2.1-0.8-3.7-2.4-3.7C94.8,188.7,93.9,190,93.9,191.7"/>
		<rect id="XMLID_7_" x="101.5" y="194.2" class="st4" width="4.5" height="1.2"/>
		<path id="XMLID_6_" class="st4" d="M107.3,199.8v-1l1.3-1.3c3-2.9,4.4-4.5,4.4-6.3c0-1.2-0.6-2.4-2.4-2.4c-1.1,0-2,0.6-2.5,1
			l-0.5-1.2c0.8-0.7,2-1.2,3.4-1.2c2.6,0,3.6,1.8,3.6,3.5c0,2.2-1.6,4.1-4.1,6.5l-1,0.9v0h5.3v1.4H107.3z"/>
		<path id="XMLID_40_" class="st4" d="M124.6,193.6c0,4.1-1.5,6.4-4.1,6.4c-2.3,0-3.9-2.2-3.9-6.2c0-4.1,1.7-6.3,4.1-6.3
			C123.2,187.5,124.6,189.8,124.6,193.6 M118.2,193.8c0,3.2,1,4.9,2.4,4.9c1.6,0,2.4-2,2.4-5.1c0-3-0.7-4.9-2.4-4.9
			C119.2,188.8,118.2,190.5,118.2,193.8"/>
		<path id="XMLID_3_" class="st4" d="M126.1,199.8v-1l1.3-1.3c3-2.9,4.4-4.5,4.4-6.3c0-1.2-0.6-2.4-2.4-2.4c-1.1,0-2,0.6-2.5,1
			l-0.5-1.2c0.8-0.7,2-1.2,3.4-1.2c2.6,0,3.6,1.8,3.6,3.5c0,2.2-1.6,4.1-4.1,6.5l-1,0.9v0h5.3v1.4H126.1z"/>
		<polygon id="XMLID_2_" class="st4" points="139,189.2 138.9,189.2 136.9,190.4 136.6,189.1 139.2,187.7 140.5,187.7 140.5,199.8 
			139,199.8 		"/>
	</g>
	<text id="XMLID_1_" transform="matrix(1.0833 0 0 1 6.103516e-005 184.1448)" class="st5 st6 st7">Juntos hacemos Mejor Gobierno</text>
</g>
<g id="Zumpango_Logo_White_Ind">
	<path id="XMLID_112_" class="st8" d="M137.2,35.5c-1,0-2.1,0-3.1,0c-0.4,0-1.1,0.1-1.1-0.3c0-0.7,0-1.6,0-2.3c-0.9,0-2.3,0-3.2,0.1
		l0,0c0,0.1,0,0.1-0.1,0.1c-0.8-3.8-4.1-6.6-8-6.6c0,0,0,0,0,0l0.2-3.4l-2-2h-2.2c0,0-0.1,0-0.1-0.1c-3.6-5.2-9.5-8.6-16.2-8.9
		c0,0,0,0,0,0l-1.2,0c0,0,0,0,0,0c-7,0.1-13.1,3.5-16.9,8.9c-0.1,0.1-0.2,0.1-0.3,0.2h-2.2l-2,2l0.2,3.4c0,0,0,0,0,0.1
		c-4,0-7.2,2.9-8,6.6c0,0,0-0.1-0.1-0.1l0,0c-0.9,0-2.3-0.1-3.2-0.1c0,0.7,0,1.6,0,2.3c0,0.4-0.7,0.3-1.1,0.3c-1,0-2.1,0-3.1,0
		c-0.1,0-0.3,0-0.3,0.1v25.1v28.2v2.3c2.8-2.2,6.4-3.5,10.2-3.5c5.6,0,10.6,2.8,13.6,7.1c3.1-4,7.9-6.6,13.2-6.6
		c5.6,0,10.6,2.8,13.7,7.1c3-4.2,7.9-6.9,13.5-6.9c3.8,0,7.3,1.3,10.1,3.4v-3V60.7V35.6C137.4,35.5,137.3,35.5,137.2,35.5
		 M100.2,42.7c-5.1,0-9.1-4.1-9.1-9.2c0-5.1,4.1-9.2,9.1-9.2c5.1,0,9.1,4.1,9.1,9.2C109.3,38.6,105.2,42.7,100.2,42.7"/>
	<path id="XMLID_111_" class="st8" d="M101.3,12.9c-0.1-0.1-0.2-0.2-0.3-0.2c-0.2-0.6-0.1-1.2-0.1-1.9c0.6,0,1,0.1,1.3,0.1
		c0.3-0.6,0.6-1.1,0.7-1.7c0.1-0.4,0.2-0.9-0.1-1.2c-1.2-1.5-1.5-3-0.4-4.6c0.6-0.8-0.4-1.6-2.1-1.9c0,0.1-0.1,0.2-0.1,0.3
		c0,3.5,0,6.9,0,10.4c0,0.4,0,0.6-0.2,0.8h0H101.3L101.3,12.9L101.3,12.9z"/>
	<path id="XMLID_110_" class="st8" d="M63.3,134.2h18.2c0-9.4,0-18.9,0-28.3c0-1-0.2-1.9-0.5-2.9c-1.4-3.6-4.1-5.6-7.9-5.9
		c-2.8-0.2-5.3,0.7-7.2,2.7c-1.8,1.8-2.5,4-2.5,6.5C63.3,115.6,63.3,124.9,63.3,134.2"/>
	<path id="XMLID_109_" class="st8" d="M91.1,134.2h18.2v-28.4c0-1-0.2-1.9-0.5-2.9c-1.4-3.5-4.1-5.6-7.9-5.9
		c-2.8-0.2-5.3,0.7-7.2,2.7c-1.7,1.8-2.5,4-2.5,6.5C91.1,115.5,91.1,124.8,91.1,134.2"/>
	<path id="XMLID_108_" class="st8" d="M119.4,134.2h18.2v-28.2c0-1-0.2-1.9-0.5-2.9c-1.4-3.6-4.1-5.6-7.9-5.9
		c-2.8-0.2-5.3,0.7-7.2,2.7c-1.8,1.8-2.5,4-2.5,6.5C119.4,115.6,119.4,124.9,119.4,134.2"/>
	<g id="XMLID_88_">
		<path id="XMLID_104_" class="st8" d="M48.9,157.6c0,2.7,0.1,5,0.2,6.7h-5.6l-0.3-3H43c-0.8,1.3-2.8,3.4-6.5,3.4
			c-4.2,0-7.3-2.7-7.3-9.1v-12.3h6.5v11.3c0,3,1,4.9,3.2,4.9c1.8,0,2.8-1.2,3.2-2.3c0.2-0.4,0.2-0.9,0.2-1.4v-12.5h6.5V157.6z"/>
		<path id="XMLID_103_" class="st8" d="M53.2,150.1c0-2.6-0.1-4.8-0.2-6.7h5.4l0.3,2.8h0.1c0.9-1.3,2.7-3.3,6.3-3.3
			c2.7,0,4.8,1.4,5.7,3.6h0.1c0.8-1.1,1.7-1.9,2.7-2.5c1.1-0.7,2.4-1,3.9-1c4,0,7,2.8,7,9.1v12.4h-6.3v-11.4c0-3-1-4.8-3-4.8
			c-1.5,0-2.5,1-3,2.3c-0.2,0.5-0.3,1.2-0.3,1.7v12.3h-6.3v-11.8c0-2.7-0.9-4.5-3-4.5c-1.7,0-2.6,1.3-3,2.4
			c-0.2,0.5-0.3,1.1-0.3,1.6v12.2h-6.3V150.1z"/>
		<path id="XMLID_100_" class="st8" d="M88.9,150.4c0-2.7-0.1-5.1-0.2-7h5.6l0.3,2.9h0.1c1.5-2.2,3.9-3.4,6.9-3.4
			c4.5,0,8.6,4,8.6,10.7c0,7.6-4.8,11.2-9.4,11.2c-2.5,0-4.4-1-5.4-2.4h-0.1v10.4h-6.4V150.4z M95.3,155.3c0,0.5,0,1,0.1,1.4
			c0.4,1.8,1.9,3.1,3.8,3.1c2.8,0,4.4-2.4,4.4-5.9c0-3.3-1.5-5.9-4.4-5.9c-1.8,0-3.4,1.4-3.9,3.3c-0.1,0.3-0.1,0.8-0.1,1.2V155.3z"
			/>
		<path id="XMLID_97_" class="st8" d="M125.1,164.3l-0.4-2.1h-0.1c-1.4,1.7-3.5,2.6-5.9,2.6c-4.2,0-6.7-3.1-6.7-6.4
			c0-5.4,4.8-8.1,12.2-8v-0.3c0-1.1-0.6-2.7-3.8-2.7c-2.1,0-4.4,0.7-5.7,1.6l-1.2-4.2c1.4-0.8,4.3-1.8,8-1.8c6.9,0,9.1,4.1,9.1,9.1
			v7.3c0,2,0.1,3.9,0.3,5.1H125.1z M124.4,154.4c-3.4,0-6,0.8-6,3.3c0,1.7,1.1,2.5,2.5,2.5c1.6,0,2.9-1.1,3.3-2.4
			c0.1-0.3,0.1-0.7,0.1-1.1V154.4z"/>
		<path id="XMLID_96_" class="st8" d="M134.9,150.1c0-2.6-0.1-4.8-0.2-6.7h5.6l0.3,2.9h0.1c0.8-1.3,3-3.3,6.4-3.3
			c4.2,0,7.4,2.8,7.4,9v12.4h-6.4v-11.6c0-2.7-0.9-4.5-3.3-4.5c-1.8,0-2.8,1.2-3.3,2.4c-0.2,0.4-0.3,1-0.3,1.6v12.1h-6.4V150.1z"/>
		<path id="XMLID_93_" class="st8" d="M178.7,143.4c-0.1,1.3-0.2,3.1-0.2,6.2v11.7c0,4-0.8,7.3-3.1,9.4c-2.3,2-5.4,2.6-8.4,2.6
			c-2.7,0-5.6-0.6-7.5-1.6l1.3-4.9c1.3,0.8,3.6,1.6,6,1.6c3.1,0,5.4-1.7,5.4-5.5v-1.4h-0.1c-1.2,1.8-3.2,2.7-5.6,2.7
			c-5.1,0-8.8-4.2-8.8-10.3c0-6.7,4.3-11,9.4-11c2.8,0,4.6,1.2,5.7,3h0.1l0.2-2.5H178.7z M172.1,151.9c0-0.4,0-0.9-0.1-1.2
			c-0.5-1.7-1.7-2.9-3.5-2.9c-2.3,0-4.2,2.1-4.2,6c0,3.1,1.5,5.6,4.2,5.6c1.7,0,3-1.1,3.4-2.7c0.2-0.5,0.2-1.2,0.2-1.7V151.9z"/>
		<path id="XMLID_90_" class="st8" d="M203.4,153.6c0,7.7-5.4,11.2-10.9,11.2c-6.1,0-10.7-4-10.7-10.8c0-6.8,4.4-11.1,11.1-11.1
			C199.1,142.9,203.4,147.3,203.4,153.6 M188.4,153.8c0,3.6,1.5,6.3,4.2,6.3c2.5,0,4.1-2.5,4.1-6.3c0-3.1-1.2-6.3-4.1-6.3
			C189.5,147.5,188.4,150.7,188.4,153.8"/>
		<polygon id="XMLID_89_" class="st8" points="0,160.1 16.3,136.4 16.3,136.2 1.5,136.2 1.5,129.7 26.3,129.7 26.3,134.2 
			10.4,157.6 10.4,157.8 26.5,157.8 26.5,164.3 0,164.3 		"/>
	</g>
</g>
</svg>
