<svg xmlns="http://www.w3.org/2000/svg" width="102.502" height="51.944" viewBox="0 0 102.502 51.944">
  <g id="icon-oxxo" transform="translate(792.457 932.768)">
    <path id="path8304" d="M-792.457-925.463a6.176,6.176,0,0,1,6.148-6.2h90.192a6.178,6.178,0,0,1,6.148,6.2v39.246a6.175,6.175,0,0,1-6.148,6.2h-90.192a6.174,6.174,0,0,1-6.148-6.2v-39.246" transform="translate(0 -0.974)" fill="#fff"/>
    <path id="path8308" d="M-791.845-927.062a5.682,5.682,0,0,1,5.655-5.706h91.125a5.679,5.679,0,0,1,5.652,5.706v.181H-791.845v-.181" transform="translate(-0.541 0)" fill="#fbb110"/>
    <path id="path8312" d="M-689.414-534.4v.142a5.679,5.679,0,0,1-5.652,5.706H-786.19a5.682,5.682,0,0,1-5.655-5.706v-.142h102.431" transform="translate(-0.541 -352.27)" fill="#fbb110"/>
    <path id="path8316" d="M-720.954-840.976a14.375,14.375,0,0,0,14.31,14.44,14.376,14.376,0,0,0,14.31-14.44,14.377,14.377,0,0,0-14.31-14.443A14.375,14.375,0,0,0-720.954-840.976Zm-68.225,0a14.377,14.377,0,0,0,14.313,14.44,14.376,14.376,0,0,0,14.31-14.44,14.377,14.377,0,0,0-14.31-14.443A14.377,14.377,0,0,0-789.179-840.976Zm99.765,17.452H-759.97a18.186,18.186,0,0,0,3.748-3.8l7.188-9.256,3.139,4,3.493-4.689-3.054-3.924,7.315-9.423c2.323-2.989-2.119-6.5-4.442-3.513l-6.465,8.329-6.573-8.44c-2.326-2.98-6.76.541-4.434,3.524l7.428,9.525-8.037,10.349c-2.856,3.677-5.706,7.049-11.363,7.309h-19.817v-34.742h70.186a18.648,18.648,0,0,0-3.581,3.674l-7.185,9.253-3.142-4-3.49,4.689,3.054,3.921-7.318,9.423c-2.32,2.989,2.122,6.5,4.442,3.513l6.468-8.326,6.573,8.437c2.326,2.983,6.76-.538,4.434-3.521l-7.428-9.528,8.037-10.346c2.623-3.383,5.244-6.5,10.043-7.187h21.338Zm-25.8-17.452a8.606,8.606,0,0,1,8.567-8.646,8.6,8.6,0,0,1,8.564,8.646,8.6,8.6,0,0,1-8.564,8.644A8.606,8.606,0,0,1-715.211-840.976Zm-68.222,0a8.606,8.606,0,0,1,8.567-8.646,8.606,8.606,0,0,1,8.564,8.646,8.605,8.605,0,0,1-8.564,8.644,8.606,8.606,0,0,1-8.567-8.644" transform="translate(-0.541 -65.881)" fill="#e70020"/>
  </g>
</svg>
