<?xml version="1.0" encoding="utf-8"?>
<!-- Generator: Adobe Illustrator 19.0.0, SVG Export Plug-In . SVG Version: 6.00 Build 0)  -->
<svg version="1.1" id="Capa_1" xmlns="http://www.w3.org/2000/svg" xmlns:xlink="http://www.w3.org/1999/xlink" x="0px" y="0px"
	 viewBox="-377 193.8 74.4 132.7" style="enable-background:new -377 193.8 74.4 132.7;" xml:space="preserve">
<style type="text/css">
	.st0{display:none;}
	.st1{display:inline;fill:#A6171B;}
	.st2{display:inline;fill:none;}
	.st3{display:inline;}
	.st4{fill:#7F7B7B;}
	.st5{fill:#FFFFFF;}
</style>
<g id="Zumpango_Logo_Color" class="st0">
	<path id="XMLID_77_" class="st1" d="M-239.8,229.3c-1,0-2.1,0-3.1,0c-0.4,0-1.1,0.1-1.1-0.3c0-0.7,0-1.6,0-2.3
		c-0.9,0-2.3,0-3.2,0.1l0,0c0,0.1,0,0.1-0.1,0.1c-0.8-3.8-4.1-6.6-8-6.6l0,0l0.2-3.4l-2-2h-2.2c0,0-0.1,0-0.1-0.1
		c-3.6-5.2-9.5-8.6-16.2-8.9l0,0h-1.2l0,0c-7,0.1-13.1,3.5-16.9,8.9c-0.1,0.1-0.2,0.1-0.3,0.2h-2.2l-2,2l0.2,3.4c0,0,0,0,0,0.1
		c-4,0-7.2,2.9-8,6.6c0,0,0-0.1-0.1-0.1l0,0c-0.9,0-2.3-0.1-3.2-0.1c0,0.7,0,1.6,0,2.3c0,0.4-0.7,0.3-1.1,0.3c-1,0-2.1,0-3.1,0
		c-0.1,0-0.3,0-0.3,0.1v25.1v28.2v2.3c2.8-2.2,6.4-3.5,10.2-3.5c5.6,0,10.6,2.8,13.6,7.1c3.1-4,7.9-6.6,13.2-6.6
		c5.6,0,10.6,2.8,13.7,7.1c3-4.2,7.9-6.9,13.5-6.9c3.8,0,7.3,1.3,10.1,3.4v-3v-28.3v-25.1C-239.6,229.3-239.7,229.3-239.8,229.3
		 M-276.8,236.5c-5.1,0-9.1-4.1-9.1-9.2s4.1-9.2,9.1-9.2c5.1,0,9.1,4.1,9.1,9.2C-267.7,232.4-271.8,236.5-276.8,236.5"/>
	<path id="XMLID_32_" class="st1" d="M-275.7,206.7c-0.1-0.1-0.2-0.2-0.3-0.2c-0.2-0.6-0.1-1.2-0.1-1.9c0.6,0,1,0.1,1.3,0.1
		c0.3-0.6,0.6-1.1,0.7-1.7c0.1-0.4,0.2-0.9-0.1-1.2c-1.2-1.5-1.5-3-0.4-4.6c0.6-0.8-0.4-1.6-2.1-1.9c0,0.1-0.1,0.2-0.1,0.3
		c0,3.5,0,6.9,0,10.4c0,0.4,0,0.6-0.2,0.8l0,0h1.3V206.7L-275.7,206.7z"/>
	<path id="XMLID_31_" class="st1" d="M-313.7,328h18.2c0-9.4,0-18.9,0-28.3c0-1-0.2-1.9-0.5-2.9c-1.4-3.6-4.1-5.6-7.9-5.9
		c-2.8-0.2-5.3,0.7-7.2,2.7c-1.8,1.8-2.5,4-2.5,6.5C-313.7,309.4-313.7,318.7-313.7,328"/>
	<path id="XMLID_30_" class="st1" d="M-285.9,328h18.2v-28.4c0-1-0.2-1.9-0.5-2.9c-1.4-3.5-4.1-5.6-7.9-5.9
		c-2.8-0.2-5.3,0.7-7.2,2.7c-1.7,1.8-2.5,4-2.5,6.5C-285.9,309.3-285.9,318.6-285.9,328"/>
	<path id="XMLID_29_" class="st1" d="M-257.6,328h18.2v-28.2c0-1-0.2-1.9-0.5-2.9c-1.4-3.6-4.1-5.6-7.9-5.9
		c-2.8-0.2-5.3,0.7-7.2,2.7c-1.8,1.8-2.5,4-2.5,6.5C-257.6,309.4-257.6,318.7-257.6,328"/>
	<line id="XMLID_28_" class="st2" x1="-279" y1="209.4" x2="-278.2" y2="209.4"/>
	<line id="XMLID_27_" class="st2" x1="-275.9" y1="209.4" x2="-278.2" y2="209.4"/>
	<line id="XMLID_26_" class="st2" x1="-279.3" y1="206.6" x2="-276.9" y2="206.6"/>
	<g id="XMLID_53_" class="st3">
		<path id="XMLID_25_" class="st4" d="M-328.1,351.4c0,2.7,0.1,5,0.2,6.7h-5.6l-0.3-3h-0.2c-0.8,1.3-2.8,3.4-6.5,3.4
			c-4.2,0-7.3-2.7-7.3-9.1v-12.3h6.5v11.3c0,3,1,4.9,3.2,4.9c1.8,0,2.8-1.2,3.2-2.3c0.2-0.4,0.2-0.9,0.2-1.4v-12.5h6.5v14.3H-328.1z
			"/>
		<path id="XMLID_24_" class="st4" d="M-323.8,343.9c0-2.6-0.1-4.8-0.2-6.7h5.4l0.3,2.8h0.1c0.9-1.3,2.7-3.3,6.3-3.3
			c2.7,0,4.8,1.4,5.7,3.6h0.1c0.8-1.1,1.7-1.9,2.7-2.5c1.1-0.7,2.4-1,3.9-1c4,0,7,2.8,7,9.1v12.4h-6.3v-11.4c0-3-1-4.8-3-4.8
			c-1.5,0-2.5,1-3,2.3c-0.2,0.5-0.3,1.2-0.3,1.7v12.3h-6.3v-11.8c0-2.7-0.9-4.5-3-4.5c-1.7,0-2.6,1.3-3,2.4
			c-0.2,0.5-0.3,1.1-0.3,1.6v12.2h-6.3v-14.4H-323.8z"/>
		<path id="XMLID_65_" class="st4" d="M-288.1,344.2c0-2.7-0.1-5.1-0.2-7h5.6l0.3,2.9h0.1c1.5-2.2,3.9-3.4,6.9-3.4
			c4.5,0,8.6,4,8.6,10.7c0,7.6-4.8,11.2-9.4,11.2c-2.5,0-4.4-1-5.4-2.4h-0.1v10.4h-6.4V344.2z M-281.7,349.1c0,0.5,0,1,0.1,1.4
			c0.4,1.8,1.9,3.1,3.8,3.1c2.8,0,4.4-2.4,4.4-5.9c0-3.3-1.5-5.9-4.4-5.9c-1.8,0-3.4,1.4-3.9,3.3c-0.1,0.3-0.1,0.8-0.1,1.2
			L-281.7,349.1L-281.7,349.1z"/>
		<path id="XMLID_62_" class="st4" d="M-251.9,358.1l-0.4-2.1h-0.1c-1.4,1.7-3.5,2.6-5.9,2.6c-4.2,0-6.7-3.1-6.7-6.4
			c0-5.4,4.8-8.1,12.2-8v-0.3c0-1.1-0.6-2.7-3.8-2.7c-2.1,0-4.4,0.7-5.7,1.6l-1.2-4.2c1.4-0.8,4.3-1.8,8-1.8c6.9,0,9.1,4.1,9.1,9.1
			v7.3c0,2,0.1,3.9,0.3,5.1h-5.8V358.1z M-252.6,348.2c-3.4,0-6,0.8-6,3.3c0,1.7,1.1,2.5,2.5,2.5c1.6,0,2.9-1.1,3.3-2.4
			c0.1-0.3,0.1-0.7,0.1-1.1L-252.6,348.2L-252.6,348.2z"/>
		<path id="XMLID_19_" class="st4" d="M-242.1,343.9c0-2.6-0.1-4.8-0.2-6.7h5.6l0.3,2.9h0.1c0.8-1.3,3-3.3,6.4-3.3
			c4.2,0,7.4,2.8,7.4,9v12.4h-6.4v-11.6c0-2.7-0.9-4.5-3.3-4.5c-1.8,0-2.8,1.2-3.3,2.4c-0.2,0.4-0.3,1-0.3,1.6v12.1h-6.4
			L-242.1,343.9L-242.1,343.9z"/>
		<path id="XMLID_58_" class="st4" d="M-198.3,337.2c-0.1,1.3-0.2,3.1-0.2,6.2v11.7c0,4-0.8,7.3-3.1,9.4c-2.3,2-5.4,2.6-8.4,2.6
			c-2.7,0-5.6-0.6-7.5-1.6l1.3-4.9c1.3,0.8,3.6,1.6,6,1.6c3.1,0,5.4-1.7,5.4-5.5v-1.4h-0.1c-1.2,1.8-3.2,2.7-5.6,2.7
			c-5.1,0-8.8-4.2-8.8-10.3c0-6.7,4.3-11,9.4-11c2.8,0,4.6,1.2,5.7,3h0.1l0.2-2.5H-198.3z M-204.9,345.7c0-0.4,0-0.9-0.1-1.2
			c-0.5-1.7-1.7-2.9-3.5-2.9c-2.3,0-4.2,2.1-4.2,6c0,3.1,1.5,5.6,4.2,5.6c1.7,0,3-1.1,3.4-2.7c0.2-0.5,0.2-1.2,0.2-1.7L-204.9,345.7
			L-204.9,345.7z"/>
		<path id="XMLID_55_" class="st4" d="M-173.6,347.4c0,7.7-5.4,11.2-10.9,11.2c-6.1,0-10.7-4-10.7-10.8c0-6.8,4.4-11.1,11.1-11.1
			C-177.9,336.7-173.6,341.1-173.6,347.4 M-188.6,347.6c0,3.6,1.5,6.3,4.2,6.3c2.5,0,4.1-2.5,4.1-6.3c0-3.1-1.2-6.3-4.1-6.3
			C-187.5,341.3-188.6,344.5-188.6,347.6"/>
		<polygon id="XMLID_14_" class="st4" points="-377,353.9 -360.7,330.2 -360.7,330 -375.5,330 -375.5,323.5 -350.7,323.5 
			-350.7,328 -366.6,351.4 -366.6,351.6 -350.5,351.6 -350.5,358.1 -377,358.1 		"/>
	</g>
	<g id="XMLID_37_" class="st3">
		<path id="XMLID_13_" class="st4" d="M-312.8,393.6v-1l1.3-1.3c3-2.9,4.4-4.5,4.4-6.3c0-1.2-0.6-2.4-2.4-2.4c-1.1,0-2,0.6-2.5,1
			l-0.5-1.2c0.8-0.7,2-1.2,3.4-1.2c2.6,0,3.6,1.8,3.6,3.5c0,2.2-1.6,4.1-4.1,6.5l-1,0.9l0,0h5.3v1.4h-7.5V393.6z"/>
		<path id="XMLID_49_" class="st4" d="M-295.5,387.4c0,4.1-1.5,6.4-4.1,6.4c-2.3,0-3.9-2.2-3.9-6.2c0-4.1,1.7-6.3,4.1-6.3
			S-295.5,383.6-295.5,387.4 M-302,387.6c0,3.2,0.9,4.9,2.4,4.9c1.6,0,2.4-2,2.4-5.1c0-3-0.8-4.9-2.4-4.9
			C-301,382.6-302,384.3-302,387.6"/>
		<polygon id="XMLID_10_" class="st4" points="-290.6,383 -290.6,383 -292.7,384.2 -293,382.9 -290.4,381.5 -289,381.5 -289,393.6 
			-290.6,393.6 		"/>
		<path id="XMLID_45_" class="st4" d="M-283.7,392.5c0.3,0,0.8,0,1.3-0.1c0.9-0.1,1.8-0.5,2.5-1.2c0.8-0.7,1.4-1.8,1.6-3.2h-0.1
			c-0.7,0.8-1.6,1.3-2.8,1.3c-2.1,0-3.5-1.6-3.5-3.7c0-2.3,1.6-4.3,4.1-4.3c2.4,0,3.9,2,3.9,5.1c0,2.7-0.9,4.5-2,5.7
			c-0.9,0.9-2.2,1.5-3.5,1.6c-0.6,0.1-1.1,0.1-1.5,0.1V392.5z M-283.1,385.5c0,1.5,0.9,2.6,2.3,2.6c1.1,0,1.9-0.5,2.3-1.3
			c0.1-0.1,0.1-0.3,0.1-0.6c0-2.1-0.8-3.7-2.4-3.7C-282.2,382.5-283.1,383.8-283.1,385.5"/>
		<rect id="XMLID_7_" x="-275.5" y="388" class="st4" width="4.5" height="1.2"/>
		<path id="XMLID_6_" class="st4" d="M-269.7,393.6v-1l1.3-1.3c3-2.9,4.4-4.5,4.4-6.3c0-1.2-0.6-2.4-2.4-2.4c-1.1,0-2,0.6-2.5,1
			l-0.5-1.2c0.8-0.7,2-1.2,3.4-1.2c2.6,0,3.6,1.8,3.6,3.5c0,2.2-1.6,4.1-4.1,6.5l-1,0.9l0,0h5.3v1.4h-7.5V393.6z"/>
		<path id="XMLID_40_" class="st4" d="M-252.4,387.4c0,4.1-1.5,6.4-4.1,6.4c-2.3,0-3.9-2.2-3.9-6.2c0-4.1,1.7-6.3,4.1-6.3
			C-253.8,381.3-252.4,383.6-252.4,387.4 M-258.8,387.6c0,3.2,1,4.9,2.4,4.9c1.6,0,2.4-2,2.4-5.1c0-3-0.7-4.9-2.4-4.9
			C-257.8,382.6-258.8,384.3-258.8,387.6"/>
		<path id="XMLID_3_" class="st4" d="M-250.9,393.6v-1l1.3-1.3c3-2.9,4.4-4.5,4.4-6.3c0-1.2-0.6-2.4-2.4-2.4c-1.1,0-2,0.6-2.5,1
			l-0.5-1.2c0.8-0.7,2-1.2,3.4-1.2c2.6,0,3.6,1.8,3.6,3.5c0,2.2-1.6,4.1-4.1,6.5l-1,0.9l0,0h5.3v1.4h-7.5V393.6z"/>
		<polygon id="XMLID_2_" class="st4" points="-238,383 -238.1,383 -240.1,384.2 -240.4,382.9 -237.8,381.5 -236.5,381.5 
			-236.5,393.6 -238,393.6 		"/>
	</g>
	
		<text id="XMLID_1_" transform="matrix(1.0833 0 0 1 -377.0005 377.945)" style="display:inline;fill:#7F7B7B; font-family:'MyriadPro-Bold'; font-size:13.0033px;">Juntos hacemos Mejor Gobierno</text>
</g>
<g id="Zumpango_Logo_White_Ind">
	<path id="XMLID_112_" class="st5" d="M-303,227.8c-1,0-2.1,0-3.1,0c-0.4,0-1.1,0.1-1.1-0.3c0-0.7,0-1.6,0-2.3c-0.9,0-2.3,0-3.2,0.1
		l0,0c0,0.1,0,0.1-0.1,0.1c-0.8-3.8-4.1-6.6-8-6.6l0,0l0.2-3.4l-2-2h-2.2c0,0-0.1,0-0.1-0.1c-3.6-5.2-9.5-8.6-16.2-8.9l0,0h-1.2l0,0
		c-7,0.1-13.1,3.5-16.9,8.9c-0.1,0.1-0.2,0.1-0.3,0.2h-2.2l-2,2l0.2,3.4c0,0,0,0,0,0.1c-4,0-7.2,2.9-8,6.6c0,0,0-0.1-0.1-0.1l0,0
		c-0.9,0-2.3-0.1-3.2-0.1c0,0.7,0,1.6,0,2.3c0,0.4-0.7,0.3-1.1,0.3c-1,0-2.1,0-3.1,0c-0.1,0-0.3,0-0.3,0.1v25.1v28.2v2.3
		c2.8-2.2,6.4-3.5,10.2-3.5c5.6,0,10.6,2.8,13.6,7.1c3.1-4,7.9-6.6,13.2-6.6c5.6,0,10.6,2.8,13.7,7.1c3-4.2,7.9-6.9,13.5-6.9
		c3.8,0,7.3,1.3,10.1,3.4v-3V253v-25.1C-302.8,227.8-302.9,227.8-303,227.8 M-340,235c-5.1,0-9.1-4.1-9.1-9.2s4.1-9.2,9.1-9.2
		c5.1,0,9.1,4.1,9.1,9.2C-330.9,230.9-335,235-340,235"/>
	<path id="XMLID_111_" class="st5" d="M-338.9,205.2c-0.1-0.1-0.2-0.2-0.3-0.2c-0.2-0.6-0.1-1.2-0.1-1.9c0.6,0,1,0.1,1.3,0.1
		c0.3-0.6,0.6-1.1,0.7-1.7c0.1-0.4,0.2-0.9-0.1-1.2c-1.2-1.5-1.5-3-0.4-4.6c0.6-0.8-0.4-1.6-2.1-1.9c0,0.1-0.1,0.2-0.1,0.3
		c0,3.5,0,6.9,0,10.4c0,0.4,0,0.6-0.2,0.8l0,0h1.3V205.2L-338.9,205.2z"/>
	<path id="XMLID_110_" class="st5" d="M-376.9,326.5h18.2c0-9.4,0-18.9,0-28.3c0-1-0.2-1.9-0.5-2.9c-1.4-3.6-4.1-5.6-7.9-5.9
		c-2.8-0.2-5.3,0.7-7.2,2.7c-1.8,1.8-2.5,4-2.5,6.5C-376.9,307.9-376.9,317.2-376.9,326.5"/>
	<path id="XMLID_109_" class="st5" d="M-349.1,326.5h18.2v-28.4c0-1-0.2-1.9-0.5-2.9c-1.4-3.5-4.1-5.6-7.9-5.9
		c-2.8-0.2-5.3,0.7-7.2,2.7c-1.7,1.8-2.5,4-2.5,6.5C-349.1,307.8-349.1,317.1-349.1,326.5"/>
	<path id="XMLID_108_" class="st5" d="M-320.8,326.5h18.2v-28.2c0-1-0.2-1.9-0.5-2.9c-1.4-3.6-4.1-5.6-7.9-5.9
		c-2.8-0.2-5.3,0.7-7.2,2.7c-1.8,1.8-2.5,4-2.5,6.5C-320.8,307.9-320.8,317.2-320.8,326.5"/>
</g>
</svg>
