<?xml version="1.0" encoding="utf-8"?>
<!-- Generator: Adobe Illustrator 19.0.0, SVG Export Plug-In . SVG Version: 6.00 Build 0)  -->
<svg version="1.1" id="Capa_1" xmlns="http://www.w3.org/2000/svg" xmlns:xlink="http://www.w3.org/1999/xlink" x="0px" y="0px"
	 viewBox="0 0 461 134.9" style="enable-background:new 0 0 461 134.9;" xml:space="preserve">
<style type="text/css">
	.st0{fill:#FFFFFF;}
	.st1{enable-background:new    ;}
</style>
<path id="XMLID_77_" class="st0" d="M75,35c-1,0-2.1,0-3.1,0c-0.4,0-1.1,0.1-1.1-0.3c0-0.7,0-1.6,0-2.3c-0.9,0-2.3,0-3.2,0.1l0,0
	c0,0.1,0,0.1-0.1,0.1c-0.8-3.8-4.1-6.6-8-6.6l0,0l0.2-3.4l-2-2h-2.2c0,0-0.1,0-0.1-0.1c-3.6-5.2-9.5-8.6-16.2-8.9l0,0H38l0,0
	c-7,0.1-13.1,3.5-16.9,8.9c-0.1,0.1-0.2,0.1-0.3,0.2h-2.2l-2,2l0.2,3.4c0,0,0,0,0,0.1c-4,0-7.2,2.9-8,6.6c0,0,0-0.1-0.1-0.1l0,0
	c-0.9,0-2.3-0.1-3.2-0.1c0,0.7,0,1.6,0,2.3c0,0.4-0.7,0.3-1.1,0.3c-1,0-2.1,0-3.1,0c-0.1,0-0.3,0-0.3,0.1v25.1v28.2v2.3
	c2.8-2.2,6.4-3.5,10.2-3.5c5.6,0,10.6,2.8,13.6,7.1c3.1-4,7.9-6.6,13.2-6.6c5.6,0,10.6,2.8,13.7,7.1c3-4.2,7.9-6.9,13.5-6.9
	c3.8,0,7.3,1.3,10.1,3.4v-3V60.2V35.1C75.2,35,75.1,35,75,35 M38,42.2c-5.1,0-9.1-4.1-9.1-9.2s4.1-9.2,9.1-9.2
	c5.1,0,9.1,4.1,9.1,9.2C47.1,38.1,43,42.2,38,42.2"/>
<path id="XMLID_32_" class="st0" d="M39.1,12.4c-0.1-0.1-0.2-0.2-0.3-0.2c-0.2-0.6-0.1-1.2-0.1-1.9c0.6,0,1,0.1,1.3,0.1
	c0.3-0.6,0.6-1.1,0.7-1.7c0.1-0.4,0.2-0.9-0.1-1.2c-1.2-1.5-1.5-3-0.4-4.6c0.6-0.8-0.4-1.6-2.1-1.9c0,0.1-0.1,0.2-0.1,0.3
	c0,3.5,0,6.9,0,10.4c0,0.4,0,0.6-0.2,0.8l0,0h1.3V12.4L39.1,12.4z"/>
<path id="XMLID_31_" class="st0" d="M1.1,133.7h18.2c0-9.4,0-18.9,0-28.3c0-1-0.2-1.9-0.5-2.9c-1.4-3.6-4.1-5.6-7.9-5.9
	c-2.8-0.2-5.3,0.7-7.2,2.7c-1.8,1.8-2.5,4-2.5,6.5C1.1,115.1,1.1,124.4,1.1,133.7"/>
<path id="XMLID_30_" class="st0" d="M28.9,133.7h18.2v-28.4c0-1-0.2-1.9-0.5-2.9c-1.4-3.5-4.1-5.6-7.9-5.9c-2.8-0.2-5.3,0.7-7.2,2.7
	c-1.7,1.8-2.5,4-2.5,6.5C28.9,115,28.9,124.3,28.9,133.7"/>
<path id="XMLID_29_" class="st0" d="M57.2,133.7h18.2v-28.2c0-1-0.2-1.9-0.5-2.9C73.5,99,70.8,97,67,96.7c-2.8-0.2-5.3,0.7-7.2,2.7
	c-1.8,1.8-2.5,4-2.5,6.5C57.2,115.1,57.2,124.4,57.2,133.7"/>
<line id="XMLID_28_" class="st0" x1="35.8" y1="15.1" x2="36.6" y2="15.1"/>
<line id="XMLID_27_" class="st0" x1="38.9" y1="15.1" x2="36.6" y2="15.1"/>
<line id="XMLID_26_" class="st0" x1="35.5" y1="12.3" x2="37.9" y2="12.3"/>
<g id="XMLID_53_">
	<path id="XMLID_25_" class="st0" d="M186,59.4c0,4.8,0.2,8.9,0.4,11.9h-10l-0.5-5.3h-0.4c-1.4,2.3-5,6.1-11.6,6.1
		c-7.5,0-13-4.8-13-16.2V34h11.6v20.1c0,5.3,1.8,8.7,5.7,8.7c3.2,0,5-2.1,5.7-4.1c0.4-0.7,0.4-1.6,0.4-2.5V34h11.6v25.5H186z"/>
	<path id="XMLID_24_" class="st0" d="M193.7,46.1c0-4.6-0.2-8.5-0.4-11.9h9.6l0.5,5h0.2c1.6-2.3,4.8-5.9,11.2-5.9
		c4.8,0,8.5,2.5,10.1,6.4h0.2c1.4-2,3-3.4,4.8-4.4c2-1.2,4.3-1.8,6.9-1.8c7.1,0,12.5,5,12.5,16.2v22.1h-11.2V51.4
		c0-5.3-1.8-8.5-5.3-8.5c-2.7,0-4.4,1.8-5.3,4.1c-0.4,0.9-0.5,2.1-0.5,3v21.9h-11.2v-21c0-4.8-1.6-8-5.3-8c-3,0-4.6,2.3-5.3,4.3
		c-0.4,0.9-0.5,2-0.5,2.8v21.7h-11.2V46.1H193.7z"/>
	<path id="XMLID_65_" class="st0" d="M257.2,46.6c0-4.8-0.2-9.1-0.4-12.5h10l0.5,5.2h0.2c2.7-3.9,6.9-6.1,12.3-6.1
		c8,0,15.3,7.1,15.3,19c0,13.5-8.5,19.9-16.7,19.9c-4.4,0-7.8-1.8-9.6-4.3h-0.2v18.5h-11.4V46.6z M268.6,55.3c0,0.9,0,1.8,0.2,2.5
		c0.7,3.2,3.4,5.5,6.8,5.5c5,0,7.8-4.3,7.8-10.5c0-5.9-2.7-10.5-7.8-10.5c-3.2,0-6.1,2.5-6.9,5.9c-0.2,0.5-0.2,1.4-0.2,2.1v5H268.6z
		"/>
	<path id="XMLID_62_" class="st0" d="M321.6,71.3l-0.7-3.7h-0.2c-2.5,3-6.2,4.6-10.5,4.6c-7.5,0-11.9-5.5-11.9-11.4
		c0-9.6,8.5-14.4,21.7-14.2v-0.5c0-2-1.1-4.8-6.8-4.8c-3.7,0-7.8,1.2-10.1,2.8l-2.1-7.5c2.5-1.4,7.7-3.2,14.2-3.2
		c12.3,0,16.2,7.3,16.2,16.2v13c0,3.6,0.2,6.9,0.5,9.1h-10.3V71.3z M320.4,53.7c-6.1,0-10.7,1.4-10.7,5.9c0,3,2,4.4,4.4,4.4
		c2.8,0,5.2-2,5.9-4.3c0.2-0.5,0.2-1.2,0.2-2v-4.1H320.4z"/>
	<path id="XMLID_19_" class="st0" d="M339.1,46.1c0-4.6-0.2-8.5-0.4-11.9h10l0.5,5.2h0.2c1.4-2.3,5.3-5.9,11.4-5.9
		c7.5,0,13.2,5,13.2,16v22.1h-11.4V50.9c0-4.8-1.6-8-5.9-8c-3.2,0-5,2.1-5.9,4.3c-0.4,0.7-0.5,1.8-0.5,2.8v21.5h-11.4V46.1H339.1z"
		/>
	<path id="XMLID_58_" class="st0" d="M417,34.1c-0.2,2.3-0.4,5.5-0.4,11V66c0,7.1-1.4,13-5.5,16.7c-4.1,3.6-9.6,4.6-15,4.6
		c-4.8,0-10-1.1-13.3-2.8l2.3-8.7c2.3,1.4,6.4,2.8,10.7,2.8c5.5,0,9.6-3,9.6-9.8v-2.5h-0.2c-2.1,3.2-5.7,4.8-10,4.8
		c-9.1,0-15.7-7.5-15.7-18.3c0-11.9,7.7-19.6,16.7-19.6c5,0,8.2,2.1,10.1,5.3h0.2l0.4-4.4H417z M405.3,49.3c0-0.7,0-1.6-0.2-2.1
		c-0.9-3-3-5.2-6.2-5.2c-4.1,0-7.5,3.7-7.5,10.7c0,5.5,2.7,10,7.5,10c3,0,5.3-2,6.1-4.8c0.4-0.9,0.4-2.1,0.4-3L405.3,49.3
		L405.3,49.3z"/>
	<path id="XMLID_55_" class="st0" d="M461,52.3c0,13.7-9.6,19.9-19.4,19.9c-10.9,0-19-7.1-19-19.2s7.8-19.8,19.8-19.8
		C453.4,33.3,461,41.1,461,52.3 M434.3,52.7c0,6.4,2.7,11.2,7.5,11.2c4.4,0,7.3-4.4,7.3-11.2c0-5.5-2.1-11.2-7.3-11.2
		C436.3,41.4,434.3,47.1,434.3,52.7"/>
	<polygon id="XMLID_14_" class="st0" points="99,63.9 128,21.7 128,21.3 101.7,21.3 101.7,9.8 145.8,9.8 145.8,17.8 117.5,59.4 
		117.5,59.8 146.2,59.8 146.2,71.3 99,71.3 	"/>
</g>
<g id="XMLID_37_">
	<path id="XMLID_13_" class="st0" d="M213.3,134.5v-1.8l2.3-2.3c5.3-5.2,7.8-8,7.8-11.2c0-2.1-1.1-4.3-4.3-4.3c-2,0-3.6,1.1-4.4,1.8
		l-0.9-2.1c1.4-1.2,3.6-2.1,6.1-2.1c4.6,0,6.4,3.2,6.4,6.2c0,3.9-2.8,7.3-7.3,11.6l-1.8,1.6l0,0h9.4v2.5h-13.3V134.5z"/>
	<path id="XMLID_49_" class="st0" d="M244,123.5c0,7.3-2.7,11.4-7.3,11.4c-4.1,0-6.9-3.9-6.9-11c0-7.3,3-11.2,7.3-11.2
		S244,116.7,244,123.5 M232.5,123.8c0,5.7,1.6,8.7,4.3,8.7c2.8,0,4.3-3.6,4.3-9.1c0-5.3-1.4-8.7-4.3-8.7
		C234.3,114.9,232.5,118,232.5,123.8"/>
	<polygon id="XMLID_10_" class="st0" points="252.8,115.7 252.8,115.7 249,117.8 248.5,115.5 253.1,113 255.6,113 255.6,134.5 
		252.8,134.5 	"/>
	<path id="XMLID_45_" class="st0" d="M265,132.6c0.5,0,1.4,0,2.3-0.2c1.6-0.2,3.2-0.9,4.4-2.1c1.4-1.2,2.5-3.2,2.8-5.7h-0.2
		c-1.2,1.4-2.8,2.3-5,2.3c-3.7,0-6.2-2.8-6.2-6.6c0-4.1,2.8-7.7,7.3-7.7c4.3,0,6.9,3.6,6.9,9.1c0,4.8-1.6,8-3.6,10.1
		c-1.6,1.6-3.9,2.7-6.2,2.8c-1.1,0.2-2,0.2-2.7,0.2V132.6z M266.1,120.1c0,2.7,1.6,4.6,4.1,4.6c2,0,3.4-0.9,4.1-2.3
		c0.2-0.2,0.2-0.5,0.2-1.1c0-3.7-1.4-6.6-4.3-6.6C267.7,114.8,266.1,117.1,266.1,120.1"/>
	<rect id="XMLID_7_" x="279.6" y="124.6" class="st0" width="8" height="2.1"/>
	<path id="XMLID_6_" class="st0" d="M290,134.5v-1.8l2.3-2.3c5.3-5.2,7.8-8,7.8-11.2c0-2.1-1.1-4.3-4.3-4.3c-2,0-3.6,1.1-4.4,1.8
		l-0.9-2.1c1.4-1.2,3.6-2.1,6.1-2.1c4.6,0,6.4,3.2,6.4,6.2c0,3.9-2.8,7.3-7.3,11.6l-1.8,1.6l0,0h9.4v2.5H290V134.5z"/>
	<path id="XMLID_40_" class="st0" d="M320.8,123.5c0,7.3-2.7,11.4-7.3,11.4c-4.1,0-6.9-3.9-6.9-11c0-7.3,3-11.2,7.3-11.2
		C318.3,112.6,320.8,116.7,320.8,123.5 M309.4,123.8c0,5.7,1.8,8.7,4.3,8.7c2.8,0,4.3-3.6,4.3-9.1c0-5.3-1.2-8.7-4.3-8.7
		C311.1,114.9,309.4,118,309.4,123.8"/>
	<path id="XMLID_3_" class="st0" d="M323.4,134.5v-1.8l2.3-2.3c5.3-5.2,7.8-8,7.8-11.2c0-2.1-1.1-4.3-4.3-4.3c-2,0-3.6,1.1-4.4,1.8
		l-0.9-2.1c1.4-1.2,3.6-2.1,6.1-2.1c4.6,0,6.4,3.2,6.4,6.2c0,3.9-2.8,7.3-7.3,11.6l-1.8,1.6l0,0h9.4v2.5h-13.3V134.5z"/>
	<polygon id="XMLID_2_" class="st0" points="346.4,115.7 346.2,115.7 342.6,117.8 342.1,115.5 346.7,113 349.1,113 349.1,134.5 
		346.4,134.5 	"/>
</g>
<g id="XMLID_39_" class="st1">
	<path id="XMLID_41_" class="st0" d="M104,91.1h3.8v9.9c0,4.4-2.3,6-6,6c-0.9,0-2-0.1-2.8-0.4l0.4-2.8c0.5,0.2,1.2,0.3,2,0.3
		c1.6,0,2.6-0.7,2.6-3.1V91.1z"/>
	<path id="XMLID_48_" class="st0" d="M122.4,103c0,1.5,0.1,2.7,0.1,3.6h-3.3l-0.2-1.6h-0.1c-0.5,0.7-1.6,1.9-3.8,1.9
		c-2.5,0-4.3-1.4-4.3-4.9v-6.6h3.8v6.1c0,1.6,0.6,2.6,1.9,2.6c1.1,0,1.7-0.7,1.9-1.2c0.1-0.2,0.1-0.5,0.1-0.8v-6.7h3.8V103z"/>
	<path id="XMLID_54_" class="st0" d="M125.4,99c0-1.4-0.1-2.6-0.1-3.6h3.3l0.2,1.6h0.1c0.5-0.7,1.8-1.8,3.8-1.8
		c2.5,0,4.4,1.5,4.4,4.9v6.7h-3.8v-6.3c0-1.5-0.6-2.5-1.9-2.5c-1.1,0-1.7,0.7-1.9,1.3c-0.1,0.2-0.2,0.6-0.2,0.9v6.5h-3.8V99z"/>
	<path id="XMLID_60_" class="st0" d="M144.2,92.1v3.2h2.7v2.6h-2.7v4.1c0,1.4,0.4,2,1.5,2c0.5,0,0.9,0,1.1-0.1l0,2.7
		c-0.5,0.2-1.4,0.3-2.5,0.3c-1.2,0-2.3-0.4-2.9-1c-0.7-0.7-1.1-1.8-1.1-3.4v-4.6h-1.6v-2.6h1.6v-2.5L144.2,92.1z"/>
	<path id="XMLID_63_" class="st0" d="M161.2,100.9c0,4.1-3.2,6-6.5,6c-3.6,0-6.3-2.2-6.3-5.8s2.6-6,6.5-6
		C158.7,95.1,161.2,97.5,161.2,100.9z M152.3,101c0,1.9,0.9,3.4,2.5,3.4c1.5,0,2.4-1.4,2.4-3.4c0-1.7-0.7-3.4-2.4-3.4
		C153,97.6,152.3,99.3,152.3,101z"/>
	<path id="XMLID_67_" class="st0" d="M163.5,103.6c0.7,0.4,2.2,0.9,3.3,0.9c1.2,0,1.6-0.4,1.6-0.9s-0.4-0.9-1.8-1.3
		c-2.5-0.8-3.5-2.1-3.5-3.4c0-2.1,2-3.7,5-3.7c1.4,0,2.7,0.3,3.5,0.6l-0.7,2.4c-0.6-0.3-1.6-0.6-2.7-0.6c-0.9,0-1.5,0.3-1.5,0.9
		c0,0.5,0.5,0.8,2,1.3c2.3,0.7,3.3,1.8,3.3,3.5c0,2.1-1.8,3.7-5.3,3.7c-1.6,0-3-0.3-4-0.8L163.5,103.6z"/>
	<path id="XMLID_69_" class="st0" d="M179.5,90.2h3.8v6.5h0.1c0.4-0.5,0.9-0.9,1.5-1.2c0.6-0.3,1.3-0.4,2-0.4c2.4,0,4.3,1.6,4.3,5
		v6.6h-3.8v-6.2c0-1.5-0.6-2.5-2-2.5c-1,0-1.6,0.6-1.9,1.2c-0.1,0.2-0.1,0.5-0.1,0.8v6.7h-3.8V90.2z"/>
	<path id="XMLID_73_" class="st0" d="M201.1,106.7l-0.2-1.1h-0.1c-0.8,0.9-2.1,1.4-3.5,1.4c-2.5,0-4-1.7-4-3.5
		c0-2.9,2.9-4.4,7.2-4.3V99c0-0.6-0.4-1.5-2.2-1.5c-1.3,0-2.6,0.4-3.4,0.9l-0.7-2.3c0.9-0.4,2.5-1,4.8-1c4.1,0,5.4,2.2,5.4,4.9v3.9
		c0,1.1,0.1,2.1,0.2,2.8H201.1z M200.7,101.3c-2,0-3.6,0.4-3.6,1.8c0,0.9,0.7,1.3,1.5,1.3c1,0,1.7-0.6,2-1.3
		c0.1-0.2,0.1-0.4,0.1-0.6V101.3z"/>
	<path id="XMLID_76_" class="st0" d="M216.6,106.4c-0.7,0.3-2,0.5-3.4,0.5c-4,0-6.5-2.2-6.5-5.8c0-3.3,2.5-6,7-6
		c1,0,2.1,0.2,2.9,0.4l-0.6,2.6c-0.5-0.2-1.1-0.3-2.1-0.3c-2,0-3.3,1.3-3.3,3.2c0,2.1,1.5,3.2,3.4,3.2c0.9,0,1.6-0.1,2.2-0.3
		L216.6,106.4z"/>
	<path id="XMLID_79_" class="st0" d="M221.4,102.1c0.1,1.5,1.7,2.2,3.5,2.2c1.3,0,2.4-0.2,3.4-0.5l0.5,2.4c-1.3,0.5-2.8,0.7-4.4,0.7
		c-4.2,0-6.5-2.2-6.5-5.8c0-2.9,1.9-6,6.2-6c4,0,5.5,2.8,5.5,5.6c0,0.6-0.1,1.1-0.1,1.4H221.4z M225.9,99.7c0-0.9-0.4-2.3-2.2-2.3
		c-1.6,0-2.3,1.3-2.4,2.3H225.9z"/>
	<path id="XMLID_82_" class="st0" d="M231.7,99c0-1.4-0.1-2.6-0.1-3.6h3.2l0.2,1.5h0.1c0.5-0.7,1.6-1.8,3.7-1.8
		c1.6,0,2.8,0.7,3.4,1.9h0.1c0.5-0.6,1-1,1.6-1.4c0.7-0.4,1.4-0.6,2.3-0.6c2.4,0,4.1,1.5,4.1,4.9v6.7h-3.7v-6.2
		c0-1.6-0.6-2.6-1.8-2.6c-0.9,0-1.5,0.6-1.8,1.2c-0.1,0.3-0.2,0.6-0.2,0.9v6.6h-3.7v-6.3c0-1.4-0.6-2.4-1.8-2.4
		c-1,0-1.6,0.7-1.8,1.3c-0.1,0.3-0.2,0.6-0.2,0.9v6.6h-3.7V99z"/>
	<path id="XMLID_84_" class="st0" d="M265.3,100.9c0,4.1-3.2,6-6.5,6c-3.6,0-6.3-2.2-6.3-5.8s2.6-6,6.5-6
		C262.8,95.1,265.3,97.5,265.3,100.9z M256.5,101c0,1.9,0.9,3.4,2.5,3.4c1.5,0,2.4-1.4,2.4-3.4c0-1.7-0.7-3.4-2.4-3.4
		C257.1,97.6,256.5,99.3,256.5,101z"/>
	<path id="XMLID_87_" class="st0" d="M267.7,103.6c0.7,0.4,2.2,0.9,3.3,0.9c1.2,0,1.6-0.4,1.6-0.9s-0.4-0.9-1.8-1.3
		c-2.5-0.8-3.5-2.1-3.5-3.4c0-2.1,2-3.7,5-3.7c1.4,0,2.7,0.3,3.5,0.6l-0.7,2.4c-0.6-0.3-1.6-0.6-2.7-0.6c-0.9,0-1.5,0.3-1.5,0.9
		c0,0.5,0.5,0.8,2,1.3c2.3,0.7,3.3,1.8,3.3,3.5c0,2.1-1.8,3.7-5.3,3.7c-1.6,0-3-0.3-4-0.8L267.7,103.6z"/>
	<path id="XMLID_89_" class="st0" d="M298.1,100.7c-0.1-1.9-0.2-4.1-0.2-6.4h-0.1c-0.5,2-1.2,4.2-1.9,6l-2.1,6.1h-3l-1.8-6
		c-0.6-1.8-1.1-4.1-1.5-6.1h-0.1c-0.1,2.1-0.2,4.5-0.3,6.5l-0.3,5.9h-3.5l1.1-15.6h5.1l1.7,5.2c0.5,1.8,1.1,3.7,1.4,5.6h0.1
		c0.5-1.8,1.1-3.9,1.6-5.6l1.8-5.2h5l0.9,15.6h-3.7L298.1,100.7z"/>
	<path id="XMLID_91_" class="st0" d="M307.9,102.1c0.1,1.5,1.7,2.2,3.5,2.2c1.3,0,2.4-0.2,3.4-0.5l0.5,2.4c-1.3,0.5-2.8,0.7-4.4,0.7
		c-4.2,0-6.5-2.2-6.5-5.8c0-2.9,1.9-6,6.2-6c4,0,5.5,2.8,5.5,5.6c0,0.6-0.1,1.1-0.1,1.4H307.9z M312.3,99.7c0-0.9-0.4-2.3-2.2-2.3
		c-1.6,0-2.3,1.3-2.4,2.3H312.3z"/>
	<path id="XMLID_94_" class="st0" d="M315.6,108.7c1-0.1,1.8-0.3,2.3-0.7c0.6-0.5,0.8-1.4,0.8-3.7v-9h3.8v9.8c0,2.5-0.6,4-1.7,5
		c-1.1,1-2.9,1.4-4.7,1.4L315.6,108.7z M322.6,92.2c0,1-0.8,1.8-2.1,1.8c-1.2,0-2-0.8-2-1.8c0-1,0.8-1.8,2-1.8
		C321.8,90.4,322.6,91.2,322.6,92.2z"/>
	<path id="XMLID_97_" class="st0" d="M337.6,100.9c0,4.1-3.2,6-6.5,6c-3.6,0-6.3-2.2-6.3-5.8s2.6-6,6.5-6
		C335.1,95.1,337.6,97.5,337.6,100.9z M328.7,101c0,1.9,0.9,3.4,2.5,3.4c1.5,0,2.4-1.4,2.4-3.4c0-1.7-0.7-3.4-2.4-3.4
		C329.4,97.6,328.7,99.3,328.7,101z"/>
	<path id="XMLID_100_" class="st0" d="M339.9,99.1c0-1.7-0.1-2.8-0.1-3.7h3.3l0.1,2.1h0.1c0.6-1.6,2.1-2.3,3.3-2.3
		c0.4,0,0.5,0,0.8,0v3.3c-0.3,0-0.6-0.1-1-0.1c-1.4,0-2.4,0.7-2.6,1.8c0,0.2-0.1,0.5-0.1,0.8v5.7h-3.8V99.1z"/>
	<path id="XMLID_102_" class="st0" d="M368.8,105.9c-1.2,0.4-3.4,0.9-5.6,0.9c-3.1,0-5.3-0.7-6.9-2.1c-1.6-1.3-2.4-3.4-2.4-5.7
		c0-5.2,4.1-8.1,9.7-8.1c2.2,0,3.9,0.4,4.7,0.8l-0.8,2.8c-0.9-0.4-2.1-0.7-3.9-0.7c-3.2,0-5.6,1.7-5.6,5c0,3.2,2.2,5.1,5.3,5.1
		c0.9,0,1.6-0.1,1.9-0.2v-3.3h-2.6v-2.8h6.3V105.9z"/>
	<path id="XMLID_104_" class="st0" d="M383.9,100.9c0,4.1-3.2,6-6.5,6c-3.6,0-6.3-2.2-6.3-5.8s2.6-6,6.5-6
		C381.4,95.1,383.9,97.5,383.9,100.9z M375,101c0,1.9,0.9,3.4,2.5,3.4c1.5,0,2.4-1.4,2.4-3.4c0-1.7-0.7-3.4-2.4-3.4
		C375.7,97.6,375,99.3,375,101z"/>
	<path id="XMLID_107_" class="st0" d="M386.1,106.7c0-0.7,0.1-2.1,0.1-3.4V90.2h3.8v6.5h0.1c0.7-1,2-1.6,3.7-1.6
		c2.9,0,5.1,2.2,5.1,5.7c0,4.1-2.8,6.1-5.6,6.1c-1.4,0-2.8-0.5-3.7-1.8h-0.1l-0.2,1.6H386.1z M390,101.8c0,0.2,0,0.4,0.1,0.6
		c0.3,0.9,1.1,1.7,2.2,1.7c1.6,0,2.6-1.2,2.6-3.2c0-1.8-0.9-3.1-2.6-3.1c-1,0-2,0.7-2.2,1.7c0,0.2-0.1,0.4-0.1,0.6V101.8z"/>
	<path id="XMLID_110_" class="st0" d="M405.2,92.2c0,1-0.8,1.8-2.1,1.8c-1.2,0-2-0.8-2-1.8c0-1,0.8-1.8,2-1.8S405.1,91.2,405.2,92.2
		z M401.2,106.7V95.3h3.8v11.3H401.2z"/>
	<path id="XMLID_113_" class="st0" d="M411,102.1c0.1,1.5,1.7,2.2,3.5,2.2c1.3,0,2.4-0.2,3.4-0.5l0.5,2.4c-1.3,0.5-2.8,0.7-4.4,0.7
		c-4.2,0-6.5-2.2-6.5-5.8c0-2.9,1.9-6,6.2-6c4,0,5.5,2.8,5.5,5.6c0,0.6-0.1,1.1-0.1,1.4H411z M415.5,99.7c0-0.9-0.4-2.3-2.2-2.3
		c-1.6,0-2.3,1.3-2.4,2.3H415.5z"/>
	<path id="XMLID_116_" class="st0" d="M421.3,99.1c0-1.7-0.1-2.8-0.1-3.7h3.3l0.1,2.1h0.1c0.6-1.6,2.1-2.3,3.3-2.3
		c0.4,0,0.5,0,0.8,0v3.3c-0.3,0-0.6-0.1-1-0.1c-1.4,0-2.4,0.7-2.6,1.8c0,0.2-0.1,0.5-0.1,0.8v5.7h-3.8V99.1z"/>
	<path id="XMLID_118_" class="st0" d="M430.9,99c0-1.4-0.1-2.6-0.1-3.6h3.3l0.2,1.6h0.1c0.5-0.7,1.8-1.8,3.8-1.8
		c2.5,0,4.4,1.5,4.4,4.9v6.7h-3.8v-6.3c0-1.5-0.6-2.5-1.9-2.5c-1.1,0-1.7,0.7-1.9,1.3c-0.1,0.2-0.2,0.6-0.2,0.9v6.5h-3.8V99z"/>
	<path id="XMLID_120_" class="st0" d="M457.7,100.9c0,4.1-3.2,6-6.5,6c-3.6,0-6.3-2.2-6.3-5.8s2.6-6,6.5-6
		C455.1,95.1,457.7,97.5,457.7,100.9z M448.8,101c0,1.9,0.9,3.4,2.5,3.4c1.5,0,2.4-1.4,2.4-3.4c0-1.7-0.7-3.4-2.4-3.4
		C449.5,97.6,448.8,99.3,448.8,101z"/>
</g>
</svg>
