<?xml version="1.0" encoding="utf-8"?>
<!-- Generator: Adobe Illustrator 19.0.0, SVG Export Plug-In . SVG Version: 6.00 Build 0)  -->
<svg version="1.1" id="Capa_1" xmlns="http://www.w3.org/2000/svg" xmlns:xlink="http://www.w3.org/1999/xlink" x="0px" y="0px"
	 viewBox="0 0 461 134.9" style="enable-background:new 0 0 461 134.9;" xml:space="preserve">
<style type="text/css">
	.st0{fill:#A6171B;}
	.st1{fill:none;}
	.st2{fill:#7F7B7B;}
</style>
<path id="XMLID_77_" class="st0" d="M74,35c-1,0-2.1,0-3.1,0c-0.4,0-1.1,0.1-1.1-0.3c0-0.7,0-1.6,0-2.3c-0.9,0-2.3,0-3.2,0.1l0,0
	c0,0.1,0,0.1-0.1,0.1c-0.8-3.8-4.1-6.6-8-6.6l0,0l0.2-3.4l-2-2h-2.2c0,0-0.1,0-0.1-0.1c-3.6-5.2-9.5-8.6-16.2-8.9l0,0H37l0,0
	c-7,0.1-13.1,3.5-16.9,8.9c-0.1,0.1-0.2,0.1-0.3,0.2h-2.2l-2,2l0.2,3.4c0,0,0,0,0,0.1c-4,0-7.2,2.9-8,6.6c0,0,0-0.1-0.1-0.1l0,0
	c-0.9,0-2.3-0.1-3.2-0.1c0,0.7,0,1.6,0,2.3c0,0.4-0.7,0.3-1.1,0.3c-1,0-2.1,0-3.1,0c-0.1,0-0.3,0-0.3,0.1v25.1v28.2v2.3
	c2.8-2.2,6.4-3.5,10.2-3.5c5.6,0,10.6,2.8,13.6,7.1c3.1-4,7.9-6.6,13.2-6.6c5.6,0,10.6,2.8,13.7,7.1c3-4.2,7.9-6.9,13.5-6.9
	c3.8,0,7.3,1.3,10.1,3.4v-3V60.2V35.1C74.2,35,74.1,35,74,35 M37,42.2c-5.1,0-9.1-4.1-9.1-9.2s4.1-9.2,9.1-9.2
	c5.1,0,9.1,4.1,9.1,9.2C46.1,38.1,42,42.2,37,42.2"/>
<path id="XMLID_32_" class="st0" d="M39.1,12.4c-0.1-0.1-0.2-0.2-0.3-0.2c-0.2-0.6-0.1-1.2-0.1-1.9c0.6,0,1,0.1,1.3,0.1
	c0.3-0.6,0.6-1.1,0.7-1.7c0.1-0.4,0.2-0.9-0.1-1.2c-1.2-1.5-1.5-3-0.4-4.6c0.6-0.8-0.4-1.6-2.1-1.9c0,0.1-0.1,0.2-0.1,0.3
	c0,3.5,0,6.9,0,10.4c0,0.4,0,0.6-0.2,0.8l0,0h1.3V12.4L39.1,12.4z"/>
<path id="XMLID_31_" class="st0" d="M0.1,133.7h18.2c0-9.4,0-18.9,0-28.3c0-1-0.2-1.9-0.5-2.9c-1.4-3.6-4.1-5.6-7.9-5.9
	c-2.8-0.2-5.3,0.7-7.2,2.7c-1.8,1.8-2.5,4-2.5,6.5C0.1,115.1,0.1,124.4,0.1,133.7"/>
<path id="XMLID_30_" class="st0" d="M27.9,133.7h18.2v-28.4c0-1-0.2-1.9-0.5-2.9c-1.4-3.5-4.1-5.6-7.9-5.9c-2.8-0.2-5.3,0.7-7.2,2.7
	c-1.7,1.8-2.5,4-2.5,6.5C27.9,115,27.9,124.3,27.9,133.7"/>
<path id="XMLID_29_" class="st0" d="M56.2,133.7h18.2v-28.2c0-1-0.2-1.9-0.5-2.9C72.5,99,69.8,97,66,96.7c-2.8-0.2-5.3,0.7-7.2,2.7
	c-1.8,1.8-2.5,4-2.5,6.5C56.2,115.1,56.2,124.4,56.2,133.7"/>
<line id="XMLID_28_" class="st1" x1="35.8" y1="15.1" x2="36.6" y2="15.1"/>
<line id="XMLID_27_" class="st1" x1="38.9" y1="15.1" x2="36.6" y2="15.1"/>
<line id="XMLID_26_" class="st1" x1="35.5" y1="12.3" x2="37.9" y2="12.3"/>
<g id="XMLID_53_">
	<path id="XMLID_25_" class="st2" d="M185,78.3c0,4.8,0.2,8.9,0.4,11.9h-10l-0.5-5.3h-0.4c-1.4,2.3-5,6.1-11.6,6.1
		c-7.5,0-13-4.8-13-16.2V52.8h11.6V73c0,5.3,1.8,8.7,5.7,8.7c3.2,0,5-2.1,5.7-4.1c0.4-0.7,0.4-1.6,0.4-2.5V52.8h11.6v25.5H185z"/>
	<path id="XMLID_24_" class="st2" d="M192.7,64.9c0-4.6-0.2-8.5-0.4-11.9h9.6l0.5,5h0.2c1.6-2.3,4.8-5.9,11.2-5.9
		c4.8,0,8.5,2.5,10.1,6.4h0.2c1.4-2,3-3.4,4.8-4.4c2-1.2,4.3-1.8,6.9-1.8c7.1,0,12.5,5,12.5,16.2v22.1h-11.2V70.3
		c0-5.3-1.8-8.5-5.3-8.5c-2.7,0-4.4,1.8-5.3,4.1c-0.4,0.9-0.5,2.1-0.5,3v21.9h-11.2v-21c0-4.8-1.6-8-5.3-8c-3,0-4.6,2.3-5.3,4.3
		c-0.4,0.9-0.5,2-0.5,2.8v21.7h-11.2V64.9H192.7z"/>
	<path id="XMLID_65_" class="st2" d="M256.2,65.5c0-4.8-0.2-9.1-0.4-12.5h10l0.5,5.2h0.2c2.7-3.9,6.9-6.1,12.3-6.1
		c8,0,15.3,7.1,15.3,19c0,13.5-8.5,19.9-16.7,19.9c-4.4,0-7.8-1.8-9.6-4.3h-0.2v18.5h-11.4V65.5z M267.6,74.2c0,0.9,0,1.8,0.2,2.5
		c0.7,3.2,3.4,5.5,6.8,5.5c5,0,7.8-4.3,7.8-10.5c0-5.9-2.7-10.5-7.8-10.5c-3.2,0-6.1,2.5-6.9,5.9c-0.2,0.5-0.2,1.4-0.2,2.1v5H267.6z
		"/>
	<path id="XMLID_62_" class="st2" d="M320.6,90.2l-0.7-3.7h-0.2c-2.5,3-6.2,4.6-10.5,4.6c-7.5,0-11.9-5.5-11.9-11.4
		c0-9.6,8.5-14.4,21.7-14.2v-0.5c0-2-1.1-4.8-6.8-4.8c-3.7,0-7.8,1.2-10.1,2.8l-2.1-7.5c2.5-1.4,7.7-3.2,14.2-3.2
		c12.3,0,16.2,7.3,16.2,16.2v13c0,3.6,0.2,6.9,0.5,9.1h-10.3V90.2z M319.4,72.6c-6.1,0-10.7,1.4-10.7,5.9c0,3,2,4.4,4.4,4.4
		c2.8,0,5.2-2,5.9-4.3c0.2-0.5,0.2-1.2,0.2-2v-4.1H319.4z"/>
	<path id="XMLID_19_" class="st2" d="M338.1,64.9c0-4.6-0.2-8.5-0.4-11.9h10l0.5,5.2h0.2c1.4-2.3,5.3-5.9,11.4-5.9
		c7.5,0,13.2,5,13.2,16v22.1h-11.4V69.8c0-4.8-1.6-8-5.9-8c-3.2,0-5,2.1-5.9,4.3c-0.4,0.7-0.5,1.8-0.5,2.8v21.5h-11.4V64.9H338.1z"
		/>
	<path id="XMLID_58_" class="st2" d="M416,53c-0.2,2.3-0.4,5.5-0.4,11v20.8c0,7.1-1.4,13-5.5,16.7c-4.1,3.6-9.6,4.6-15,4.6
		c-4.8,0-10-1.1-13.3-2.8l2.3-8.7c2.3,1.4,6.4,2.8,10.7,2.8c5.5,0,9.6-3,9.6-9.8v-2.5h-0.2c-2.1,3.2-5.7,4.8-10,4.8
		c-9.1,0-15.7-7.5-15.7-18.3c0-11.9,7.7-19.6,16.7-19.6c5,0,8.2,2.1,10.1,5.3h0.2l0.4-4.4H416z M404.3,68.2c0-0.7,0-1.6-0.2-2.1
		c-0.9-3-3-5.2-6.2-5.2c-4.1,0-7.5,3.7-7.5,10.7c0,5.5,2.7,10,7.5,10c3,0,5.3-2,6.1-4.8c0.4-0.9,0.4-2.1,0.4-3L404.3,68.2
		L404.3,68.2z"/>
	<path id="XMLID_55_" class="st2" d="M460,71.2c0,13.7-9.6,19.9-19.4,19.9c-10.9,0-19-7.1-19-19.2s7.8-19.8,19.8-19.8
		C452.4,52.1,460,60,460,71.2 M433.3,71.5c0,6.4,2.7,11.2,7.5,11.2c4.4,0,7.3-4.4,7.3-11.2c0-5.5-2.1-11.2-7.3-11.2
		C435.3,60.3,433.3,66,433.3,71.5"/>
	<polygon id="XMLID_14_" class="st2" points="98,82.7 127,40.6 127,40.2 100.7,40.2 100.7,28.6 144.8,28.6 144.8,36.6 116.5,78.3 
		116.5,78.7 145.2,78.7 145.2,90.2 98,90.2 	"/>
</g>
</svg>
